<?xml version="1.0" encoding="UTF-8"?>
<svg width="246" height="96" version="1.1" viewBox="0 0 65.087 25.4" xmlns="http://www.w3.org/2000/svg" xmlns:cc="http://creativecommons.org/ns#" xmlns:dc="http://purl.org/dc/elements/1.1/" xmlns:rdf="http://www.w3.org/1999/02/22-rdf-syntax-ns#">
 <metadata>
  <rdf:RDF>
   <cc:Work rdf:about="">
    <dc:format>image/svg+xml</dc:format>
    <dc:type rdf:resource="http://purl.org/dc/dcmitype/StillImage"/>
    <dc:title/>
   </cc:Work>
  </rdf:RDF>
 </metadata>
 <g transform="matrix(1.0055 0 0 .9935 2.5464e-6 -2.4733e-6)" fill="#a08" stroke="#000">
  <g stroke-width=".48319">
   <path d="m0.24573 25.098 0.10729-6.7594 0.96563-0.05365 2.8969 4.0771 0.05365-4.6136 1.663-0.21458-0.32188 7.0813-1.1266 0.10729-2.8432-3.7016 0.21459 3.9698z"/>
   <path d="m29.821 0.38566a4.1638 3.3496 76.08 0 0-0.58876 0.03735 4.1638 3.3496 76.08 0 0-2.4897 4.6539 4.1638 3.3496 76.08 0 0 4.117 3.5082 4.1638 3.3496 76.08 0 0 2.4896-4.6539 4.1638 3.3496 76.08 0 0-3.5282-3.5456zm0.11321 2.0225a2.1191 1.7047 76.08 0 1 1.7928 1.8043 2.1191 1.7047 76.08 0 1-1.267 2.3685 2.1191 1.7047 76.08 0 1-2.0953-1.7854 2.1191 1.7047 76.08 0 1 1.2671-2.3685 2.1191 1.7047 76.08 0 1 0.30242-0.01888z"/>
   <path d="m15.46 17.984-0.09318 1.7612 2.9222-0.29165-0.42058 5.1812 1.8467 0.0047-0.36176-5.0814 2.5131 0.27254-0.27171-1.7029-2.9442-0.0042z"/>
   <path d="m10.424 17.985a3.7137 3.208 27.37 0 0-0.61886 0.0523 3.7137 3.208 27.37 0 0-2.3968 3.8562 3.7137 3.208 27.37 0 0 4.5121 2.6818 3.7137 3.208 27.37 0 0 2.3968-3.8562 3.7137 3.208 27.37 0 0-3.8931-2.7341zm0.21838 1.631a1.89 1.6327 27.37 0 1 1.9784 1.3915 1.89 1.6327 27.37 0 1-1.2198 1.9625 1.89 1.6327 27.37 0 1-2.2964-1.3649 1.89 1.6327 27.37 0 1 1.2198-1.9625 1.89 1.6327 27.37 0 1 0.3179-0.02662z"/>
   <path d="m37.703 17.985a3.7137 3.208 27.37 0 0-0.61886 0.0523 3.7137 3.208 27.37 0 0-2.3968 3.8562 3.7137 3.208 27.37 0 0 4.5121 2.6818 3.7137 3.208 27.37 0 0 2.3968-3.8562 3.7137 3.208 27.37 0 0-3.8931-2.7341zm0.21838 1.631a1.89 1.6327 27.37 0 1 1.9784 1.3915 1.89 1.6327 27.37 0 1-1.2198 1.9625 1.89 1.6327 27.37 0 1-2.2964-1.3649 1.89 1.6327 27.37 0 1 1.2198-1.9625 1.89 1.6327 27.37 0 1 0.3179-0.02662z"/>
  </g>
  <g>
   <path d="m42.994 19.149 1.3945-0.48904s0.30988 5.1628 2.3793 4.7966c1.7228-0.30483 0.10129-5.2612 0.20283-5.3594l1.4842-0.50419s1.7458 7.059-1.5062 7.4814c-3.252 0.42232-3.9546-5.9253-3.9546-5.9253z" stroke-width=".48319"/>
   <path d="m50.909 25.098 0.10729-6.7594 0.96563-0.05365 2.8969 4.0771 0.05365-4.6136 1.663-0.21458-0.32188 7.0813-1.1266 0.10729-2.8432-3.7016 0.21459 3.9698z" stroke-width=".48319"/>
   <g stroke-width=".48313">
    <path d="m27.556 18.483c2.754-0.1251 3.7858-0.60135 5.5611-1.0995l-0.29319 1.7425c-0.89986 0.07311-1.2492 0.2538-3.1619 0.373l0.15136 1.7573c1.0099-0.10782 2.0198-0.33996 3.0296-0.65042-0.20571 0.46041-0.34915 0.97522-0.29319 1.6395-1.101 0.2992-1.9429 0.39668-2.7901 0.49826l-0.15136 2.572-2.0523-0.07608c0.65508-2.6009 0.3863-4.5611 0-6.7566z"/>
    <path d="m61.325 17.324c-1.3088 0.01541-2.6737 0.47756-2.687 0.57362 0.42021 4.9489 0.34286 4.4706 0.34756 7.3086 4.669 0.40673 5.2463-0.61536 5.4933-4.3286 0.16509-2.4826-1.4141-3.5742-3.1539-3.5537zm1.453 4.0985c0.1078 2.3047-2.1523 2.3451-2.1523 2.3451-0.01604-3.1799-0.19067-3.9651-0.0977-4.6441 2.0907-0.02183 2.2032 1.4724 2.25 2.299z"/>
    <path d="m20.643 0.24156-3.8999 5.7184 0.29982 1.7965 3.6001-0.7457v2.6786l2.6181-0.62131-0.30019-2.4986 1.6452-0.62162-0.22094-1.604-1.5743 0.37316-0.21768-4.4754zm0 3.2322v1.6161l-1.6499 0.49724z"/>
    <path d="m39.164 0.24156-3.8999 5.7184 0.29982 1.7965 3.6001-0.7457v2.6786l2.6181-0.62131-0.30019-2.4986 1.6452-0.62162-0.22094-1.604-1.5743 0.37316-0.21768-4.4754zm0 3.2322v1.6161l-1.6499 0.49724z"/>
   </g>
  </g>
 </g>
</svg>
