<?xml version="1.0" encoding="UTF-8"?>
<svg width="240" height="42" version="1.1" viewBox="0 0 63.5 11.112" xmlns="http://www.w3.org/2000/svg" xmlns:cc="http://creativecommons.org/ns#" xmlns:dc="http://purl.org/dc/elements/1.1/" xmlns:rdf="http://www.w3.org/1999/02/22-rdf-syntax-ns#">
 <metadata>
  <rdf:RDF>
   <cc:Work rdf:about="">
    <dc:format>image/svg+xml</dc:format>
    <dc:type rdf:resource="http://purl.org/dc/dcmitype/StillImage"/>
    <dc:title/>
   </cc:Work>
  </rdf:RDF>
 </metadata>
 <path d="m61.102 0.48358v5.8214h1.9139v-5.8214zm-7.5046 0.012033v7.201h4.8731v-7.201zm-53.114 0v10.133h39.812v-10.133z" stroke="#000" stroke-width=".96765"/>
 <path d="m43.813 9.321c-0.02769-0.52244 1.0448-0.88425 2.7117-1.0191v-0.73838c0-0.14717-0.68696 0.056879-0.79543-0.31644-0.39225 0.07467-1.0842-0.39101-0.86774-0.6329-0.5914-0.32481-0.52163-0.075283-0.64906-0.74504-0.33054-0.3257-0.23764-1.0833-0.23764-1.0833-0.2789-0.38088-0.24192-1.0897 0.021522-1.3216-0.086963-0.41774-0.18335-1.1046 0.14206-1.0694-0.36155-0.49225 0.072311-1.4065 0.47002-1.1252-0.18078-0.52741 0.39771-0.91418 0.79543-0.73838 0.10847-0.42193 0.68696-0.52741 1.157-0.28129 0.37605-0.20075 0.74699-0.43629 1.2166-4.7e-7 0.50618-0.28129 1.0124-4.7e-7 1.1208 0.42193 0.39771-0.17581 1.0485 0.14065 0.86774 0.66806 0.39771-0.28128 1.0124 0.49225 0.6508 0.9845 0.3254-0.035161 0.36412 0.53344 0.18078 1.0197 0.17458 0.2376 0.39771 0.84386-0.07231 1.4416 0 0 0.11988 0.61744-0.21009 0.89326-0.0067 0.50657-0.12924 0.84749-0.46652 0.74674 0.2142 0.17654-0.46811 0.99168-0.79113 0.72831-0.04904 0.59773-0.919 0.40938-0.9547 0.40938v0.73838c1.461-0.11667 2.5287 0.63682 2.6756 1.0191z" stroke-width=".99998"/>
</svg>
