<?xml version="1.0" encoding="UTF-8"?>
<svg width="240" height="42" version="1.1" viewBox="0 0 63.5 11.112" xmlns="http://www.w3.org/2000/svg" xmlns:cc="http://creativecommons.org/ns#" xmlns:dc="http://purl.org/dc/elements/1.1/" xmlns:rdf="http://www.w3.org/1999/02/22-rdf-syntax-ns#">
 <metadata>
  <rdf:RDF>
   <cc:Work rdf:about="">
    <dc:format>image/svg+xml</dc:format>
    <dc:type rdf:resource="http://purl.org/dc/dcmitype/StillImage"/>
    <dc:title/>
   </cc:Work>
  </rdf:RDF>
 </metadata>
 <path d="m61.102 3.6586v2.6464h1.9139v-2.6464zm-7.5046-3.163v7.201h4.8731v-7.201zm-53.114 0.017813v10.115h39.812v-10.115z" fill="#37c8ab" stroke="#37c8ab" stroke-width=".96765"/>
 <g transform="matrix(.99998 0 0 .99998 43.754 .053849)" fill="#37c8ab">
  <path d="m2.3557 5.2548c0.0044847 0.19186-0.080732 0.34936-0.19034 0.35178-0.1096 0.0024211-0.20209-0.15115-0.20658-0.343-0.0044849-0.19186 0.091331-0.32063 0.17726-0.48666 0.063148 0.13377 0.21517 0.28602 0.21966 0.47788z"/>
  <path d="m2.3557 6.329c0.0044847 0.19186-0.080732 0.34935-0.19034 0.35178-0.1096 0.0024211-0.20209-0.15115-0.20658-0.343-0.00448-0.19186 0.091331-0.32063 0.17726-0.48666 0.063148 0.13377 0.21517 0.28602 0.21966 0.47788z"/>
  <path d="m5.0587 5.2548c0.004486 0.19186-0.080731 0.34936-0.19034 0.35178-0.1096 0.0024211-0.20209-0.15115-0.20658-0.343-0.004486-0.19186 0.091331-0.32063 0.17725-0.48666 0.063148 0.13377 0.21517 0.28602 0.21966 0.47788z"/>
  <path d="m5.0587 6.329c0.004486 0.19186-0.080732 0.34936-0.19034 0.35178-0.1096 0.0024266-0.20209-0.15115-0.20658-0.343-0.004486-0.19186 0.091331-0.32063 0.17725-0.48666 0.063148 0.13377 0.21517 0.28602 0.21966 0.47788z"/>
 </g>
</svg>
