<?xml version="1.0" encoding="UTF-8"?>
<svg width="272" height="48" version="1.1" viewBox="0 0 71.967 12.7" xmlns="http://www.w3.org/2000/svg" xmlns:cc="http://creativecommons.org/ns#" xmlns:dc="http://purl.org/dc/elements/1.1/" xmlns:rdf="http://www.w3.org/1999/02/22-rdf-syntax-ns#">
 <metadata>
  <rdf:RDF>
   <cc:Work rdf:about="">
    <dc:format>image/svg+xml</dc:format>
    <dc:type rdf:resource="http://purl.org/dc/dcmitype/StillImage"/>
    <dc:title/>
   </cc:Work>
  </rdf:RDF>
 </metadata>
 <g transform="translate(-2.8528 -87.944)" fill="#fff" stroke-width=".23386" aria-label="Contact Me">
  <path d="m13.119 91.545q0.04677-0.11693 0.07016-0.35078 0.04677-0.25724 0.04677-0.44433 0-0.35078-0.11693-0.72496-0.11693-0.37417-0.44433-0.67818-0.30401-0.30401-0.84188-0.4911-0.51448-0.18708-1.3564-0.18708-0.67818 0-1.2628 0.28063-0.58464 0.25724-1.0991 0.63141-0.58464 0.42094-1.333 1.2394-0.72495 0.8185-1.3798 1.8475-0.6548 1.0056-1.0991 2.1515-0.42094 1.1225-0.42094 2.1982 0 0.58464 0.21047 0.95881t0.53787 0.58464q0.35078 0.21047 0.79511 0.30401 0.44433 0.07016 0.91204 0.07016 1.9644 0 3.578-1.029 1.6136-1.0524 3.0635-3.0401 0.07016-0.09354 0.11693-0.09354 0.09354 0 0.09354 0.3274 0 0.18708-0.07016 0.3274-0.04677 0.11693-0.11693 0.23386-1.0757 1.6136-2.853 2.549-1.7539 0.91204-3.8586 0.91204-0.67818 0-1.3096-0.14031-0.60803-0.11693-1.0991-0.42094-0.46771-0.3274-0.74834-0.84188-0.28063-0.53787-0.28063-1.333 0-0.88865 0.3274-1.8241 0.35078-0.93542 0.88865-1.8007 0.53787-0.86527 1.1927-1.6136 0.67818-0.74834 1.3564-1.2628 0.84188-0.6548 1.8708-1.029 1.029-0.39756 2.1515-0.39756 0.84188 0 1.7072 0.18708 0.88865 0.1637 1.637 0.60803 0.18708 0.09354 0.18708 0.28063-0.1637 0.28063-0.42094 0.88865-0.25724 0.58464-0.42094 1.0524z"/>
  <path d="m21.249 94.912q-0.39756 0.53787-0.9822 0.9822-0.56126 0.42094-1.2862 0.42094-0.39756 0-0.79511-0.18708-0.37417-0.21047-0.60803-0.60803-0.1637 0.37417-0.42094 0.86527-0.25724 0.46771-0.60803 0.95881-0.35078 0.46771-0.79511 0.86527-0.42094 0.39756-0.91204 0.6548-0.42094 0.18708-0.70157 0.18708-0.84188 0-0.84188-0.74834 0-0.42094 0.14031-0.86527 0.1637-0.44433 0.39756-0.86527t0.4911-0.79511q0.28063-0.37417 0.51448-0.60803 0.4911-0.53787 1.1225-0.91204 0.63141-0.37417 1.3564-0.44433 0.04677-0.18708 0.14031-0.42094 0.09354-0.25724 0.3274-0.30401 0.11693-0.02339 0.23386-0.04677 0.11693-0.02339 0.21047-0.07016 0.07016-0.04677 0.14031 0 0.07016 0.02339 0.02339 0.11693-0.1637 0.25724-0.25724 0.6548-0.07016 0.39756-0.07016 0.86527 0 0.6548 0.23386 1.0757 0.25724 0.42094 0.86527 0.42094t1.0991-0.39756q0.4911-0.39756 0.8185-0.86527 0.04677-0.11693 0.14031-0.07016 0.11693 0.04677 0.02339 0.14031zm-3.8586 0.1637q-0.04677-0.21047-0.07016-0.4911t-0.02339-0.53787q0-0.11693-0.09354-0.11693-0.25724 0-0.53787 0.18708-0.28063 0.1637-0.56126 0.46771-0.28063 0.28063-0.56126 0.6548t-0.51448 0.77172q-0.30401 0.51448-0.56126 1.1225-0.23386 0.58464-0.21047 1.1225 0 0.1637 0.04677 0.30401 0.07016 0.14031 0.28063 0.14031 0.39756 0 0.86527-0.44433t0.88865-1.029q0.42094-0.60803 0.70157-1.2161 0.30401-0.60803 0.35078-0.93542z"/>
  <path d="m26.674 95.871q-0.42094 0.58464-0.9822 1.1927-0.53787 0.58464-1.1693 1.0524-0.60803 0.46771-1.2628 0.77172-0.63141 0.30401-1.2394 0.30401-0.28063 0-0.51448-0.09354-0.23386-0.07016-0.23386-0.39756t0.23386-0.8185q0.23386-0.51448 0.53787-1.0757 0.3274-0.56126 0.6548-1.1459 0.35078-0.58464 0.56126-1.0757 0.04677-0.11693 0-0.18708-0.02339-0.09354-0.14031-0.02339-0.25724 0.1637-0.60803 0.44433-0.35078 0.28063-0.72495 0.60803-0.35078 0.30401-0.70157 0.63141-0.3274 0.3274-0.53787 0.58464-0.37417 0.58464-0.6548 1.0757-0.25724 0.4911-0.6548 1.0991-0.09354 0.14031-0.14031 0.14031-0.11693 0-0.21047-0.25724-0.07016-0.25724-0.07016-0.3274 0-0.21047 0.28063-0.56126 0.30401-0.37417 0.6548-0.8185 0.37417-0.74834 0.77172-1.5668 0.39756-0.84188 0.67818-1.4967 0.07016-0.11693 0.21047-0.11693t0.25724 0.11693 0.11693 0.25724q0 0.09354-0.35078 0.6548-0.3274 0.53787-0.6548 1.2628 0.44433-0.39756 0.95881-0.84188 0.53787-0.44433 1.0056-0.8185 0.4911-0.37417 0.84188-0.60803 0.37417-0.25724 0.51448-0.25724 0.09354 0 0.1637 0.11693 0.09354 0.09354 0.09354 0.18708t-0.11693 0.28063q-0.25724 0.37417-0.63141 0.95881t-0.72496 1.2161q-0.3274 0.60803-0.56126 1.1693-0.23386 0.56126-0.23386 0.88865 0 0.28063 0.11693 0.39756 0.11693 0.09354 0.37417 0.09354 0.39756 0 0.93542-0.30401 0.53787-0.30401 1.0991-0.74834 0.58464-0.46771 1.0991-1.029t0.84188-1.0757q0.04677-0.07016 0.14031-0.02339 0.09354 0.02339-0.02339 0.1637z"/>
  <path d="m30.882 90.352q-0.18708 0.04677-0.42094 0.18708-0.23386 0.11693-0.35078 0.30401-0.53787 0.74834-1.0524 1.5668-0.4911 0.8185-0.95881 1.637h2.8998q0.07016 0.04677 0.07016 0.09354t-0.04677 0.07016q-0.18708 0-0.56126 0.02339-0.37417 0-0.8185 0.02339t-0.91204 0.04677-0.8185 0.04677q-0.6548 1.1693-1.0056 1.9878-0.35078 0.8185-0.35078 1.4265 0 0.84188 0.77173 0.84188 0.37417 0 0.84188-0.18708 0.4911-0.21047 1.029-0.53787 0.07016-0.07016 0.14031 0.02339 0.07016 0.07016-0.04677 0.11693-0.79511 0.51448-1.4733 0.74834t-1.3798 0.23386q-0.37417 0-0.6548-0.21047-0.28063-0.23386-0.28063-0.77173 0-0.46771 0.42094-1.3798 0.42094-0.91204 1.2394-2.245-0.28063 0.02339-0.70157 0.07016-0.39756 0.02339-0.46771 0.02339-0.11693 0-0.11693-0.09354 0.09354-0.1637 0.30401-0.3274l1.1927-0.02339q0.21047-0.35078 0.46771-0.77173 0.25724-0.44433 0.51448-0.86527 0.25724-0.44433 0.51448-0.84188 0.28063-0.42094 0.4911-0.77173 0.25724-0.11693 0.70157-0.30401 0.46771-0.18708 0.8185-0.30401 0.04677 0 0.07016 0.07016 0.02339 0.04677-0.07016 0.09354z"/>
  <path d="m38.1 95.684q-0.53787 0.6548-1.1927 1.333-0.63141 0.6548-1.2862 1.1927-0.6548 0.53787-1.3096 0.86527-0.63141 0.3274-1.1693 0.3274-0.46771 0-0.6548-0.23386-0.18708-0.23386-0.18708-0.58464 0-0.3274 0.18708-0.86527 0.21047-0.56126 0.60803-1.1927-0.30401 0.39756-0.70157 0.84188-0.39756 0.44433-0.8185 0.8185-0.42094 0.35078-0.84188 0.60803-0.42094 0.23386-0.74834 0.23386-0.4911 0-0.4911-0.4911 0-0.53787 0.42094-1.3564 0.42094-0.8185 1.1225-1.5668 0.72496-0.77173 1.637-1.3096 0.91204-0.56126 1.8942-0.56126 0.11693-0.23386 0.21047-0.3274t0.18708-0.14031l0.6548-0.18708 0.04677 0.02339q-0.11693 0.11693-0.23386 0.30401-0.09354 0.1637-0.21047 0.35078 0.11693 0 0.35078 0.02339 0.23386 0.02339 0.35078 0.04677 0.11693 0.04677 0.11693 0.11693t-0.07016 0.07016q-0.14031-0.04677-0.42094-0.07016t-0.42094-0.02339q-1.0757 1.8942-1.5902 3.0167-0.4911 1.0991-0.4911 1.637 0 0.21047 0.09354 0.35078 0.11693 0.14031 0.44433 0.14031 0.37417 0 0.88865-0.25724 0.51448-0.28063 1.0991-0.74834 0.58464-0.4911 1.1927-1.1225 0.63141-0.63141 1.1927-1.333 0.04677-0.07016 0.09354-0.02339 0.04677 0.02339 0.04677 0.09354zm-3.6482-1.7773q-0.79511 0-1.5201 0.56126-0.72496 0.56126-1.2862 1.333-0.56126 0.74834-0.91204 1.4967-0.3274 0.74834-0.3274 1.0991 0 0.18708 0.14031 0.18708t0.42094-0.18708q0.30401-0.18708 0.67818-0.4911 0.37417-0.3274 0.74834-0.74834 0.39756-0.42094 0.72496-0.91204 0.37417-0.56126 0.72495-1.1927 0.35078-0.63141 0.63141-1.1225z"/>
  <path d="m42.828 95.754q-0.35078 0.44433-0.79511 0.91204-0.44433 0.44433-0.91204 0.86527-0.46771 0.39756-0.95881 0.72495-0.4911 0.3274-0.93542 0.51448-0.35078 0.14031-0.6548 0.18708-0.28063 0.07016-0.53787 0.07016-1.2862 0-1.2862-1.0757 0-0.42094 0.18708-0.88865 0.44433-1.0991 1.2394-1.941 0.8185-0.86527 1.7539-1.2628 0.28063-0.11693 0.46771-0.11693 0.86527 0 0.86527 0.67818 0 0.35078-0.1637 0.53787-0.14031 0.14031-0.46771 0.39756l-0.07016-0.02339q0.07016-0.18708 0.07016-0.39756 0-0.23386-0.18708-0.44433-0.1637-0.21047-0.53787-0.21047-0.44433 0-0.86527 0.30401-0.39756 0.28063-0.72495 0.77173-0.30401 0.46771-0.4911 1.0991-0.18708 0.60803-0.18708 1.2628 0 0.4911 0.25724 0.74834 0.28063 0.23386 0.67818 0.23386 0.6548 0 1.7539-0.74834 1.1225-0.77172 2.3853-2.3152 0.11693-0.11693 0.1637-0.04677 0.07016 0.04677-0.04677 0.1637z"/>
  <path d="m47.179 90.352q-0.18708 0.04677-0.42094 0.18708-0.23386 0.11693-0.35078 0.30401-0.53787 0.74834-1.0524 1.5668-0.4911 0.8185-0.95881 1.637h2.8998q0.07016 0.04677 0.07016 0.09354t-0.04677 0.07016q-0.18708 0-0.56126 0.02339-0.37417 0-0.8185 0.02339t-0.91204 0.04677-0.8185 0.04677q-0.6548 1.1693-1.0056 1.9878-0.35078 0.8185-0.35078 1.4265 0 0.84188 0.77173 0.84188 0.37417 0 0.84188-0.18708 0.4911-0.21047 1.029-0.53787 0.07016-0.07016 0.14031 0.02339 0.07016 0.07016-0.04677 0.11693-0.79511 0.51448-1.4733 0.74834t-1.3798 0.23386q-0.37417 0-0.6548-0.21047-0.28063-0.23386-0.28063-0.77173 0-0.46771 0.42094-1.3798 0.42094-0.91204 1.2394-2.245-0.28063 0.02339-0.70157 0.07016-0.39756 0.02339-0.46771 0.02339-0.11693 0-0.11693-0.09354 0.09354-0.1637 0.30401-0.3274l1.1927-0.02339q0.21047-0.35078 0.46771-0.77173 0.25724-0.44433 0.51448-0.86527 0.25724-0.44433 0.51448-0.84188 0.28063-0.42094 0.4911-0.77173 0.25724-0.11693 0.70157-0.30401 0.46771-0.18708 0.8185-0.30401 0.04677 0 0.07016 0.07016 0.02339 0.04677-0.07016 0.09354z"/>
  <path d="m50.164 99.169q0.07016-0.25724 0.56126-0.9822 0.4911-0.74834 1.2394-1.7305 0.74834-1.0056 1.6604-2.1749t1.8007-2.2684q0.88865-1.1225 1.6604-2.0813 0.79511-0.95881 1.2862-1.5435 0.4911-0.1637 0.77173-0.23386 0.28063-0.09354 0.44433-0.1637 0.14031 0.04677 0.04677 0.14031-0.28063 0.18708-0.35078 0.53787-0.09354 0.53787-0.18708 1.2862-0.09354 0.74834-0.18708 1.5902-0.07016 0.84188-0.14031 1.7305-0.07016 0.88865-0.11693 1.6838-0.04677 0.79511-0.07016 1.4733-0.02339 0.6548-0.02339 1.0524 0 0.23386 0.02339 0.3274 0.04677 0.07016 0.09354 0.07016 0.07016-0.02338 0.14031-0.09354 0.07016-0.09354 0.14031-0.18708 0.25724-0.3274 0.84188-1.029 0.58464-0.72495 1.333-1.6136 0.74834-0.91204 1.5902-1.8942 0.84188-0.9822 1.6136-1.8475 0.77173-0.88865 1.3798-1.5668 0.63141-0.70157 0.93542-0.9822 0.37417-0.18708 0.91204-0.35078t0.86527-0.37417q0.07016 0 0.11693 0.07016 0.04677 0.04677 0 0.11693-0.39756 0.1637-0.58464 0.28063-0.1637 0.11693-0.28063 0.44433-0.28063 0.88865-0.58464 2.0813-0.28063 1.1693-0.53787 2.4087-0.23386 1.2394-0.39756 2.4321-0.1637 1.1693-0.1637 2.0579 0 0.3274 0.14031 0.46771 0.1637 0.11693 0.37417 0.11693t0.46771-0.04677 0.46771-0.14031q0.04677 0 0.04677 0.07016 0.02339 0.04677-0.02339 0.09354-0.23386 0.07016-0.56126 0.1637-0.30401 0.09354-0.63141 0.18708-0.30401 0.09354-0.58464 0.1637-0.25724 0.09354-0.44433 0.14031-0.28063 0-0.46771-0.11693-0.1637-0.09354-0.21047-0.37417 0.02339-0.3274 0.1637-1.0757 0.14031-0.74834 0.35078-1.6838 0.21047-0.93542 0.44433-1.9644 0.25724-1.029 0.46771-1.8942 0.21047-0.88865 0.35078-1.4967 0.1637-0.60803 0.18708-0.72496 0.09354-0.35078 0-0.3274-0.09354 0-0.28063 0.1637-0.44433 0.39756-1.0524 1.029-0.58464 0.60803-1.2628 1.3564-0.6548 0.74834-1.3564 1.5902-0.70157 0.84188-1.3798 1.6838-0.67818 0.84188-1.2862 1.6604-0.60803 0.79511-1.0757 1.4733-0.04677 0.09354-0.11693 0.23386-0.07016 0.11693-0.11693 0.28063-0.44433 0.02339-0.67818 0.11693-0.21047 0.11693-0.44433 0.3274-0.14031 0.04677-0.1637-0.04677 0.07016-0.4911 0.14031-1.3096 0.09354-0.8185 0.1637-1.8007 0.09354-0.9822 0.1637-2.0112 0.07016-1.0524 0.14031-1.9644 0.07016-0.93542 0.11693-1.637 0.04677-0.70157 0.07016-1.0056 0-0.44433-0.37417 0-0.67818 0.77173-1.6136 1.941-0.91204 1.1693-1.8475 2.4321t-1.7773 2.4789q-0.8185 1.2161-1.3096 2.1047-0.42094 0.77172-0.51448 1.1693-0.07016 0.39756-0.04677 0.6548t-0.04677 0.21047q-0.07016-0.0234-0.14031-0.1637-0.07016-0.14032-0.11693-0.42094-0.04677-0.28063-0.1637-0.77172z"/>
  <path d="m74.462 96.105q-0.39756 0.4911-0.95881 1.029-0.53787 0.51448-1.1927 0.95881-0.63141 0.42094-1.333 0.70157-0.67818 0.25724-1.3564 0.25724-1.0991 0-1.0991-0.9822 0-0.6548 0.3274-1.4031 0.35078-0.77173 0.88865-1.4031 0.53787-0.6548 1.1693-1.0757 0.6548-0.44433 1.2394-0.44433 0.3274 0 0.44433 0.11693 0.14031 0.11693 0.14031 0.30401 0 0.28063-0.18708 0.60803-0.1637 0.3274-0.51448 0.63141-0.35078 0.28063-0.88865 0.4911-0.53787 0.18708-1.2862 0.18708-0.11693 0.21047-0.25724 0.67818-0.14031 0.44433-0.14031 0.91204 0 0.95881 0.86527 0.95881 0.53787 0 1.0991-0.25724 0.58464-0.25724 1.1225-0.63141 0.53787-0.39756 0.9822-0.84188 0.46771-0.46771 0.77173-0.86527 0.04677-0.04677 0.09354-0.02339 0.07016 0.02339 0.07016 0.09354zm-2.4555-1.8241q0-0.30401-0.30401-0.30401-0.23386 0-0.4911 0.18708-0.23386 0.1637-0.46771 0.44433-0.23386 0.28063-0.44433 0.60803t-0.35078 0.63141q0.04677 0.02339 0.1637 0.04677 0.11693 0 0.18708 0 0.67818 0 1.1927-0.46771 0.51448-0.4911 0.51448-1.1459z"/>
 </g>
</svg>
