<?xml version="1.0" encoding="UTF-8"?>
<svg width="300" height="98" version="1.1" viewBox="0 0 79.375 25.929" xmlns="http://www.w3.org/2000/svg" xmlns:cc="http://creativecommons.org/ns#" xmlns:dc="http://purl.org/dc/elements/1.1/" xmlns:rdf="http://www.w3.org/1999/02/22-rdf-syntax-ns#">
 <metadata>
  <rdf:RDF>
   <cc:Work rdf:about="">
    <dc:format>image/svg+xml</dc:format>
    <dc:type rdf:resource="http://purl.org/dc/dcmitype/StillImage"/>
    <dc:title/>
   </cc:Work>
  </rdf:RDF>
 </metadata>
 <g transform="translate(-.56119 -22.225)" fill="#fff" stroke-width=".23386" aria-label="My Abilities">
  <path d="m0.56125 38.314q0.070157-0.25724 0.56126-0.9822 0.4911-0.74834 1.2394-1.7305 0.74834-1.0056 1.6604-2.1749 0.91204-1.1693 1.8007-2.2684 0.88865-1.1225 1.6604-2.0813 0.79511-0.95881 1.2862-1.5435 0.4911-0.1637 0.77173-0.23386 0.28063-0.09354 0.44433-0.1637 0.14031 0.04677 0.046771 0.14031-0.28063 0.18708-0.35078 0.53787-0.093542 0.53787-0.18708 1.2862-0.093542 0.74834-0.18708 1.5902-0.070157 0.84188-0.14031 1.7305-0.070157 0.88865-0.11693 1.6838-0.046771 0.79511-0.070157 1.4733-0.023386 0.6548-0.023386 1.0524 0 0.23386 0.023386 0.3274 0.046771 0.07016 0.093542 0.07016 0.070157-0.02339 0.14031-0.09354 0.070157-0.09354 0.14031-0.18708 0.25724-0.3274 0.84188-1.029 0.58464-0.72495 1.333-1.6136 0.74834-0.91204 1.5902-1.8942 0.84188-0.9822 1.6136-1.8475 0.77172-0.88865 1.3798-1.5668 0.63141-0.70157 0.93542-0.9822 0.37417-0.18708 0.91204-0.35078t0.86527-0.37417q0.07016 0 0.11693 0.07016 0.04677 0.04677 0 0.11693-0.39756 0.1637-0.58464 0.28063-0.1637 0.11693-0.28063 0.44433-0.28063 0.88865-0.58464 2.0813-0.28063 1.1693-0.53787 2.4087-0.23386 1.2394-0.39756 2.4321-0.1637 1.1693-0.1637 2.0579 0 0.3274 0.14031 0.46771 0.1637 0.11693 0.37417 0.11693t0.46771-0.04677 0.46771-0.14031q0.04677 0 0.04677 0.07016 0.02339 0.04677-0.02339 0.09354-0.23386 0.07016-0.56126 0.1637-0.30401 0.09354-0.63141 0.18708-0.30401 0.09354-0.58464 0.1637-0.25724 0.09354-0.44433 0.14031-0.28063 0-0.46771-0.11693-0.1637-0.09354-0.21047-0.37417 0.02339-0.3274 0.1637-1.0757 0.14031-0.74834 0.35078-1.6838 0.21047-0.93542 0.44433-1.9644 0.25724-1.029 0.46771-1.8942 0.21047-0.88865 0.35078-1.4967 0.1637-0.60803 0.18708-0.72495 0.09354-0.35078 0-0.3274-0.09354 0-0.28063 0.1637-0.44433 0.39756-1.0524 1.029-0.58464 0.60803-1.2628 1.3564-0.6548 0.74834-1.3564 1.5902-0.70157 0.84188-1.3798 1.6838-0.67818 0.84188-1.2862 1.6604-0.60803 0.79511-1.0757 1.4733-0.046771 0.09354-0.11693 0.23386-0.070157 0.11693-0.11693 0.28063-0.44433 0.02339-0.67818 0.11693-0.21047 0.11693-0.44433 0.3274-0.14031 0.04677-0.1637-0.04677 0.070157-0.4911 0.14031-1.3096 0.093543-0.8185 0.1637-1.8007 0.093542-0.9822 0.1637-2.0112 0.070157-1.0524 0.14031-1.9644 0.070157-0.93542 0.11693-1.637 0.046771-0.70157 0.070157-1.0056 0-0.44433-0.37417 0-0.67818 0.77173-1.6136 1.941-0.91204 1.1693-1.8475 2.4321t-1.7773 2.4789q-0.8185 1.2161-1.3096 2.1047-0.42094 0.77173-0.51448 1.1693-0.070157 0.39756-0.046771 0.6548t-0.046771 0.21047q-0.070157-0.02339-0.14031-0.1637-0.070151-0.14033-0.11692-0.42095-0.046771-0.28063-0.1637-0.77172z"/>
  <path d="m19.317 37.776q-0.3274 0-0.51448-0.14031t-0.18708-0.42094q0-0.46771 0.56126-1.3798 0.58464-0.93542 1.4031-2.1982 0.09354-0.11693 0.14031-0.1637 0.07016-0.07016 0.14031-0.11693 0.11693-0.02339 0.30401-0.04677 0.21047-0.04677 0.25724-0.04677 0.09354 0 0.09354 0.07016-0.84188 1.4733-1.4265 2.4087-0.56126 0.91204-0.56126 1.4265 0 0.28063 0.25724 0.28063 0.11693 0 0.30401-0.07016t0.39756-0.18708q0.21047-0.11693 0.39756-0.23386 0.18708-0.14031 0.28063-0.25724 0.21047-0.21047 0.60803-0.9822 0.42094-0.79511 1.0056-1.8475 0.28063-0.51448 0.51448-0.86527 0.25724-0.35078 0.42094-0.35078 0.09354 0.04677 0.1637 0.23386 0.09354 0.18708 0.09354 0.37417 0 0.09354-0.21047 0.44433-0.21047 0.3274-0.53787 0.79511-0.3274 0.44433-0.72496 0.95881-0.37417 0.51448-0.72495 0.95881-0.84188 1.2862-1.7072 2.6426-0.84188 1.3798-1.7072 2.6426-0.86527 1.2862-1.7773 2.4087-0.91204 1.1459-1.8708 1.9878-0.9822 0.84188-2.0112 1.333-1.0524 0.4911-2.1982 0.4911-0.67818 0-1.2161-0.3274-0.53787-0.3274-0.53787-1.1459 0-0.18708 0.046771-0.39756 0.023386-0.18708 0.070157-0.30401 0.023386-0.07016 0.070157-0.09354 0.046771-0.02339 0.046771 0.07016 0 0.63141 0.46771 1.1459t1.6604 0.51448q0.95881 0 1.9176-0.4911 0.93542-0.46771 1.8475-1.2628 0.88865-0.79511 1.7305-1.8475 0.84188-1.0524 1.6136-2.1982 0.79511-1.1459 1.4967-2.3152 0.70157-1.1459 1.2862-2.1749 0.04677-0.09354 0-0.07016-0.04677 0.02339-0.07016 0.04677-0.25724 0.21047-0.70157 0.46771-0.44433 0.23386-0.91204 0.23386z"/>
  <path d="m33.566 33.029q0.02339 0.14031 0.30401 0.21047 0.28063 0.07016 0.6548 0.09354 0.39756 0.02339 0.8185 0.02339t0.70157 0q0.74834 0 1.2161 0.02339 0.46771 0 0.6548 0.04677 0.23386 0.07016 0.25724 0.07016 0.04677-0.02339 0.09354-0.18708 0.09354-0.46771 0.23386-1.2628 0.14031-0.79511 0.28063-1.5902 0.14031-0.79511 0.23386-1.3798 0.11693-0.60803 0.14031-0.70157 0.04677-0.18708 0-0.18708-0.04677-0.02339-0.23386 0.11693-0.07016 0.04677-0.39756 0.3274-0.3274 0.25724-0.84188 0.67818-0.4911 0.42094-1.0991 0.93542-0.58464 0.4911-1.1693 1.0056-0.56126 0.4911-1.0524 0.95881-0.4911 0.46771-0.79511 0.8185zm-6.0335 5.7061q0.02339-0.42094 0.30401-0.74834 0.30401-0.35078 0.79511-0.8185 4.49-4.186 7.2495-6.5947 2.7595-2.4321 3.5312-2.97 0.18708-0.11693 0.56126-0.21047 0.37417-0.09354 0.51448-0.23386 0.14031-0.14031 0.14031-0.02338 0.02338 0.09354-0.02339 0.18708-0.23386 0.35078-0.37417 0.8185-0.14031 0.44433-0.18708 0.74834-0.02338 0.09354-0.14031 0.63141-0.09354 0.51448-0.23386 1.2862-0.14031 0.74834-0.30401 1.637-0.14031 0.86527-0.28063 1.6838-0.14031 0.79511-0.23386 1.4499-0.07016 0.63141-0.09354 0.88865 0 0.39756 0.07016 0.63141 0.09354 0.21047 0.21047 0.3274 0.11693 0.09354 0.23386 0.11693t0.18708 0.02339q0.11693 0 0.28063-0.02339 0.1637-0.04677 0.35078-0.09354t0.18708 0.02339q0.02339 0.07016-0.1637 0.11693-0.09354 0.02339-0.35078 0.09354-0.23386 0.07016-0.56126 0.1637-0.30401 0.09354-0.63141 0.18708-0.30401 0.07016-0.53787 0.11693-0.35078 0-0.46771-0.46771 0.02339-0.14031 0.09354-0.58464 0.07016-0.46771 0.14031-0.9822 0.09354-0.51448 0.1637-0.95881 0.07016-0.46771 0.07016-0.60803 0-0.25724-0.25724-0.51448-0.23386-0.28063-0.70157-0.39756-0.1637-0.04677-0.63141-0.07016t-1.1225-0.02339q-0.67818 0-1.333 0-0.6548-0.02339-0.9822-0.07016-1.7773 1.6136-2.9934 2.9466-1.1927 1.333-1.8007 2.2216-0.18708 0.30401-0.28063 0.53787-0.07016 0.25724-0.11693 0.6548-0.04677 0.14031-0.14031 0.07016z"/>
  <path d="m53.45 22.997q0 0.35078-0.02339 0.46771t-0.09354 0.04677q-0.11693-0.11693-0.3274-0.25724-0.18708-0.1637-0.67818-0.1637-0.42094 0-0.77172 0.04677t-0.72496 0.18708q-0.35078 0.14031-0.74834 0.39756-0.39756 0.23386-0.88865 0.6548-0.70157 0.58464-1.5201 1.7305-0.8185 1.1225-1.6604 2.4789-0.8185 1.333-1.5668 2.7361-0.74834 1.3798-1.3096 2.4789-0.18708 0.37417-0.42094 0.88865-0.21047 0.4911-0.39756 1.0056-0.1637 0.4911-0.28063 0.93542-0.11693 0.42094-0.11693 0.63141 0 0.63141 0.42094 0.63141 0.25724 0 0.58464-0.23386 0.3274-0.25724 0.63141-0.70157 0.30401-0.46771 0.51448-1.1225 0.21047-0.67818 0.21047-1.5201 0-0.28063-0.04677-0.44433-0.02339-0.18708-0.07016-0.30401 0-0.14031 0.14031-0.28063 0.09354-0.09354 0.23386-0.21047 0.14031-0.14031 0.25724-0.21047 0.07016 0 0.09354 0.04677 0 0.46771 0.1637 0.79511 0.18708 0.30401 0.44433 0.51448 0.28063 0.18708 0.58464 0.28063 0.3274 0.09354 0.60803 0.09354 0.39756 0 0.86527-0.11693 0.46771-0.14031 0.95881-0.44433 0.11693-0.07016 0.14031 0.02339 0.04677 0.07016-0.07016 0.11693-0.74834 0.39756-1.3798 0.58464-0.60803 0.18708-1.1459 0.18708-0.44433 0-0.8185-0.18708-0.35078-0.21047-0.53787-0.46771 0 0.88865-0.30401 1.6136-0.28063 0.72496-0.70157 1.2394-0.42094 0.4911-0.91204 0.77173t-0.88865 0.28063q-0.37417 0-0.63141-0.23386-0.23386-0.23386-0.23386-0.72495 0-0.37417 0.1637-0.91204t0.39756-1.0757q0.25724-0.56126 0.51448-1.0524 0.25724-0.51448 0.42094-0.8185 0.63141-1.1693 1.3564-2.3853 0.72495-1.2161 1.5201-2.4087 0.8185-1.1927 1.7072-2.2918 0.91204-1.1225 1.9176-2.0579 0.28063-0.25724 0.70157-0.60803 0.44433-0.35078 0.93542-0.6548 0.4911-0.3274 0.9822-0.53787 0.51448-0.21047 0.93542-0.21047t0.63141 0.23386q0.23386 0.21047 0.23386 0.53787z"/>
  <path d="m51.128 29.755q0 0.28063-0.25724 0.56126-0.23386 0.28063-0.53787 0.28063-0.28063 0-0.28063-0.28063 0-0.30401 0.21047-0.58464 0.23386-0.28063 0.56126-0.28063 0.30401 0 0.30401 0.30401zm1.0524 5.215q-0.56126 0.72496-1.2862 1.3798-0.72496 0.6548-1.333 1.0524-0.46771 0.30401-0.95881 0.46771t-0.88865 0.1637q-0.14031 0-0.3274-0.02339-0.18708-0.02338-0.35078-0.11693-0.14031-0.09354-0.25724-0.23386-0.09354-0.1637-0.09354-0.42094 0-0.30401 0.23386-0.8185 0.23386-0.53787 0.53787-1.0991 0.3274-0.56126 0.63141-1.0757 0.3274-0.51448 0.51448-0.77173 0.11693-0.18708 0.39756-0.30401 0.30401-0.14031 0.39756-0.14031 0.11693 0 0.11693 0.07016 0 0.04677-0.04677 0.14031-0.02339 0.09354-0.07016 0.14031-0.30401 0.46771-0.63141 1.029-0.30401 0.56126-0.56126 1.0991-0.25724 0.51448-0.42094 0.95881-0.14031 0.44433-0.14031 0.70157 0 0.28063 0.14031 0.42094 0.1637 0.11693 0.42094 0.11693 0.46771 0 1.029-0.30401 0.56126-0.3274 1.0991-0.77172 0.56126-0.44433 1.029-0.93542 0.46771-0.4911 0.72496-0.84188 0.11693-0.11693 0.11693-0.04677 0.02338 0.04677-0.02339 0.1637z"/>
  <path d="m62.078 22.786q0 0.3274-0.25724 0.95881t-0.74834 1.4733q-0.46771 0.8185-1.1693 1.7773-0.67818 0.93542-1.5668 1.8708-0.86527 0.93542-1.9176 1.8007-1.0524 0.84188-2.245 1.4967-0.21047 0.37417-0.58464 1.0056t-0.74834 1.333q-0.35078 0.70157-0.63141 1.3798-0.25724 0.67818-0.25724 1.1459 0 0.74834 0.67818 0.74834 0.58464 0 1.2161-0.3274 0.63141-0.3274 1.1927-0.79511 0.58464-0.46771 1.0757-0.9822 0.51448-0.53787 0.86527-0.95881 0.1637-0.1637 0.18708-0.07016 0.02338 0.07016-0.07016 0.1637-0.42094 0.51448-1.0056 1.0991-0.56126 0.58464-1.2161 1.0757-0.63141 0.4911-1.333 0.8185t-1.4031 0.3274q-0.60803 0-0.88865-0.28063-0.25724-0.30401-0.25724-0.72495t0.35078-1.1927q0.37417-0.79511 0.86527-1.6604 0.4911-0.86527 0.9822-1.637t0.72496-1.1693q0.39756-0.67818 0.8185-1.4031 0.44433-0.74834 0.86527-1.4499t0.79511-1.333q0.39756-0.6548 0.72495-1.1459 0.39756-0.60803 0.8185-1.1459t1.0757-1.0757q0.88865-0.74834 1.637-1.1459t1.0056-0.39756q0.18708 0 0.30401 0.11693 0.11693 0.09354 0.11693 0.30401zm-1.0524 0.60803q0-0.37417-0.30401-0.37417-0.11693 0-0.25724 0.07016t-0.37417 0.30401q-0.21047 0.21047-0.53787 0.60803-0.30401 0.39756-0.79511 1.029-0.18708 0.25724-0.53787 0.74834-0.3274 0.4911-0.86527 1.3096-0.51448 0.79511-1.2628 1.9878-0.72495 1.1693-1.7305 2.7829 1.4031-0.79511 2.6192-1.9176 1.2394-1.1459 2.1281-2.3386 0.88865-1.1927 1.4031-2.3152t0.51448-1.8942z"/>
  <path d="m60.116 29.755q0 0.28063-0.25724 0.56126-0.23386 0.28063-0.53787 0.28063-0.28063 0-0.28063-0.28063 0-0.30401 0.21047-0.58464 0.23386-0.28063 0.56126-0.28063 0.30401 0 0.30401 0.30401zm1.0524 5.215q-0.56126 0.72496-1.2862 1.3798-0.72495 0.6548-1.333 1.0524-0.46771 0.30401-0.95881 0.46771t-0.88865 0.1637q-0.14031 0-0.3274-0.02339-0.18708-0.02338-0.35078-0.11693-0.14031-0.09354-0.25724-0.23386-0.09354-0.1637-0.09354-0.42094 0-0.30401 0.23386-0.8185 0.23386-0.53787 0.53787-1.0991 0.3274-0.56126 0.63141-1.0757 0.3274-0.51448 0.51448-0.77173 0.11693-0.18708 0.39756-0.30401 0.30401-0.14031 0.39756-0.14031 0.11693 0 0.11693 0.07016 0 0.04677-0.04677 0.14031-0.02338 0.09354-0.07016 0.14031-0.30401 0.46771-0.63141 1.029-0.30401 0.56126-0.56126 1.0991-0.25724 0.51448-0.42094 0.95881-0.14031 0.44433-0.14031 0.70157 0 0.28063 0.14031 0.42094 0.1637 0.11693 0.42094 0.11693 0.46771 0 1.029-0.30401 0.56126-0.3274 1.0991-0.77172 0.56126-0.44433 1.029-0.93542 0.46771-0.4911 0.72495-0.84188 0.11693-0.11693 0.11693-0.04677 0.02339 0.04677-0.02338 0.1637z"/>
  <path d="m65.431 29.498q-0.18708 0.04677-0.42094 0.18708-0.23386 0.11693-0.35078 0.30401-0.53787 0.74834-1.0524 1.5668-0.4911 0.8185-0.95881 1.637h2.8998q0.07016 0.04677 0.07016 0.09354t-0.04677 0.07016q-0.18708 0-0.56126 0.02339-0.37417 0-0.8185 0.02339t-0.91204 0.04677q-0.46771 0.02339-0.8185 0.04677-0.6548 1.1693-1.0056 1.9878-0.35078 0.8185-0.35078 1.4265 0 0.84188 0.77173 0.84188 0.37417 0 0.84188-0.18708 0.4911-0.21047 1.029-0.53787 0.07016-0.07016 0.14031 0.02339 0.07016 0.07016-0.04677 0.11693-0.79511 0.51448-1.4733 0.74834t-1.3798 0.23386q-0.37417 0-0.6548-0.21047-0.28063-0.23386-0.28063-0.77173 0-0.46771 0.42094-1.3798 0.42094-0.91204 1.2394-2.245-0.28063 0.02339-0.70157 0.07016-0.39756 0.02339-0.46771 0.02339-0.11693 0-0.11693-0.09354 0.09354-0.1637 0.30401-0.3274l1.1927-0.02338q0.21047-0.35078 0.46771-0.77173 0.25724-0.44433 0.51448-0.86527 0.25724-0.44433 0.51448-0.84188 0.28063-0.42094 0.4911-0.77172 0.25724-0.11693 0.70157-0.30401 0.46771-0.18708 0.8185-0.30401 0.04677 0 0.07016 0.07016 0.02338 0.04677-0.07016 0.09354z"/>
  <path d="m68.977 29.755q0 0.28063-0.25724 0.56126-0.23386 0.28063-0.53787 0.28063-0.28063 0-0.28063-0.28063 0-0.30401 0.21047-0.58464 0.23386-0.28063 0.56126-0.28063 0.30401 0 0.30401 0.30401zm1.0524 5.215q-0.56126 0.72496-1.2862 1.3798-0.72495 0.6548-1.333 1.0524-0.46771 0.30401-0.95881 0.46771t-0.88865 0.1637q-0.14031 0-0.3274-0.02339-0.18708-0.02338-0.35078-0.11693-0.14031-0.09354-0.25724-0.23386-0.09354-0.1637-0.09354-0.42094 0-0.30401 0.23386-0.8185 0.23386-0.53787 0.53787-1.0991 0.3274-0.56126 0.63141-1.0757 0.3274-0.51448 0.51448-0.77173 0.11693-0.18708 0.39756-0.30401 0.30401-0.14031 0.39756-0.14031 0.11693 0 0.11693 0.07016 0 0.04677-0.04677 0.14031-0.02338 0.09354-0.07016 0.14031-0.30401 0.46771-0.63141 1.029-0.30401 0.56126-0.56126 1.0991-0.25724 0.51448-0.42094 0.95881-0.14031 0.44433-0.14031 0.70157 0 0.28063 0.14031 0.42094 0.1637 0.11693 0.42094 0.11693 0.46771 0 1.029-0.30401 0.56126-0.3274 1.0991-0.77172 0.56126-0.44433 1.029-0.93542 0.46771-0.4911 0.72495-0.84188 0.11693-0.11693 0.11693-0.04677 0.02339 0.04677-0.02339 0.1637z"/>
  <path d="m79.53 36.186q-0.74834 0.88865-1.5902 1.2862-0.8185 0.37417-1.3798 0.51448-0.8185 0.18708-1.637 0.25724t-1.5435 0.07016q-0.67818 0-0.67818-0.1637 0-0.04677 0.18708-0.21047t0.42094-0.21047q0.23386 0 0.51448 0.02339 0.28063 0.02338 0.58464 0.02338 0.21047 0 0.44433-0.07016 0.25724-0.07016 0.46771-0.25724t0.3274-0.51448q0.14031-0.3274 0.14031-0.84188 0-0.25724-0.02339-0.53787-0.02338-0.28063-0.11693-0.53787-1.3564 1.5435-2.8764 2.3619-1.5201 0.79511-2.7829 0.79511-0.18708 0-0.42094-0.02339-0.21047-0.02338-0.42094-0.11693-0.18708-0.11693-0.3274-0.30401-0.11693-0.18708-0.11693-0.51448 0-0.39756 0.3274-1.1225 0.3274-0.72495 0.88865-1.4265 0.56126-0.72495 1.2862-1.2394 0.72496-0.53787 1.5201-0.53787 0.23386 0 0.3274 0.1637 0.09354 0.14031 0.09354 0.35078 0 0.14031-0.09354 0.37417-0.07016 0.23386-0.28063 0.46771-0.21047 0.21047-0.53787 0.39756-0.3274 0.1637-0.8185 0.1637-0.46771 0-0.70157-0.25724-0.04677-0.04677-0.11693 0.02339-0.09354 0.09354-0.25724 0.35078t-0.3274 0.60803q-0.1637 0.35078-0.28063 0.74834-0.11693 0.37417-0.11693 0.77173 0 0.84188 0.77173 0.84188 0.25724 0 0.74834-0.07016 0.51448-0.09354 1.1693-0.39756 0.67818-0.3274 1.4967-0.93542t1.6838-1.637q0.11693-0.1637 0.11693-0.25724 0-0.37417 0.23386-0.72495t0.56126-0.63141q0.35078-0.28063 0.70157-0.44433 0.37417-0.1637 0.6548-0.1637 0.14031 0 0.25724 0.09354 0.14031 0.09354 0.14031 0.28063 0 0.14031-0.02339 0.21047-0.07016 0.07016-0.1637 0.1637t-0.1637 0.09354q-0.04677 0-0.14031-0.21047t-0.35078-0.21047q-0.46771 0-0.70157 0.28063t-0.23386 0.74834q0 0.3274 0.09354 0.84188t0.09354 0.9822q0 0.46771-0.3274 0.95881t-0.79511 0.70157q-0.18708 0.09354-0.1637 0.1637 0.02339 0.04677 0.4911 0.04677 0.91204 0 1.8942-0.42094t1.7773-1.2862q0.11693-0.11693 0.1637-0.04677 0.04677 0.04677-0.07016 0.1637zm-7.2495-2.5724q0-0.09354-0.04677-0.23386-0.02339-0.14031-0.23386-0.14031-0.14031 0-0.3274 0.11693t-0.37417 0.30401q-0.18708 0.1637-0.3274 0.35078-0.11693 0.18708-0.1637 0.3274 0 0.23386 0.37417 0.23386 0.3274 0 0.70157-0.23386 0.39756-0.25724 0.39756-0.72495z"/>
 </g>
</svg>
