<?xml version="1.0" encoding="UTF-8"?>
<svg width="346" height="88" version="1.1" viewBox="0 0 91.546 23.283" xmlns="http://www.w3.org/2000/svg" xmlns:cc="http://creativecommons.org/ns#" xmlns:dc="http://purl.org/dc/elements/1.1/" xmlns:rdf="http://www.w3.org/1999/02/22-rdf-syntax-ns#">
 <metadata>
  <rdf:RDF>
   <cc:Work rdf:about="">
    <dc:format>image/svg+xml</dc:format>
    <dc:type rdf:resource="http://purl.org/dc/dcmitype/StillImage"/>
    <dc:title/>
   </cc:Work>
  </rdf:RDF>
 </metadata>
 <g transform="translate(-.56118 -48.256)" fill="#fff" stroke-width=".23386" aria-label="My Experiences">
  <path d="m0.56125 59.481q0.070157-0.25724 0.56126-0.9822 0.4911-0.74834 1.2394-1.7305 0.74834-1.0056 1.6604-2.1749 0.91204-1.1693 1.8007-2.2684 0.88865-1.1225 1.6604-2.0813 0.79511-0.95881 1.2862-1.5435 0.4911-0.1637 0.77173-0.23386 0.28063-0.09354 0.44433-0.1637 0.14031 0.04677 0.046771 0.14031-0.28063 0.18708-0.35078 0.53787-0.093542 0.53787-0.18708 1.2862-0.093542 0.74834-0.18708 1.5902-0.070157 0.84188-0.14031 1.7305-0.070157 0.88865-0.11693 1.6838-0.046771 0.79511-0.070157 1.4733-0.023386 0.6548-0.023386 1.0524 0 0.23386 0.023386 0.3274 0.046771 0.07016 0.093542 0.07016 0.070157-0.02338 0.14031-0.09354 0.070157-0.09354 0.14031-0.18708 0.25724-0.3274 0.84188-1.029 0.58464-0.72495 1.333-1.6136 0.74834-0.91204 1.5902-1.8942 0.84188-0.9822 1.6136-1.8475 0.77172-0.88865 1.3798-1.5668 0.63141-0.70157 0.93542-0.9822 0.37417-0.18708 0.91204-0.35078t0.86527-0.37417q0.07016 0 0.11693 0.07016 0.04677 0.04677 0 0.11693-0.39756 0.1637-0.58464 0.28063-0.1637 0.11693-0.28063 0.44433-0.28063 0.88865-0.58464 2.0813-0.28063 1.1693-0.53787 2.4087-0.23386 1.2394-0.39756 2.4321-0.1637 1.1693-0.1637 2.0579 0 0.3274 0.14031 0.46771 0.1637 0.11693 0.37417 0.11693t0.46771-0.04677 0.46771-0.14031q0.04677 0 0.04677 0.07016 0.02339 0.04677-0.02339 0.09354-0.23386 0.07016-0.56126 0.1637-0.30401 0.09354-0.63141 0.18708-0.30401 0.09354-0.58464 0.1637-0.25724 0.09354-0.44433 0.14031-0.28063 0-0.46771-0.11693-0.1637-0.09354-0.21047-0.37417 0.02339-0.3274 0.1637-1.0757 0.14031-0.74834 0.35078-1.6838 0.21047-0.93542 0.44433-1.9644 0.25724-1.029 0.46771-1.8942 0.21047-0.88865 0.35078-1.4967 0.1637-0.60803 0.18708-0.72495 0.09354-0.35078 0-0.3274-0.09354 0-0.28063 0.1637-0.44433 0.39756-1.0524 1.029-0.58464 0.60803-1.2628 1.3564-0.6548 0.74834-1.3564 1.5902-0.70157 0.84188-1.3798 1.6838-0.67818 0.84188-1.2862 1.6604-0.60803 0.79511-1.0757 1.4733-0.046771 0.09354-0.11693 0.23386-0.070157 0.11693-0.11693 0.28063-0.44433 0.02339-0.67818 0.11693-0.21047 0.11693-0.44433 0.3274-0.14031 0.04677-0.1637-0.04677 0.070157-0.4911 0.14031-1.3096 0.093543-0.8185 0.1637-1.8007 0.093542-0.9822 0.1637-2.0112 0.070157-1.0524 0.14031-1.9644 0.070157-0.93542 0.11693-1.637 0.046771-0.70157 0.070157-1.0056 0-0.44433-0.37417 0-0.67818 0.77173-1.6136 1.941-0.91204 1.1693-1.8475 2.4321t-1.7773 2.4789q-0.8185 1.2161-1.3096 2.1047-0.42094 0.77173-0.51448 1.1693-0.070157 0.39756-0.046771 0.6548t-0.046771 0.21047q-0.070157-0.02339-0.14031-0.1637-0.070157-0.14031-0.11693-0.42094-0.046771-0.28063-0.1637-0.77172z"/>
  <path d="m19.317 58.943q-0.3274 0-0.51448-0.14031t-0.18708-0.42094q0-0.46771 0.56126-1.3798 0.58464-0.93542 1.4031-2.1982 0.09354-0.11693 0.14031-0.1637 0.07016-0.07016 0.14031-0.11693 0.11693-0.02339 0.30401-0.04677 0.21047-0.04677 0.25724-0.04677 0.09354 0 0.09354 0.07016-0.84188 1.4733-1.4265 2.4087-0.56126 0.91204-0.56126 1.4265 0 0.28063 0.25724 0.28063 0.11693 0 0.30401-0.07016t0.39756-0.18708q0.21047-0.11693 0.39756-0.23386 0.18708-0.14031 0.28063-0.25724 0.21047-0.21047 0.60803-0.9822 0.42094-0.79511 1.0056-1.8475 0.28063-0.51448 0.51448-0.86527 0.25724-0.35078 0.42094-0.35078 0.09354 0.04677 0.1637 0.23386 0.09354 0.18708 0.09354 0.37417 0 0.09354-0.21047 0.44433-0.21047 0.3274-0.53787 0.79511-0.3274 0.44433-0.72496 0.95881-0.37417 0.51448-0.72495 0.95881-0.84188 1.2862-1.7072 2.6426-0.84188 1.3798-1.7072 2.6426-0.86527 1.2862-1.7773 2.4087-0.91204 1.1459-1.8708 1.9878-0.9822 0.84188-2.0112 1.333-1.0524 0.4911-2.1982 0.4911-0.67818 0-1.2161-0.3274-0.53787-0.3274-0.53787-1.1459 0-0.18708 0.046771-0.39756 0.023386-0.18708 0.070157-0.30401 0.023386-0.07016 0.070157-0.09354 0.046771-0.02339 0.046771 0.07016 0 0.63141 0.46771 1.1459 0.46771 0.51448 1.6604 0.51448 0.95881 0 1.9176-0.4911 0.93542-0.46771 1.8475-1.2628 0.88865-0.79511 1.7305-1.8475 0.84188-1.0524 1.6136-2.1982 0.79511-1.1459 1.4967-2.3152 0.70157-1.1459 1.2862-2.1749 0.04677-0.09354 0-0.07016-0.04677 0.02339-0.07016 0.04677-0.25724 0.21047-0.70157 0.46771-0.44433 0.23386-0.91204 0.23386z"/>
  <path d="m39.202 57.634q0.09354-0.04677 0.09354 0.09354-0.14031 0.11693-0.28063 0.30401-0.11693 0.1637-0.21047 0.30401-0.1637 0.30401-0.6548 0.42094-0.58464 0.14031-1.2628 0.25724-0.67818 0.09354-1.3798 0.18708-0.70157 0.09354-1.3798 0.14031-0.67818 0.04677-1.2862 0.04677-0.88865 0-1.4499-0.07016-0.56126-0.04677-0.88865-0.1637-0.30401-0.14031-0.42094-0.30401-0.11693-0.18708-0.11693-0.42094 0-0.42094 0.25724-0.88865 0.09354-0.1637 0.42094-0.72496t0.67818-1.1693q0.35078-0.63141 0.63141-1.1225 0.28063-0.51448 0.28063-0.53787 0-0.07016-0.07016-0.09354t-0.3274-0.02338q-0.11693 0-0.11693-0.07016 0-0.1637 0.28063-0.21047 0.53787-0.07016 0.79511-0.56126 0.09354-0.1637 0.39756-0.72495 0.3274-0.56126 0.6548-1.1927 0.35078-0.6548 0.60803-1.1693 0.28063-0.53787 0.28063-0.63141t-0.14031-0.09354q-0.70157 0-1.4031 0.04677t-1.2394 0.18708l-0.04677-0.02338q0.04677-0.39756 0.18708-0.53787 0.72495 0.04677 1.5201 0.07016 0.8185 0.02339 1.5435 0.02339 0.25724 0 0.88865-0.02339 0.63141-0.02338 1.4031-0.04677 0.79511-0.02339 1.5902-0.04677 0.79511-0.02339 1.3564-0.02339 0.14031 0 0.14031 0.11693-0.04677 0.11693-0.18708 0.37417-0.14031 0.23386-0.25724 0.4911l-0.09354-0.02338q0-0.14031-0.07016-0.25724-0.04677-0.11693-0.11693-0.14031-0.72495-0.11693-1.5668-0.1637-0.84188-0.04677-1.6838-0.04677-0.37417 0-0.56126 0.23386-0.63141 0.84188-1.2862 1.9176-0.63141 1.0524-1.1927 2.0579-0.09354 0.21047 0.14031 0.21047 0.3274 0.02339 0.6548 0.02339t0.67818 0q1.0757 0 1.8708-0.04677 0.8185-0.07016 1.637-0.25724l0.07016 0.07016q-0.04677 0.09354-0.11693 0.23386-0.07016 0.14031-0.11693 0.25724-0.02339 0.09354-0.18708 0.09354-0.60803-0.02339-1.333-0.02339-0.70157-0.02339-1.4265-0.02339-0.53787 0-1.0524 0-0.4911 0-0.93542 0.02339-0.18708 0-0.25724 0.14031-0.39756 0.70157-0.8185 1.4733-0.39756 0.77173-0.70157 1.4967-0.23386 0.53787-0.23386 0.95881 0 1.0991 1.6604 1.0991 0.58464 0 1.4265-0.09354 0.86527-0.09354 1.7539-0.28063 0.88865-0.21047 1.6838-0.4911 0.8185-0.28063 1.2862-0.63141z"/>
  <path d="m46.031 57.376q-1.1927 1.2628-2.1047 1.7305-0.91204 0.46771-1.5902 0.46771-0.46771 0-0.67818-0.25724-0.18708-0.23386-0.18708-0.74834 0-0.23386 0.09354-0.72495 0.11693-0.4911 0.21047-0.88865-0.9822 0.58464-1.6604 1.1459-0.6548 0.56126-1.0757 1.1225t-0.60803 1.1693-0.18708 1.2862q0 1.2862 0.8185 2.1515 0.8185 0.88865 2.2684 0.88865 0.77173 0 1.5201-0.35078 0.77172-0.35078 1.3564-0.95881 0.07016-0.09354 0.1637-0.04677 0.09354 0.07016-0.02338 0.18708-0.86527 0.74834-1.7539 1.1225-0.88865 0.39756-1.9644 0.39756-0.60803 0-1.1459-0.18708-0.53787-0.1637-0.93542-0.56126-0.42094-0.37417-0.6548-0.9822-0.25724-0.60803-0.25724-1.4499 0-1.4031 1.0757-2.6893 1.0524-1.2628 3.1103-2.4555 0.07016-0.23386 0.14031-0.51448 0.07016-0.28063 0.11693-0.53787 0.07016-0.28063 0.09354-0.4911 0.04677-0.21047 0.04677-0.30401 0-0.3274-0.25724-0.3274-0.18708 0-0.37417 0.04677-0.1637 0.04677-0.35078 0.11693-0.04677-0.02339-0.04677-0.07016 0.02339-0.04677 0.04677-0.09354 0.18708-0.07016 0.44433-0.1637 0.25724-0.09354 0.51448-0.1637t0.46771-0.11693q0.23386-0.07016 0.3274-0.07016 0.25724 0 0.25724 0.21047 0 0.07016-0.04677 0.18708-0.02338 0.09354-0.11693 0.3274-0.07016 0.21047-0.21047 0.60803-0.11693 0.37417-0.3274 1.0056 1.029-0.60803 1.7305-1.0991 0.70157-0.51448 0.70157-1.0524 0-0.09354-0.02339-0.14031l0.04677-0.04677q0.11693 0.02338 0.3274 0.14031 0.21047 0.09354 0.21047 0.28063 0 0.21047-0.30401 0.46771-0.28063 0.25724-0.74834 0.53787-0.44433 0.28063-0.9822 0.56126-0.51448 0.28063-1.0056 0.56126-0.11693 0.46771-0.1637 0.95881-0.04677 0.46771-0.04677 0.67818 0 0.46771 0.18708 0.67818t0.70157 0.21047q0.14031 0 0.37417-0.04677 0.23386-0.07016 0.56126-0.25724 0.3274-0.21047 0.74834-0.56126 0.44433-0.35078 1.0056-0.93542 0.04677-0.04677 0.11693-0.02339 0.07016 0 0.04677 0.07016z"/>
  <path d="m52.421 55.529q-1.2394 1.5668-2.666 2.3386-1.4031 0.74834-2.9466 1.0991-0.53787 0.11693-0.93542 0.18708-0.39756 0.07016-0.79511 0.14031-0.67818 1.1459-1.2862 2.2684-0.60803 1.1459-1.2161 2.2684-0.88865 1.6604-1.6136 3.1337t-1.5668 2.9232q-0.1637 0.28063-0.44433 0.42094-0.28063 0.1637-0.6548 0.28063t-0.86527 0.23386-1.0757 0.3274q-0.14031 0.07016-0.1637-0.04677-0.02339-0.09354 0.11693-0.14031 0.60803-0.23386 1.029-0.46771 0.42094-0.21047 0.77173-0.51448 0.3274-0.30401 0.63141-0.72495t0.70157-1.0524q0.39756-0.6548 0.9822-1.637 0.56126-0.95881 1.2628-2.1281 0.70157-1.1693 1.4733-2.5023 0.77173-1.3096 1.5668-2.6426-0.14031-0.04677-0.14031-0.25724 0-0.14031 0.14031-0.1637 0.1637-0.02339 0.25724-0.04677l1.0757-1.7539q0.74834-1.2161 1.4967-2.5256t1.5435-2.3386q0.09354-0.09354 0.25724-0.14031 0.04677-0.02339 0.18708-0.04677 0.14031-0.02339 0.28063-0.04677 0.14031-0.02339 0.25724-0.02339 0.11693-0.02339 0.14031-0.02339 0.07016 0 0.07016 0.04677 0 0.07016-0.09354 0.1637-0.4911 0.44433-0.86527 0.86527-0.37417 0.39756-0.70157 0.79511-0.3274 0.37417-0.63141 0.77172-0.28063 0.39756-0.58464 0.86527 0.23386-0.25724 0.51448-0.53787 0.28063-0.28063 0.56126-0.51448 0.28063-0.23386 0.56126-0.37417 0.28063-0.1637 0.51448-0.1637t0.37417 0.14031q0.1637 0.14031 0.1637 0.46771 0 0.23386-0.21047 0.72496-0.18708 0.4911-0.67818 1.0991-0.46771 0.60803-1.2628 1.2628-0.79511 0.6548-1.9878 1.2161 0.63141-0.07016 1.4031-0.21047 0.79511-0.1637 1.637-0.51448 0.84188-0.37417 1.6838-0.9822 0.84188-0.63141 1.5902-1.6136 0.02338-0.04677 0.07016-0.02338 0.07016 0 0.07016 0.11693zm-3.274-0.60803q0-0.09354-0.04677-0.23386-0.02339-0.14031-0.23386-0.14031-0.11693 0-0.35078 0.14031-0.21047 0.11693-0.4911 0.35078-0.28063 0.21047-0.58464 0.53787t-0.58464 0.72496q-0.39756 0.56126-0.77173 1.2161-0.37417 0.63141-0.74834 1.3096 0.77173-0.21047 1.4499-0.70157 0.70157-0.4911 1.2161-1.0757 0.53787-0.58464 0.84188-1.1693 0.30401-0.58464 0.30401-0.95881z"/>
  <path d="m56.667 56.417q-0.39756 0.4911-0.95881 1.029-0.53787 0.51448-1.1927 0.95881-0.63141 0.42094-1.333 0.70157-0.67818 0.25724-1.3564 0.25724-1.0991 0-1.0991-0.9822 0-0.6548 0.3274-1.4031 0.35078-0.77173 0.88865-1.4031 0.53787-0.6548 1.1693-1.0757 0.6548-0.44433 1.2394-0.44433 0.3274 0 0.44433 0.11693 0.14031 0.11693 0.14031 0.30401 0 0.28063-0.18708 0.60803-0.1637 0.3274-0.51448 0.63141-0.35078 0.28063-0.88865 0.4911-0.53787 0.18708-1.2862 0.18708-0.11693 0.21047-0.25724 0.67818-0.14031 0.44433-0.14031 0.91204 0 0.95881 0.86527 0.95881 0.53787 0 1.0991-0.25724 0.58464-0.25724 1.1225-0.63141 0.53787-0.39756 0.9822-0.84188 0.46771-0.46771 0.77173-0.86527 0.04677-0.04677 0.09354-0.02339 0.07016 0.02339 0.07016 0.09354zm-2.4555-1.8241q0-0.30401-0.30401-0.30401-0.23386 0-0.4911 0.18708-0.23386 0.1637-0.46771 0.44433-0.23386 0.28063-0.44433 0.60803t-0.35078 0.63141q0.04677 0.02338 0.1637 0.04677 0.11693 0 0.18708 0 0.67818 0 1.1927-0.46771 0.51448-0.4911 0.51448-1.1459z"/>
  <path d="m65.616 50.922q0 0.23386-0.21047 0.51448-0.18708 0.25724-0.60803 0.25724-0.28063-0.04677-0.28063-0.30401 0-0.21047 0.21047-0.4911 0.21047-0.30401 0.53787-0.30401 0.18708 0 0.25724 0.11693 0.09354 0.09354 0.09354 0.21047zm0.58464 5.3085q-0.11693 0.11693-0.63141 0.63141-0.51448 0.4911-1.2394 1.0524-0.70157 0.53787-1.4967 0.9822t-1.4733 0.44433q-0.60803 0-0.60803-0.60803 0-0.42094 0.37417-1.1693 0.1637-0.3274 0.37417-0.70157t0.42094-0.74834q0.23386-0.39756 0.44433-0.74834t0.37417-0.60803q0.04677-0.07016-0.04677-0.09354-0.09354-0.04677-0.18708 0-0.79511 0.37417-1.4733 0.63141-0.6548 0.25724-1.1459 0.25724-0.37417 0-0.58464-0.09354t-0.35078-0.18708q-0.14031-0.11693-0.23386-0.21047-0.07016-0.09354-0.18708-0.09354-0.1637 0-0.63141 0.44433-0.44433 0.44433-0.9822 1.4265-0.3274 0.56126-0.67818 1.2394-0.35078 0.6548-0.60803 1.0991-0.09354 0.1637-0.25724 0.1637-0.07016 0-0.23386-0.18708-0.1637-0.21047-0.1637-0.39756 0-0.23386 0.3274-0.77172 0.35078-0.53787 0.79511-1.2394 0.39756-0.63141 0.67818-1.1693 0.30401-0.56126 0.30401-0.88865 0-0.1637-0.07016-0.28063t-0.28063-0.11693q-0.25724 0-0.56126 0.1637-0.30401 0.1637-0.60803 0.35078-0.09354-0.04677-0.09354-0.11693 0.3274-0.23386 0.70157-0.42094 0.39756-0.21047 0.79511-0.21047t0.56126 0.1637q0.1637 0.14031 0.1637 0.53787 0 0.1637-0.07016 0.44433-0.07016 0.25724-0.1637 0.44433-0.04677 0.07016-0.04677 0.09354 0.02339 0.02338 0.07016-0.02339 0.63141-0.84188 1.1693-1.2394 0.53787-0.42094 0.6548-0.42094 0.09354 0 0.14031 0.18708 0.11693 0.35078 0.44433 0.60803 0.3274 0.23386 0.72496 0.23386 0.60803 0 1.1927-0.25724 0.60803-0.28063 1.2862-0.67818 0.14031-0.09354 0.37417-0.14031 0.25724-0.07016 0.30401-0.07016 0.1637 0 0.1637 0.11693 0 0.07016-0.04677 0.1637-0.53787 0.8185-1.0991 1.7072-0.53787 0.88865-0.86527 1.6838-0.07016 0.1637-0.11693 0.37417-0.02338 0.18708-0.02338 0.30401 0 0.53787 0.51448 0.53787 0.21047 0 0.60803-0.18708 0.42094-0.18708 0.91204-0.53787 0.51448-0.35078 1.0991-0.86527 0.58464-0.51448 1.1693-1.1459 0.09354-0.09354 0.1637-0.04677 0.09354 0.04677-0.04677 0.18708z"/>
  <path d="m71.046 56.417q-0.39756 0.4911-0.95881 1.029-0.53787 0.51448-1.1927 0.95881-0.63141 0.42094-1.333 0.70157-0.67818 0.25724-1.3564 0.25724-1.0991 0-1.0991-0.9822 0-0.6548 0.3274-1.4031 0.35078-0.77173 0.88865-1.4031 0.53787-0.6548 1.1693-1.0757 0.6548-0.44433 1.2394-0.44433 0.3274 0 0.44433 0.11693 0.14031 0.11693 0.14031 0.30401 0 0.28063-0.18708 0.60803-0.1637 0.3274-0.51448 0.63141-0.35078 0.28063-0.88865 0.4911-0.53787 0.18708-1.2862 0.18708-0.11693 0.21047-0.25724 0.67818-0.14031 0.44433-0.14031 0.91204 0 0.95881 0.86527 0.95881 0.53787 0 1.0991-0.25724 0.58464-0.25724 1.1225-0.63141 0.53787-0.39756 0.9822-0.84188 0.46771-0.46771 0.77172-0.86527 0.04677-0.04677 0.09354-0.02339 0.07016 0.02339 0.07016 0.09354zm-2.4555-1.8241q0-0.30401-0.30401-0.30401-0.23386 0-0.4911 0.18708-0.23386 0.1637-0.46771 0.44433-0.23386 0.28063-0.44433 0.60803t-0.35078 0.63141q0.04677 0.02338 0.1637 0.04677 0.11693 0 0.18708 0 0.67818 0 1.1927-0.46771 0.51448-0.4911 0.51448-1.1459z"/>
  <path d="m77.282 56.184q-0.42094 0.58464-0.9822 1.1927-0.53787 0.58464-1.1693 1.0524-0.60803 0.46771-1.2628 0.77173-0.63141 0.30401-1.2394 0.30401-0.28063 0-0.51448-0.09354-0.23386-0.07016-0.23386-0.39756t0.23386-0.8185q0.23386-0.51448 0.53787-1.0757 0.3274-0.56126 0.6548-1.1459 0.35078-0.58464 0.56126-1.0757 0.04677-0.11693 0-0.18708-0.02338-0.09354-0.14031-0.02339-0.25724 0.1637-0.60803 0.44433-0.35078 0.28063-0.72495 0.60803-0.35078 0.30401-0.70157 0.63141-0.3274 0.3274-0.53787 0.58464-0.37417 0.58464-0.6548 1.0757-0.25724 0.4911-0.6548 1.0991-0.09354 0.14031-0.14031 0.14031-0.11693 0-0.21047-0.25724-0.07016-0.25724-0.07016-0.3274 0-0.21047 0.28063-0.56126 0.30401-0.37417 0.6548-0.8185 0.37417-0.74834 0.77172-1.5668 0.39756-0.84188 0.67818-1.4967 0.07016-0.11693 0.21047-0.11693t0.25724 0.11693 0.11693 0.25724q0 0.09354-0.35078 0.6548-0.3274 0.53787-0.6548 1.2628 0.44433-0.39756 0.95881-0.84188 0.53787-0.44433 1.0056-0.8185 0.4911-0.37417 0.84188-0.60803 0.37417-0.25724 0.51448-0.25724 0.09354 0 0.1637 0.11693 0.09354 0.09354 0.09354 0.18708t-0.11693 0.28063q-0.25724 0.37417-0.63141 0.95881t-0.72496 1.2161q-0.3274 0.60803-0.56126 1.1693-0.23386 0.56126-0.23386 0.88865 0 0.28063 0.11693 0.39756 0.11693 0.09354 0.37417 0.09354 0.39756 0 0.93542-0.30401 0.53787-0.30401 1.0991-0.74834 0.58464-0.46771 1.0991-1.029t0.84188-1.0757q0.04677-0.07016 0.14031-0.02339 0.09354 0.02339-0.02338 0.1637z"/>
  <path d="m82.145 56.067q-0.35078 0.44433-0.79511 0.91204-0.44433 0.44433-0.91204 0.86527-0.46771 0.39756-0.95881 0.72495t-0.93542 0.51448q-0.35078 0.14031-0.6548 0.18708-0.28063 0.07016-0.53787 0.07016-1.2862 0-1.2862-1.0757 0-0.42094 0.18708-0.88865 0.44433-1.0991 1.2394-1.941 0.8185-0.86527 1.7539-1.2628 0.28063-0.11693 0.46771-0.11693 0.86527 0 0.86527 0.67818 0 0.35078-0.1637 0.53787-0.14031 0.14031-0.46771 0.39756l-0.07016-0.02339q0.07016-0.18708 0.07016-0.39756 0-0.23386-0.18708-0.44433-0.1637-0.21047-0.53787-0.21047-0.44433 0-0.86527 0.30401-0.39756 0.28063-0.72495 0.77173-0.30401 0.46771-0.4911 1.0991-0.18708 0.60803-0.18708 1.2628 0 0.4911 0.25724 0.74834 0.28063 0.23386 0.67818 0.23386 0.6548 0 1.7539-0.74834 1.1225-0.77173 2.3853-2.3152 0.11693-0.11693 0.1637-0.04677 0.07016 0.04677-0.04677 0.1637z"/>
  <path d="m91.734 57.353q-0.74834 0.88865-1.5902 1.2862-0.8185 0.37417-1.3798 0.51448-0.8185 0.18708-1.637 0.25724t-1.5435 0.07016q-0.67818 0-0.67818-0.1637 0-0.04677 0.18708-0.21047t0.42094-0.21047q0.23386 0 0.51448 0.02339 0.28063 0.02338 0.58464 0.02338 0.21047 0 0.44433-0.07016 0.25724-0.07016 0.46771-0.25724t0.3274-0.51448q0.14031-0.3274 0.14031-0.84188 0-0.25724-0.02339-0.53787t-0.11693-0.53787q-1.3564 1.5435-2.8764 2.3619-1.5201 0.79511-2.7829 0.79511-0.18708 0-0.42094-0.02339-0.21047-0.02339-0.42094-0.11693-0.18708-0.11693-0.3274-0.30401-0.11693-0.18708-0.11693-0.51448 0-0.39756 0.3274-1.1225 0.3274-0.72495 0.88865-1.4265 0.56126-0.72495 1.2862-1.2394 0.72495-0.53787 1.5201-0.53787 0.23386 0 0.3274 0.1637 0.09354 0.14031 0.09354 0.35078 0 0.14031-0.09354 0.37417-0.07016 0.23386-0.28063 0.46771-0.21047 0.21047-0.53787 0.39756-0.3274 0.1637-0.8185 0.1637-0.46771 0-0.70157-0.25724-0.04677-0.04677-0.11693 0.02339-0.09354 0.09354-0.25724 0.35078t-0.3274 0.60803q-0.1637 0.35078-0.28063 0.74834-0.11693 0.37417-0.11693 0.77173 0 0.84188 0.77173 0.84188 0.25724 0 0.74834-0.07016 0.51448-0.09354 1.1693-0.39756 0.67818-0.3274 1.4967-0.93542t1.6838-1.637q0.11693-0.1637 0.11693-0.25724 0-0.37417 0.23386-0.72495t0.56126-0.63141q0.35078-0.28063 0.70157-0.44433 0.37417-0.1637 0.6548-0.1637 0.14031 0 0.25724 0.09354 0.14031 0.09354 0.14031 0.28063 0 0.14031-0.02339 0.21047-0.07016 0.07016-0.1637 0.1637t-0.1637 0.09354q-0.04677 0-0.14031-0.21047t-0.35078-0.21047q-0.46771 0-0.70157 0.28063t-0.23386 0.74834q0 0.3274 0.09354 0.84188t0.09354 0.9822q0 0.46771-0.3274 0.95881t-0.79511 0.70157q-0.18708 0.09354-0.1637 0.1637 0.02339 0.04677 0.4911 0.04677 0.91204 0 1.8942-0.42094 0.9822-0.42094 1.7773-1.2862 0.11693-0.11693 0.1637-0.04677 0.04677 0.04677-0.07016 0.1637zm-7.2495-2.5724q0-0.09354-0.04677-0.23386-0.02339-0.14031-0.23386-0.14031-0.14031 0-0.3274 0.11693t-0.37417 0.30401q-0.18708 0.1637-0.3274 0.35078-0.11693 0.18708-0.1637 0.3274 0 0.23386 0.37417 0.23386 0.3274 0 0.70157-0.23386 0.39756-0.25724 0.39756-0.72495z"/>
 </g>
</svg>
