<?xml version="1.0" encoding="UTF-8"?>
<svg width="210mm" height="297mm" version="1.1" viewBox="0 0 210 297" xmlns="http://www.w3.org/2000/svg" xmlns:cc="http://creativecommons.org/ns#" xmlns:dc="http://purl.org/dc/elements/1.1/" xmlns:rdf="http://www.w3.org/1999/02/22-rdf-syntax-ns#" xmlns:xlink="http://www.w3.org/1999/xlink">
 <defs>
  <linearGradient id="linearGradient881" x1="78.971" x2="77.686" y1="176.91" y2="130.79" gradientUnits="userSpaceOnUse">
   <stop stop-color="#d45500" offset="0"/>
   <stop stop-color="#d45500" stop-opacity="0" offset="1"/>
  </linearGradient>
 </defs>
 <metadata>
  <rdf:RDF>
   <cc:Work rdf:about="">
    <dc:format>image/svg+xml</dc:format>
    <dc:type rdf:resource="http://purl.org/dc/dcmitype/StillImage"/>
    <dc:title/>
   </cc:Work>
  </rdf:RDF>
 </metadata>
 <path d="m132.35 176.83-107.84 0.38974c-3.2117-4.3993 17.12-24.457 55.702-23.254 43.038 1.3429 59.324 19.895 52.142 22.864z" fill="url(#linearGradient881)" stroke="#800000" stroke-width="2.297"/>
 <path d="m26.151 229.11 107.84-0.40828c4.0695 5.2558-8.7922 29.794-55.698 30.823-41.81 0.91732-58.465-23.561-52.146-30.414z" fill="#d45500" stroke="#800000" stroke-width="2.297"/>
 <g fill="#803300" stroke="#800000" stroke-width="2.5028">
  <rect x="25.049" y="181.53" width="108.65" height="11.889" ry="5.9447"/>
  <rect x="25.049" y="197.41" width="108.65" height="11.889" ry="5.9447"/>
  <rect x="25.049" y="214.04" width="108.65" height="11.889" ry="5.9447"/>
 </g>
 <path d="m133.7 228.68c1.6281 0.23084 3.1617 1.0755 4.227 2.3281 1.0653 1.2526 1.6529 2.9019 1.6194 4.5459-0.0335 1.644-0.68768 3.268-1.8032 4.4762-1.1155 1.2082-2.6822 1.9897-4.3183 2.154-1.6483 0.16557-3.311-0.27863-4.8081-0.98761-1.4972-0.70899-2.8547-1.6758-4.2141-2.6226-1.3594-0.94675-2.7409-1.885-4.2679-2.5272s-3.2255-0.97637-4.8528-0.66616c-1.3814 0.26334-2.6436 0.9762-3.7476 1.8474-1.1039 0.87117-2.0688 1.9025-3.0566 2.9034s-2.0123 1.9828-3.2038 2.7298-2.5714 1.2518-3.9772 1.2129c-1.2842-0.0356-2.5249-0.52244-3.6112-1.2084-1.0863-0.68592-2.0346-1.5666-2.9562-2.4617-0.92154-0.89512-1.827-1.8134-2.8493-2.5915-1.0223-0.77812-2.1761-1.4176-3.4346-1.676-1.7686-0.3631-3.6275 0.0549-5.254 0.83883-1.6264 0.78388-3.0563 1.9158-4.4562 3.0561s-2.7958 2.3062-4.3795 3.1733c-1.5837 0.86704-3.3905 1.4256-5.1871 1.2473-1.5554-0.15432-3.0172-0.85189-4.2861-1.7646s-2.3671-2.0382-3.4586-3.1571c-1.0915-1.1188-2.1908-2.2434-3.4615-3.1537-1.2707-0.91023-2.7348-1.6037-4.2908-1.7521-1.2535-0.11953-2.5253 0.11979-3.6987 0.57656-1.1734 0.45676-2.2545 1.126-3.2649 1.8774-2.0209 1.5028-3.7833 3.3441-5.8876 4.7276-2.8073 1.8458-6.2609 2.8161-9.5807 2.2994-1.6599-0.25838-3.2674-0.88478-4.6343-1.8612-1.3669-0.97647-2.4878-2.3056-3.1719-3.8399-0.70862-1.5894-0.93908-3.3883-0.65402-5.1049 0.28506-1.7167 1.0846-3.3445 2.2688-4.6196z" fill="#0f0" stroke="#008000" stroke-width="2.5028"/>
</svg>
