<?xml version="1.0" encoding="UTF-8"?>
<svg width="48" height="48" version="1.1" viewBox="0 0 12.7 12.7" xmlns="http://www.w3.org/2000/svg" xmlns:cc="http://creativecommons.org/ns#" xmlns:dc="http://purl.org/dc/elements/1.1/" xmlns:rdf="http://www.w3.org/1999/02/22-rdf-syntax-ns#">
 <metadata>
  <rdf:RDF>
   <cc:Work rdf:about="">
    <dc:format>image/svg+xml</dc:format>
    <dc:type rdf:resource="http://purl.org/dc/dcmitype/StillImage"/>
    <dc:title/>
   </cc:Work>
  </rdf:RDF>
 </metadata>
 <path d="m6.4415 0.20243c-0.23112 9.02e-4 -0.46219 0.0168-0.6933 0.05442-1.0937 0.178-2.4857 0.9387-2.2975 2.0637 0.03263 0.19513 0.06485 0.39051 0.09483 0.58756 0.2921-0.06495 0.58683-0.11771 0.87666-0.16275 0.93516-0.14532 1.8508-0.19667 2.6489-0.17124 0.26603 0.0085 0.51895 0.02551 0.75522 0.05043l-0.38454 1.9044c-0.48776-0.0514-1.5525-0.04305-2.4594 0.0979-0.52697 0.08189-0.97991 0.22019-1.2927 0.34956-0.01133 0.29946-0.03914 0.61065-0.08833 0.9374-0.14798 0.9821 1.2143 2.0875 1.9964 2.0637l1.7855-0.05436c1.1055-0.03364 1.9505-0.92148 1.9963-2.0637l0.15059-3.7563 1.0704 0.39654c0.16697-1.0606-2.0886-2.114-3.2675-2.2429-0.29714-0.03247-0.59428-0.05568-0.89142-0.05442zm-5.8733 6.668-0.30112 0.43468 1.6228 1.4795-0.47845 0.66988 0.41634 0.34858 0.46505-0.65109 0.66427 0.60557c-0.57002 0.67441-1.1302 1.6233-1.4881 2.628l10.965 0.10995c-0.74032-2.5513-2.9412-4.4023-5.5422-4.4023-1.403 0-2.6898 0.53851-3.6937 1.435l-0.72834-0.73593 0.61791-0.86503-0.41634-0.34858-0.58798 0.82316z" stroke="#000" stroke-width=".40461"/>
</svg>
