<?xml version="1.0" encoding="UTF-8"?>
<svg width="38" height="38" version="1.1" viewBox="0 0 10.054 10.054" xmlns="http://www.w3.org/2000/svg" xmlns:cc="http://creativecommons.org/ns#" xmlns:dc="http://purl.org/dc/elements/1.1/" xmlns:rdf="http://www.w3.org/1999/02/22-rdf-syntax-ns#">
 <metadata>
  <rdf:RDF>
   <cc:Work rdf:about="">
    <dc:format>image/svg+xml</dc:format>
    <dc:type rdf:resource="http://purl.org/dc/dcmitype/StillImage"/>
    <dc:title/>
   </cc:Work>
  </rdf:RDF>
 </metadata>
 <g transform="matrix(1.0583 0 0 1.0646 -21.435 -110.94)" stroke="#000" stroke-width=".24946">
  <g transform="translate(.086733)" fill="none">
   <path d="m20.469 105.29-0.17347 7.2856 2.602-0.43366"/>
   <path d="m20.391 109.54 2.3418-0.43366"/>
   <path d="m20.382 106.68 2.7755-0.34693"/>
  </g>
  <path d="m29.568 104.35-6.9071 1.0025 0.20229 2.4108 6.7631-1.4288zm-3.5379 0.92712a0.38532 0.24013 4.195 0 1 0.37134 0.26526 0.38532 0.24013 4.195 0 1-0.39765 0.21437 0.38532 0.24013 4.195 0 1-0.37134-0.26525 0.38532 0.24013 4.195 0 1 0.39765-0.21438zm3.1702 1.9365-6.9071 1.0025 0.20229 2.4108 6.7631-1.4288zm-3.5379 0.92712a0.38532 0.24013 4.195 0 1 0.37134 0.26526 0.38532 0.24013 4.195 0 1-0.39764 0.21437 0.38532 0.24013 4.195 0 1-0.37135-0.26524 0.38532 0.24013 4.195 0 1 0.39765-0.21439zm3.3102 1.9458-6.9071 1.0025 0.20229 2.4108 6.7631-1.4288zm-3.5379 0.92714a0.38532 0.24013 4.195 0 1 0.37134 0.26525 0.38532 0.24013 4.195 0 1-0.39765 0.21439 0.38532 0.24013 4.195 0 1-0.37134-0.26527 0.38532 0.24013 4.195 0 1 0.39764-0.21437z" fill="#a08"/>
 </g>
</svg>
