<?xml version="1.0" encoding="UTF-8"?>
<svg width="48" height="48" version="1.1" viewBox="0 0 12.7 12.7" xmlns="http://www.w3.org/2000/svg" xmlns:cc="http://creativecommons.org/ns#" xmlns:dc="http://purl.org/dc/elements/1.1/" xmlns:rdf="http://www.w3.org/1999/02/22-rdf-syntax-ns#">
 <metadata>
  <rdf:RDF>
   <cc:Work rdf:about="">
    <dc:format>image/svg+xml</dc:format>
    <dc:type rdf:resource="http://purl.org/dc/dcmitype/StillImage"/>
    <dc:title/>
   </cc:Work>
  </rdf:RDF>
 </metadata>
 <path d="m5.6711 1.4128e-6c-1.2191-6.09e-4 -2.7377 0.19559-4.4953 0.7451-1.9038 0.5952-1.5563 5.1121 1.4866 4.8776 0.97909 1.2391 1.7513 1.6921 2.386 1.6819l0.20378 0.37966c-0.28745 0.16123-0.92834 1.4029-0.92834 1.6684v3.3474h3.4104v-1.1105l0.02475 0.01138 0.12452-1.827 0.82679-0.40253 0.7747 1.1062 1.0735-1.4303-0.29144-2.1711-1.361 0.07715s1.4284-1.1583 2.0771-1.997c0.64865-0.83868 1.717-3.0318 1.717-3.0318l-0.24044-0.78079s-1.1007 2.0399-1.7768 2.9048c-0.67612 0.8649-1.7443 1.5032-2.2386 2.2611-0.49426 0.75785-0.82864 2.0623-0.82864 2.0623-0.33568-0.3379-0.72616-0.70263-1.1915-0.84486l-0.36255-0.67537c0.36805-0.33663 0.68294-0.82242 0.97317-1.3245 2.5778-0.31573 2.8077-3.1875 1.9238-4.6863-0.21295-0.36111-1.3855-0.84-3.2873-0.84071zm1.4217 2.084c0.62786-1.4e-5 1.1368 0.44961 1.1368 1.0042 1.4e-5 0.55463-0.50896 1.0043-1.1368 1.0042-0.62783-9e-6 -1.1368-0.44962-1.1368-1.0042-1.5e-5 -0.55461 0.50894-1.0042 1.1368-1.0042zm-4.5761 0.09568c0.62783-2.4e-5 1.1368 0.44957 1.1368 1.0042 8e-6 0.55463-0.50897 1.0043-1.1368 1.0042-0.62784 0-1.1368-0.44962-1.1368-1.0042 1.6e-5 -0.5546 0.50896-1.0042 1.1368-1.0042z"/>
</svg>
