<?xml version="1.0" encoding="UTF-8"?>
<svg width="38" height="38" version="1.1" viewBox="0 0 10.054 10.054" xmlns="http://www.w3.org/2000/svg" xmlns:cc="http://creativecommons.org/ns#" xmlns:dc="http://purl.org/dc/elements/1.1/" xmlns:rdf="http://www.w3.org/1999/02/22-rdf-syntax-ns#">
 <metadata>
  <rdf:RDF>
   <cc:Work rdf:about="">
    <dc:format>image/svg+xml</dc:format>
    <dc:type rdf:resource="http://purl.org/dc/dcmitype/StillImage"/>
    <dc:title/>
   </cc:Work>
  </rdf:RDF>
 </metadata>
 <path d="m4.4897 1.1195e-6c-0.96509-4.8235e-4 -2.1674 0.15484-3.5588 0.58987-1.5071 0.4712-1.2321 4.047 1.1769 3.8614 0.77512 0.98097 1.3864 1.3396 1.8889 1.3315l0.16132 0.30056c-0.22756 0.12764-0.73494 1.1106-0.73494 1.3208v2.65h2.6999v-0.87914l0.019594 0.00901 0.098576-1.4464 0.65454-0.31867 0.61331 0.87572 0.84985-1.1323-0.23072-1.7188-1.0775 0.061078s1.1308-0.91701 1.6443-1.581c0.51352-0.66395 1.3593-2.4002 1.3593-2.4002l-0.19035-0.61812s-0.87138 1.6149-1.4066 2.2996c-0.53526 0.68471-1.3809 1.1901-1.7722 1.79-0.39129 0.59996-0.656 1.6326-0.656 1.6326-0.26575-0.26751-0.57488-0.55625-0.94328-0.66884l-0.28702-0.53467c0.29137-0.2665 0.54066-0.65108 0.77043-1.0486 2.0408-0.24995 2.2228-2.5234 1.523-3.71-0.16859-0.28588-1.0969-0.665-2.6024-0.66557zm1.1255 1.6498c0.49705-1.13e-5 0.89999 0.35594 0.89998 0.79502 1.14e-5 0.43908-0.40293 0.79503-0.89998 0.79502-0.49703-7.2e-6 -0.89996-0.35595-0.89994-0.79502-1.14e-5 -0.43907 0.40291-0.79501 0.89994-0.79502zm-3.6228 0.075743c0.49703-1.84e-5 0.89996 0.35591 0.89998 0.79498 6.3e-6 0.43908-0.40293 0.79503-0.89998 0.79501-0.49704 0-0.89996-0.35595-0.89994-0.79501 1.25e-5 -0.43906 0.40293-0.79498 0.89994-0.79498z" fill="#a08" stroke="#000" stroke-width=".26458"/>
</svg>
