<?xml version="1.0" encoding="UTF-8"?>
<svg width="54" height="40" version="1.1" viewBox="0 0 14.288 10.583" xmlns="http://www.w3.org/2000/svg" xmlns:cc="http://creativecommons.org/ns#" xmlns:dc="http://purl.org/dc/elements/1.1/" xmlns:rdf="http://www.w3.org/1999/02/22-rdf-syntax-ns#">
 <metadata>
  <rdf:RDF>
   <cc:Work rdf:about="">
    <dc:format>image/svg+xml</dc:format>
    <dc:type rdf:resource="http://purl.org/dc/dcmitype/StillImage"/>
    <dc:title/>
   </cc:Work>
  </rdf:RDF>
 </metadata>
 <g stroke-width=".26459">
  <path d="m7.1426 1.8874c3.3046 4e-7 7.0102 4.8155 7.0102 4.8155s-3.7056 3.7467-7.0102 3.7467c-3.3046 0-7.0102-3.7467-7.0102-3.7467s3.7056-4.8155 7.0102-4.8155z" fill="#a08" opacity=".996" stroke="#000" stroke-linecap="square" stroke-linejoin="round" stroke-opacity=".75294"/>
  <path d="m10.357 6.1801a3.2287 3.3725 0 0 1-3.2287 3.3725 3.2287 3.3725 0 0 1-3.2287-3.3725 3.2287 3.3725 0 0 1 3.2287-3.3725 3.2287 3.3725 0 0 1 3.2287 3.3725z" opacity=".996" stroke="#000" stroke-linecap="square" stroke-linejoin="round" stroke-opacity=".75294"/>
  <path d="m8.9058 5.235a0.98784 1.0319 0 0 1-0.98784 1.0319 0.98784 1.0319 0 0 1-0.98784-1.0319 0.98784 1.0319 0 0 1 0.98784-1.0319 0.98784 1.0319 0 0 1 0.98784 1.0319" fill="#fff" opacity=".996"/>
 </g>
 <g>
  <path d="m0.14177 3.2929s0.1228 0.92124 0.25713 1.3631c0.12123 0.39881 0.49088 1.1479 0.49088 1.1479l0.748-0.66961s-0.63721-0.48096-0.88825-0.78918c-0.25492-0.31299-0.60775-1.0522-0.60775-1.0522z"/>
  <path d="m2.0723 1.4747s0.062164 0.92759 0.16724 1.3777c0.094832 0.40622 0.41456 1.179 0.41456 1.179l0.79019-0.6168s-0.60427-0.52358-0.83455-0.84832c-0.23384-0.32976-0.53744-1.0915-0.53744-1.0915z"/>
  <path d="m4.6943-2.5926e-4s-0.12676 0.92068-0.11498 1.3833c0.010632 0.41751 0.16718 1.2412 0.16718 1.2412l0.89783-0.4362s-0.48531-0.64015-0.64494-1.0066c-0.1621-0.37213-0.30508-1.1817-0.30508-1.1817z"/>
  <path d="m14.155 3.3407s-0.1228 0.92124-0.25713 1.3631c-0.12123 0.39881-0.49088 1.1479-0.49088 1.1479l-0.748-0.66961s0.63721-0.48096 0.88825-0.78918c0.25492-0.31299 0.60775-1.0522 0.60775-1.0522z"/>
  <path d="m12.224 1.5226s-0.06216 0.92759-0.16724 1.3777c-0.09483 0.40622-0.41456 1.179-0.41456 1.179l-0.79019-0.6168s0.60427-0.52358 0.83455-0.84832c0.23384-0.32976 0.53744-1.0915 0.53744-1.0915z"/>
  <path d="m9.602 0.04757s0.12676 0.92068 0.11498 1.3833c-0.010632 0.41751-0.16718 1.2412-0.16718 1.2412l-0.89783-0.4362s0.48531-0.64015 0.64494-1.0066c0.1621-0.37213 0.30508-1.1817 0.30508-1.1817z"/>
 </g>
</svg>
