<?xml version="1.0" encoding="UTF-8"?>
<svg width="32" height="38" version="1.1" viewBox="0 0 8.4667 10.054" xmlns="http://www.w3.org/2000/svg" xmlns:cc="http://creativecommons.org/ns#" xmlns:dc="http://purl.org/dc/elements/1.1/" xmlns:rdf="http://www.w3.org/1999/02/22-rdf-syntax-ns#">
 <metadata>
  <rdf:RDF>
   <cc:Work rdf:about="">
    <dc:format>image/svg+xml</dc:format>
    <dc:type rdf:resource="http://purl.org/dc/dcmitype/StillImage"/>
    <dc:title/>
   </cc:Work>
  </rdf:RDF>
 </metadata>
 <path d="m0 1.2026c0.51155 2.8194 1.0357 5.609 1.471 8.6084 2.2854-0.27263 5.6756-0.81033 6.708-0.90329-0.42411-3.445-0.71088-6.0219-0.87473-8.9077-2.3855 0.4889-4.4919 0.80852-7.3043 1.2026zm1.0858 1.0373 0.58466-0.10148 0.16817 1.4724-0.54323 0.09429zm1.2437-0.21587 0.52951-0.09191 0.2096 1.4652-0.58438 0.10144zm2.3222-0.40308 0.58466-0.10148 0.14074 1.4771-0.51579 0.08953zm1.1888-0.20635 0.58438-0.10144 0.12702 1.4795-0.56745 0.12149zm-2.4292 0.44464 0.56015-0.07424 0.28604 1.406-0.58466 0.10148zm-1.9518 2.9922 0.58466-0.10148 0.2096 1.4652-0.52951 0.09191zm1.1888-0.20635 0.58438-0.10144 0.2096 1.4652-0.54323 0.09429zm1.1885-0.2063 0.51906-0.06665 0.27519 1.4304-0.58466 0.10148zm2.171 2.277 0.18538 1.4924-0.58466 0.10148-0.2096-1.4652zm-4.1747 0.74762 0.58466-0.10148 0.14074 1.4771-0.51579 0.08953zm1.1888-0.20635 0.58438-0.10144 0.2096 1.4652-0.52951 0.09191zm1.1885-0.2063 0.58466-0.10148 0.2096 1.4652-0.50528 0.06471z"/>
</svg>
