<?xml version="1.0" encoding="UTF-8" standalone="no"?>
<svg
   xmlns:dc="http://purl.org/dc/elements/1.1/"
   xmlns:cc="http://creativecommons.org/ns#"
   xmlns:rdf="http://www.w3.org/1999/02/22-rdf-syntax-ns#"
   xmlns:svg="http://www.w3.org/2000/svg"
   xmlns="http://www.w3.org/2000/svg"
   xmlns:sodipodi="http://sodipodi.sourceforge.net/DTD/sodipodi-0.dtd"
   xmlns:inkscape="http://www.inkscape.org/namespaces/inkscape"
   sodipodi:docname="KawalaWeb.svg"
   inkscape:version="1.0 (4035a4f, 2020-05-01)"
   id="svg8"
   version="1.1"
   viewBox="0 0 169.33333 86.783333"
   height="328"
   width="640">
  <defs
     id="defs2">
    <inkscape:path-effect
       bendpath-nodetypes="cc"
       hide_knot="false"
       vertical="false"
       scale_y_rel="false"
       prop_scale="1"
       bendpath="m 38.083698,51.128274 c 44.080897,-14.62315 87.632572,-13.898938 130.729952,0"
       lpeversion="1"
       is_visible="true"
       id="path-effect913"
       effect="bend_path" />
    <inkscape:path-effect
       effect="bend_path"
       id="path-effect1184"
       is_visible="true"
       lpeversion="1"
       bendpath="m 45.355038,59.669731 c 31.948388,-10.561348 63.870982,-8.952788 91.977842,0"
       prop_scale="1"
       scale_y_rel="false"
       vertical="false"
       hide_knot="false"
       bendpath-nodetypes="cc" />
    <inkscape:path-effect
       effect="bend_path"
       id="path-effect863"
       is_visible="true"
       lpeversion="1"
       bendpath="M 2.9683113e-6,18.781495 C 75.801736,-0.72977329 154.29352,-0.37618861 226.62,18.781495"
       prop_scale="1"
       scale_y_rel="false"
       vertical="false"
       hide_knot="false"
       bendpath-nodetypes="cc" />
  </defs>
  <sodipodi:namedview
     inkscape:window-maximized="0"
     inkscape:window-y="23"
     inkscape:window-x="0"
     inkscape:window-height="714"
     inkscape:window-width="1280"
     units="px"
     showborder="false"
     showgrid="false"
     inkscape:document-rotation="0"
     inkscape:current-layer="g1215"
     inkscape:document-units="px"
     inkscape:cy="177.66532"
     inkscape:cx="377.40022"
     inkscape:zoom="0.70710678"
     inkscape:pageshadow="2"
     inkscape:pageopacity="0.0"
     borderopacity="1.0"
     bordercolor="#666666"
     pagecolor="#ffffff"
     id="base"
     inkscape:snap-global="false" />
  <metadata
     id="metadata5">
    <rdf:RDF>
      <cc:Work
         rdf:about="">
        <dc:format>image/svg+xml</dc:format>
        <dc:type
           rdf:resource="http://purl.org/dc/dcmitype/StillImage" />
        <dc:title></dc:title>
      </cc:Work>
    </rdf:RDF>
  </metadata>
  <g
     id="layer1"
     inkscape:groupmode="layer"
     inkscape:label="レイヤー 1">
    <g
       id="g934">
      <g
         id="g966"
         transform="matrix(0.98096233,0,0,1.0496916,1.4992917e-6,21.97416)">
        <g
           id="g1215"
           transform="matrix(0.99999657,0,0,0.9993049,0,12.134957)">
          <path
             d="m 24.627467,-18.138816 c -1.976412,0.731373 -3.938872,1.488443 -5.886615,2.270517 -1.106556,-2.379882 -2.221991,-4.75656 -3.346277,-7.129986 2.020019,-0.812103 4.055503,-1.598195 6.105688,-2.357585 1.051429,2.402699 2.093841,4.8084 3.127204,7.217054 z m -2.928687,-3.735958 c -0.127304,-0.29392 -0.254734,-0.587797 -0.38229,-0.881633 -1.303569,0.489732 -2.601078,0.990378 -3.892322,1.501752 0.136845,0.290504 0.27355,0.581058 0.410117,0.871663 0.491016,-0.194463 0.98294,-0.387368 1.475763,-0.578705 0.561566,1.236422 1.120756,2.473675 1.677563,3.711755 0.315076,-0.12413 0.630532,-0.247608 0.946366,-0.37043 -0.553117,-1.236265 -1.10868,-2.471691 -1.666688,-3.706272 0.476327,-0.184177 0.953495,-0.36689 1.431491,-0.54813 z"
             style="font-style:normal;font-variant:normal;font-weight:normal;font-stretch:normal;font-size:10.4332px;line-height:1.25;font-family:'Earwig Factory';-inkscape-font-specification:'Earwig Factory, Normal';font-variant-ligatures:normal;font-variant-caps:normal;font-variant-numeric:normal;font-variant-east-asian:normal;fill:#000000;fill-opacity:1;stroke:none;stroke-width:0.261125"
             id="path876" />
          <path
             d="m 29.184483,-26.525597 c 0.880919,2.121438 1.753561,4.245374 2.617896,6.371767 -1.969775,0.695232 -3.925779,1.416024 -5.867304,2.161663 -0.936592,-2.104 -1.881574,-4.205232 -2.834918,-6.303654 2.013229,-0.7694 4.041578,-1.512897 6.084326,-2.229776 z m -0.659231,1.341553 c -0.227215,0.08114 -0.454248,0.162611 -0.6811,0.244411 -1.5e-5,-3.7e-5 0.694679,1.588998 0.694663,1.588961 -0.650175,0.237044 -1.298814,0.476821 -1.945892,0.719305 -1.5e-5,-3.5e-5 -0.702494,-1.595397 -0.702509,-1.595431 -0.383577,0.149533 -0.766574,0.30001 -1.148984,0.451425 0.08284,0.204981 0.165617,0.409978 0.248342,0.614993 0.161345,-0.06417 0.322793,-0.128167 0.484347,-0.191999 0.49368,1.119299 0.985005,2.239362 1.473971,3.360184 0.223846,-0.07292 0.447839,-0.145528 0.67198,-0.217798 -0.261442,-0.605051 -0.52357,-1.209882 -0.786384,-1.814494 0.642512,-0.237633 1.286533,-0.472588 1.932039,-0.704843 0.255914,0.603597 0.511141,1.207407 0.765683,1.811428 0.228361,-0.08514 0.456921,-0.169933 0.685677,-0.254387 -0.560538,-1.338293 -1.124484,-2.675549 -1.691833,-4.011755 z"
             style="font-style:normal;font-variant:normal;font-weight:normal;font-stretch:normal;font-size:10.4332px;line-height:1.25;font-family:'Earwig Factory';-inkscape-font-specification:'Earwig Factory, Normal';font-variant-ligatures:normal;font-variant-caps:normal;font-variant-numeric:normal;font-variant-east-asian:normal;fill:#000000;fill-opacity:1;stroke:none;stroke-width:0.261125"
             id="path878" />
          <path
             d="m 36.233475,-27.026943 c 0.233272,1.862869 0.472498,3.724795 0.717664,5.585753 -1.617218,0.186723 -3.234202,0.390701 -4.850479,0.611841 -0.296278,-1.853899 -0.58688,-3.708864 -0.871794,-5.564873 1.667414,-0.228726 3.335776,-0.439664 5.004609,-0.632721 z m -0.713851,0.899664 c -1.169228,0.142047 -2.338157,0.2929 -3.506618,0.452524 1e-6,9e-6 0.08885,0.581831 0.08886,0.58184 0.20032,-0.02278 0.400641,-0.04529 0.600962,-0.06755 0.170863,1.20648 0.344278,2.412511 0.520241,3.618088 0.983517,-0.126303 1.967215,-0.24626 2.95099,-0.359856 -0.02443,-0.198261 -0.04877,-0.396533 -0.07305,-0.594817 -0.772269,0.08736 -1.544508,0.178623 -2.316664,0.273791 -0.06699,-0.434387 -0.133674,-0.868828 -0.200061,-1.303322 0.725368,-0.09083 1.450833,-0.178242 2.176353,-0.262224 -0.0277,-0.197531 -0.05533,-0.395074 -0.0829,-0.592626 -0.720437,0.08265 -1.440824,0.168671 -2.16112,0.258056 -0.05493,-0.378299 -0.109606,-0.75664 -0.164048,-1.135024 0.749417,-0.09563 1.498969,-0.187655 2.248611,-0.276042 -0.02725,-0.197602 -0.05443,-0.395214 -0.08155,-0.592837 z"
             style="font-style:normal;font-variant:normal;font-weight:normal;font-stretch:normal;font-size:10.4332px;line-height:1.25;font-family:'Earwig Factory';-inkscape-font-specification:'Earwig Factory, Normal';font-variant-ligatures:normal;font-variant-caps:normal;font-variant-numeric:normal;font-variant-east-asian:normal;fill:#000000;fill-opacity:1;stroke:none;stroke-width:0.261125"
             id="path880" />
          <path
             d="m 47.130457,-29.70497 c 0.122461,1.869139 0.251221,3.73761 0.386265,5.605385 -1.885612,0.123516 -3.772357,0.270593 -5.659499,0.441095 -0.187762,-1.86746 -0.369308,-3.735766 -0.544621,-5.604892 1.939736,-0.171314 3.879267,-0.318555 5.817855,-0.441588 z m -0.26958,4.97949 c -0.679538,-1.317725 -1.367458,-2.632933 -2.063714,-3.945562 -0.702848,0.04882 -1.405817,0.100818 -2.108871,0.156002 1e-6,8e-6 0.05949,0.595056 0.05949,0.595065 0.376754,-0.02896 0.753478,-0.05701 1.130168,-0.08413 -0.413446,1.190074 -0.816077,2.380968 -1.207941,3.572548 0.207223,0.06009 0.414226,0.12046 0.621005,0.181107 0.135032,-0.408904 0.271333,-0.817723 0.408903,-1.226454 0.654427,-0.05547 1.308807,-0.108127 1.963108,-0.157983 0.209796,0.390334 0.418822,0.780908 0.627078,1.171719 0.190044,-0.08768 0.380301,-0.175109 0.570772,-0.262303 z m -1.480967,-1.474771 c -0.494453,0.03583 -0.988963,0.07326 -1.483518,0.112289 0.202959,-0.584632 0.408554,-1.169065 0.616792,-1.753283 0.290353,0.546551 0.579263,1.09355 0.866726,1.640994 z"
             style="font-style:normal;font-variant:normal;font-weight:normal;font-stretch:normal;font-size:10.4332px;line-height:1.25;font-family:'Earwig Factory';-inkscape-font-specification:'Earwig Factory, Normal';font-variant-ligatures:normal;font-variant-caps:normal;font-variant-numeric:normal;font-variant-east-asian:normal;fill:#000000;fill-opacity:1;stroke:none;stroke-width:0.261125"
             id="path882" />
          <path
             d="m 55.876257,-23.722981 c -2.040658,0.604528 -4.066482,1.237216 -6.076818,1.897172 -0.764017,-2.020557 -1.540121,-4.038241 -2.328251,-6.052966 2.073479,-0.680972 4.163115,-1.333925 6.268254,-1.95797 0.724542,2.035295 1.436833,4.073244 2.136815,6.113764 z m -1.70787,-0.08403 c 0.02882,-0.0087 0.284561,-0.08566 0.313374,-0.09436 0.09075,-0.02609 0.167211,-0.05015 0.22943,-0.07223 0.06326,-0.01544 0.118859,-0.03319 0.166802,-0.0533 0.04899,-0.01345 0.104603,-0.03117 0.166873,-0.05316 -0.04578,-0.129511 -0.09162,-0.25901 -0.137502,-0.388498 -0.110455,0.04211 -0.224951,0.08147 -0.343502,0.118095 -0.119653,0.03696 -0.281435,0.08603 -0.491809,0.149496 -0.0347,0.01162 -0.06635,0.01945 -0.09496,0.02345 -0.02754,0.01064 -0.05919,0.01847 -0.09495,0.02349 -0.207409,0.02911 -0.400552,-0.01139 -0.57992,-0.121638 -0.179341,-0.110229 -0.325445,-0.282847 -0.438173,-0.517977 -0.05803,-0.127524 -0.117791,-0.264983 -0.179298,-0.412373 -0.06263,-0.154028 -0.138048,-0.29599 -0.226352,-0.425868 -0.08222,-0.137558 -0.179782,-0.255861 -0.292754,-0.354865 -0.11297,-0.099 -0.249926,-0.163842 -0.410804,-0.194391 0.164777,-0.119619 0.27835,-0.258643 0.340567,-0.417303 0.06109,-0.16528 0.0767,-0.337475 0.04651,-0.516585 -0.05927,-0.351608 -0.211895,-0.594431 -0.458881,-0.728077 -0.246879,-0.133588 -0.545845,-0.174262 -0.895953,-0.121362 -0.08023,0.01212 -0.15987,0.02759 -0.238914,0.04643 -0.07904,0.01883 -0.161135,0.04157 -0.246256,0.06823 -0.315643,0.102328 -0.579647,0.188765 -0.774512,0.252871 -0.191571,0.05726 -0.351421,0.106486 -0.478528,0.147116 -0.127276,0.04069 -0.236357,0.07859 -0.32717,0.11362 -0.09206,0.02842 -0.190752,0.06137 -0.296036,0.09887 0.04959,0.124888 0.09914,0.249788 0.148629,0.3747 0.147991,-0.04777 0.296064,-0.09541 0.444217,-0.1429 0.44056,1.152701 0.877191,2.30634 1.30988,3.460904 0.134864,-0.04496 0.269799,-0.08981 0.404805,-0.134526 -0.218405,-0.585676 -0.437826,-1.171115 -0.658263,-1.756315 0.374471,-0.119793 0.749464,-0.238655 1.124974,-0.356583 0.03491,-0.01207 0.08484,-0.02301 0.149765,-0.03276 0.165944,-0.02495 0.303297,-0.0012 0.411847,0.07108 0.115773,0.07121 0.213752,0.168909 0.293971,0.293056 0.08743,0.123087 0.162563,0.261595 0.225499,0.41551 0.06294,0.15391 0.131848,0.30016 0.20669,0.438754 0.164697,0.322555 0.372184,0.554023 0.622294,0.694636 0.251269,0.147282 0.522743,0.20024 0.815362,0.159134 0.04282,-0.006 0.08154,-0.01484 0.116165,-0.02646 0.04283,-0.006 0.08513,-0.01529 0.126895,-0.0279 0,-3e-6 10e-7,-6e-6 10e-7,-9e-6 z m -3.300922,-3.761406 c 0.196537,-0.02969 0.373803,0.0016 0.531422,0.09376 0.163793,0.08445 0.264179,0.236201 0.30158,0.455051 0.0692,0.404874 -0.242067,0.714926 -0.929788,0.935531 -0.02845,0.009 -0.287747,0.09061 -0.316202,0.09955 -0.07707,0.02549 -0.146895,0.04992 -0.20948,0.07323 -0.05655,0.01557 -0.1095,0.03063 -0.158816,0.04512 -0.04212,0.01337 -0.09503,0.02843 -0.158765,0.04523 -0.160857,-0.437871 -0.322254,-0.875616 -0.484188,-1.313237 0.225449,-0.07645 0.464218,-0.157896 0.718006,-0.244751 0.252331,-0.09339 0.487877,-0.156502 0.706231,-0.189486 0,-2e-6 0,-3e-6 0,-3e-6 z"
             style="font-style:normal;font-variant:normal;font-weight:normal;font-stretch:normal;font-size:10.4332px;line-height:1.25;font-family:'Earwig Factory';-inkscape-font-specification:'Earwig Factory, Normal';font-variant-ligatures:normal;font-variant-caps:normal;font-variant-numeric:normal;font-variant-east-asian:normal;fill:#000000;fill-opacity:1;stroke:none;stroke-width:0.261125"
             id="path884" />
          <path
             d="m 63.355596,-25.339426 c -2.084168,0.381089 -4.159422,0.791723 -6.224996,1.231209 -0.622175,-2.526819 -1.25428,-5.052001 -1.896286,-7.575498 2.147236,-0.456877 4.304899,-0.883895 6.472227,-1.280363 0.559764,2.540132 1.109458,5.081698 1.649055,7.624652 z m -2.140698,-4.170294 c -0.06724,-0.3105 -0.134616,-0.620981 -0.202135,-0.931441 -1.378345,0.259214 -2.752723,0.530938 -4.122928,0.814985 0.07769,0.308744 0.155221,0.617514 0.232598,0.926311 0.5209,-0.108014 1.042404,-0.214237 1.5645,-0.318658 0.309446,1.310542 0.616234,2.6215 0.920361,3.932865 0.333739,-0.06851 0.667728,-0.13627 1.001965,-0.203273 -0.300438,-1.30898 -0.603613,-2.617548 -0.909518,-3.925698 0.504499,-0.10005 1.009555,-0.198416 1.515157,-0.295091 z"
             style="font-style:normal;font-variant:normal;font-weight:normal;font-stretch:normal;font-size:10.4332px;line-height:1.25;font-family:'Earwig Factory';-inkscape-font-specification:'Earwig Factory, Normal';font-variant-ligatures:normal;font-variant-caps:normal;font-variant-numeric:normal;font-variant-east-asian:normal;fill:#000000;fill-opacity:1;stroke:none;stroke-width:0.261125"
             id="path886" />
          <path
             d="m 73.402105,-32.355006 c 0.351449,1.838118 0.695889,3.677001 1.033298,5.516617 -1.794182,0.28062 -3.581553,0.583443 -5.361668,0.908002 -0.388601,-1.82393 -0.784109,-3.646984 -1.186503,-5.469134 1.83059,-0.34088 3.669028,-0.659533 5.514873,-0.955485 z m -0.09611,3.161142 c -0.01564,-0.26812 -0.07918,-0.537226 -0.191223,-0.807147 -0.104674,-0.270311 -0.252356,-0.511458 -0.443427,-0.72325 -0.191468,-0.218483 -0.425279,-0.390805 -0.70139,-0.516602 -0.276081,-0.125782 -0.592724,-0.178228 -0.949013,-0.156812 -0.311747,0.01874 -0.593715,0.09016 -0.845283,0.213899 -0.244169,0.123279 -0.451512,0.284984 -0.621907,0.484829 -0.170926,0.193165 -0.297742,0.420577 -0.380682,0.682086 -0.07557,0.261009 -0.101503,0.535436 -0.0784,0.823305 0.02741,0.341398 0.10797,0.655585 0.240887,0.942604 0.132392,0.280337 0.301541,0.521244 0.507176,0.722884 0.205136,0.194959 0.439049,0.344501 0.701912,0.448885 0.270138,0.103928 0.553503,0.146919 0.850844,0.129139 0.304594,-0.01821 0.576542,-0.08766 0.816455,-0.208698 0.247166,-0.121446 0.452281,-0.280456 0.615452,-0.477386 0.170024,-0.204002 0.294947,-0.43906 0.374453,-0.705327 0.0868,-0.266628 0.121739,-0.550773 0.104141,-0.852409 z m -2.286858,-1.588172 c 0.22937,-0.01384 0.439815,0.02092 0.630922,0.104088 0.198516,0.08275 0.365681,0.201162 0.501459,0.355045 0.14274,0.146779 0.253421,0.318959 0.332234,0.516439 0.08576,0.190382 0.134891,0.389482 0.147744,0.597244 0.01119,0.18096 -0.0031,0.366629 -0.04262,0.557043 -0.03996,0.183708 -0.11352,0.355797 -0.220478,0.516346 -0.09967,0.160154 -0.237233,0.295566 -0.412662,0.406452 -0.168596,0.103775 -0.376385,0.162895 -0.623742,0.177711 -0.203706,0.0122 -0.396108,-0.02308 -0.57759,-0.105934 -0.181475,-0.08285 -0.343558,-0.196993 -0.486322,-0.342543 -0.135963,-0.152709 -0.248741,-0.333762 -0.3382,-0.543213 -0.08946,-0.209448 -0.143633,-0.434683 -0.162141,-0.675732 -0.01593,-0.207582 -0.0015,-0.403706 0.04361,-0.588402 0.05245,-0.185177 0.132656,-0.348588 0.240715,-0.490182 0.108053,-0.141587 0.244452,-0.254634 0.40915,-0.338999 0.16469,-0.08436 0.350761,-0.132869 0.557932,-0.145363 -2e-6,0 -5e-6,0 -8e-6,0 z"
             style="font-style:normal;font-variant:normal;font-weight:normal;font-stretch:normal;font-size:10.4332px;line-height:1.25;font-family:'Earwig Factory';-inkscape-font-specification:'Earwig Factory, Normal';font-variant-ligatures:normal;font-variant-caps:normal;font-variant-numeric:normal;font-variant-east-asian:normal;fill:#000000;fill-opacity:1;stroke:none;stroke-width:0.261125"
             id="path888" />
          <path
             d="m 82.294203,-26.713561 c -2.027891,0.354832 -4.04435,0.738489 -6.048812,1.150166 -0.485418,-2.030932 -0.983831,-4.060233 -1.49518,-6.087814 2.071553,-0.43265 4.155947,-0.836528 6.252622,-1.210824 0.443551,2.04811 0.874032,4.09763 1.29137,6.148472 z m -1.920094,-2.421068 c -0.04912,-0.240859 -0.09841,-0.4817 -0.147863,-0.722524 -0.741173,0.13822 -1.480764,0.2802 -2.218749,0.425902 -0.08621,-0.377003 -0.172861,-0.753953 -0.25995,-1.130851 0.768134,-0.147376 1.537953,-0.290749 2.309425,-0.430076 -0.05353,-0.237355 -0.107249,-0.474688 -0.161144,-0.712002 -1.244641,0.230016 -2.48488,0.47051 -3.7206,0.72131 0.05451,0.233132 0.108864,0.466284 0.163053,0.699457 0.208935,-0.04122 0.417996,-0.08215 0.627182,-0.122775 0.313435,1.30952 0.621458,2.619712 0.924053,3.93055 0.251423,-0.05792 0.503064,-0.115395 0.754925,-0.172432 -0.155242,-0.691048 -0.311976,-1.381922 -0.4702,-2.072622 0.731748,-0.141668 1.465046,-0.27966 2.199868,-0.413937 z"
             style="font-style:normal;font-variant:normal;font-weight:normal;font-stretch:normal;font-size:10.4332px;line-height:1.25;font-family:'Earwig Factory';-inkscape-font-specification:'Earwig Factory, Normal';font-variant-ligatures:normal;font-variant-caps:normal;font-variant-numeric:normal;font-variant-east-asian:normal;fill:#000000;fill-opacity:1;stroke:none;stroke-width:0.261125"
             id="path890" />
          <path
             d="m 92.950249,-33.09188 c 0.327587,1.903981 0.643204,3.80855 0.946904,5.71363 -1.848765,0.254682 -3.689028,0.532688 -5.52001,0.83416 -0.353071,-1.900371 -0.718153,-3.80001 -1.095308,-5.698836 1.880915,-0.306873 3.770642,-0.589809 5.668414,-0.848954 z m -0.817299,3.728499 c -0.05221,0.374317 -0.202664,0.641055 -0.450464,0.800576 -0.247654,0.15287 -0.517139,0.224787 -0.809368,0.215999 -0.197256,-0.0059 -0.38194,-0.05824 -0.554438,-0.157017 -0.172497,-0.09877 -0.322281,-0.230311 -0.449425,-0.39473 -0.127144,-0.164409 -0.228128,-0.358297 -0.302828,-0.581708 -0.06737,-0.223229 -0.09779,-0.462374 -0.09083,-0.717405 0.0052,-0.187929 0.03945,-0.365086 0.103289,-0.53146 0.06384,-0.166374 0.153075,-0.308594 0.267772,-0.426606 0.122327,-0.124531 0.266257,-0.218198 0.431705,-0.280888 0.165647,-0.0694 0.356331,-0.101002 0.571763,-0.09463 0.20801,0.0062 0.384411,0.0654 0.52887,0.177492 0.151912,0.112347 0.25709,0.273693 0.31569,0.483901 0.228886,-0.07295 0.458031,-0.145549 0.687446,-0.217793 -0.111012,-0.360129 -0.304385,-0.63244 -0.580451,-0.816462 -0.276005,-0.183981 -0.589722,-0.281394 -0.940084,-0.291757 -0.320527,-0.0095 -0.609341,0.03639 -0.865778,0.137249 -0.256446,0.100859 -0.476425,0.243377 -0.65976,0.427237 -0.175726,0.177331 -0.314559,0.385881 -0.416716,0.625509 -0.09478,0.239787 -0.14503,0.493951 -0.151331,0.762453 -0.0062,0.268518 0.03135,0.551287 0.112413,0.848484 0.08107,0.297173 0.206277,0.571834 0.375318,0.824134 0.16904,0.252311 0.382407,0.462187 0.640058,0.629971 0.264969,0.16799 0.575313,0.257017 0.932027,0.267699 0.262074,0.0078 0.503582,-0.0214 0.724942,-0.08793 0.228616,-0.06629 0.426027,-0.16686 0.592369,-0.301967 0.173618,-0.134836 0.31243,-0.300989 0.41628,-0.498621 0.10415,-0.204322 0.16958,-0.436982 0.195885,-0.697982 -0.208021,-0.03487 -0.416145,-0.06947 -0.624373,-0.103759 z"
             style="font-style:normal;font-variant:normal;font-weight:normal;font-stretch:normal;font-size:10.4332px;line-height:1.25;font-family:'Earwig Factory';-inkscape-font-specification:'Earwig Factory, Normal';font-variant-ligatures:normal;font-variant-caps:normal;font-variant-numeric:normal;font-variant-east-asian:normal;fill:#000000;fill-opacity:1;stroke:none;stroke-width:0.261125"
             id="path892" />
          <path
             d="m 100.77323,-30.827119 c -0.38441,2.025336 -0.76232,4.051439 -1.133721,6.078286 -1.961355,-0.313863 -3.929872,-0.601583 -5.905033,-0.86244 0.304779,-2.032957 0.616078,-4.065316 0.933875,-6.09706 2.042388,0.266411 4.077518,0.560388 6.104879,0.881214 z m -1.242958,2.567104 c 0.0272,-0.341406 -0.0031,-0.656413 -0.09062,-0.945119 -0.08782,-0.288683 -0.223156,-0.543482 -0.406169,-0.764227 -0.182992,-0.220728 -0.410767,-0.397067 -0.683148,-0.528616 -0.272371,-0.131544 -0.578999,-0.207554 -0.919177,-0.22761 -0.332797,-0.01962 -0.64775,0.02644 -0.944028,0.137949 -0.296298,0.111517 -0.558237,0.275874 -0.785576,0.492747 -0.219584,0.210567 -0.400449,0.46704 -0.542831,0.769252 -0.135044,0.302588 -0.212256,0.634898 -0.23253,0.996902 -0.0192,0.341855 0.01412,0.662772 0.09914,0.962678 0.08543,0.293219 0.219636,0.551966 0.402379,0.776409 0.182764,0.224465 0.411038,0.404443 0.684966,0.540367 0.273948,0.135929 0.587178,0.214001 0.940457,0.234743 0.317226,0.01863 0.617376,-0.03033 0.90129,-0.14706 0.291108,-0.116276 0.546559,-0.28137 0.766506,-0.495632 0.227672,-0.220461 0.412211,-0.483921 0.553254,-0.790601 0.141574,-0.313366 0.227225,-0.650732 0.256063,-1.012182 z m -0.723768,-0.0387 c -0.01578,0.207573 -0.06883,0.422741 -0.158857,0.64565 -0.08222,0.216677 -0.199301,0.414286 -0.351037,0.592963 -0.151248,0.171988 -0.336161,0.311668 -0.554728,0.419293 -0.211353,0.108077 -0.454201,0.153932 -0.729156,0.137896 -0.231544,-0.01351 -0.434861,-0.06871 -0.610328,-0.165875 -0.175445,-0.09715 -0.323693,-0.226206 -0.444785,-0.38731 -0.113836,-0.160706 -0.197318,-0.346618 -0.250291,-0.557783 -0.05294,-0.21116 -0.07256,-0.434038 -0.05855,-0.668603 0.01568,-0.261392 0.07017,-0.500571 0.164214,-0.717536 0.09436,-0.223658 0.216574,-0.415542 0.36668,-0.575578 0.150501,-0.166728 0.324618,-0.291708 0.522205,-0.3748 0.198014,-0.08978 0.411484,-0.128032 0.639965,-0.114609 0.221111,0.013 0.424709,0.06564 0.610452,0.157777 0.186242,0.08546 0.343822,0.206372 0.472637,0.362592 0.136165,0.156699 0.236661,0.34151 0.301645,0.554344 0.07277,0.20663 0.09934,0.437138 0.07993,0.691579 z"
             style="font-style:normal;font-variant:normal;font-weight:normal;font-stretch:normal;font-size:10.4332px;line-height:1.25;font-family:'Earwig Factory';-inkscape-font-specification:'Earwig Factory, Normal';font-variant-ligatures:normal;font-variant-caps:normal;font-variant-numeric:normal;font-variant-east-asian:normal;fill:#000000;fill-opacity:1;stroke:none;stroke-width:0.261125"
             id="path894" />
          <path
             d="m 106.57913,-24.736025 c -1.84729,-0.404201 -3.70304,-0.785705 -5.56688,-1.143861 0.48861,-2.198595 0.9872,-4.395856 1.49577,-6.591741 1.92718,0.367211 3.84567,0.758339 5.75511,1.172735 -0.57112,2.186068 -1.13247,4.373706 -1.684,6.562867 z m -0.54609,-1.128295 c 0.37334,-1.512331 0.75127,-3.023962 1.13381,-4.534878 -0.23346,-0.0473 -0.46706,-0.09425 -0.70077,-0.140847 -0.28564,1.132925 -0.56865,2.266258 -0.84901,3.399988 -0.49386,-1.299423 -0.99988,-2.597323 -1.51814,-3.893562 -0.40624,-0.0829 -0.81287,-0.164725 -1.2199,-0.245481 -0.0508,0.218189 -0.10132,0.436393 -0.15187,0.65461 0.14991,0.02916 0.29976,0.05847 0.44957,0.08792 -0.30505,1.298692 -0.60661,2.597876 -0.90469,3.897542 0.23616,0.04965 0.47215,0.09966 0.70801,0.150052 0.26267,-1.15048 0.52796,-2.300595 0.79588,-3.450338 0.51538,1.302144 1.01846,2.605943 1.50932,3.911257 0.24942,0.05416 0.49868,0.108748 0.74779,0.16374 z"
             style="font-style:normal;font-variant:normal;font-weight:normal;font-stretch:normal;font-size:10.4332px;line-height:1.25;font-family:'Earwig Factory';-inkscape-font-specification:'Earwig Factory, Normal';font-variant-ligatures:normal;font-variant-caps:normal;font-variant-numeric:normal;font-variant-east-asian:normal;fill:#000000;fill-opacity:1;stroke:none;stroke-width:0.261125"
             id="path896" />
          <path
             d="m 113.64289,-23.122092 c -1.86633,-0.337917 -3.73816,-0.653001 -5.615,-0.944692 0.34056,-1.906108 0.68404,-3.811846 1.03044,-5.717208 1.9354,0.300383 3.8652,0.6248 5.7889,0.972687 -0.40442,1.895953 -0.80586,3.792359 -1.20434,5.689213 z m -0.74335,-2.691119 c 0.0481,-0.22426 0.0961,-0.448513 0.14433,-0.672757 -0.68386,-0.115269 -1.36841,-0.227518 -2.05363,-0.336725 0.0706,-0.350288 0.14139,-0.70056 0.21226,-1.050815 0.70612,0.118661 1.41147,0.240535 2.11599,0.365591 0.0479,-0.220888 0.0958,-0.441768 0.14374,-0.662641 -1.14556,-0.202654 -2.29325,-0.396924 -3.44297,-0.582689 -0.0437,0.2182 -0.0874,0.436406 -0.13109,0.654619 0.19572,0.03252 0.39137,0.0653 0.58696,0.09831 -0.23219,1.224589 -0.46319,2.44934 -0.69298,3.674252 0.23944,0.0312 0.47883,0.06277 0.71816,0.09472 0.12171,-0.645397 0.24374,-1.290752 0.36609,-1.936064 0.67845,0.115081 1.35617,0.233157 2.03314,0.354202 z"
             style="font-style:normal;font-variant:normal;font-weight:normal;font-stretch:normal;font-size:10.4332px;line-height:1.25;font-family:'Earwig Factory';-inkscape-font-specification:'Earwig Factory, Normal';font-variant-ligatures:normal;font-variant-caps:normal;font-variant-numeric:normal;font-variant-east-asian:normal;fill:#000000;fill-opacity:1;stroke:none;stroke-width:0.261125"
             id="path898" />
          <path
             d="m 114.95872,-24.367878 1.08627,-6.783868 c 2.36303,0.327012 4.72028,0.688886 7.07072,1.084773 l -1.31533,6.75033 c -2.27506,-0.383708 -4.55595,-0.734403 -6.84166,-1.051235 z m 7.21219,-4.874206 c -0.20551,-0.03396 -0.41106,-0.06764 -0.61666,-0.101077 l -0.66812,3.552336 c -0.0422,0.224908 -0.12119,0.426835 -0.23631,0.605838 -0.1139,0.172395 -0.25561,0.316461 -0.42506,0.432329 -0.16821,0.109256 -0.35997,0.187594 -0.57535,0.235193 -0.21419,0.04098 -0.43945,0.04299 -0.67614,0.0062 -0.23668,-0.03684 -0.44477,-0.109727 -0.62459,-0.218875 -0.17981,-0.109145 -0.32591,-0.243519 -0.43837,-0.403313 -0.11243,-0.159785 -0.1918,-0.341701 -0.23799,-0.54581 -0.0389,-0.203026 -0.0392,-0.417284 -4.7e-4,-0.642717 l 0.60702,-3.530809 c -0.40853,-0.06072 -0.81726,-0.120392 -1.22615,-0.179021 l -0.0925,0.557431 c 0.20573,0.02951 0.41142,0.05927 0.61707,0.0893 l -0.50256,2.97506 c -0.0482,0.285228 -0.0435,0.564603 0.0136,0.838082 0.0654,0.267913 0.17447,0.51515 0.32702,0.741843 0.1537,0.220077 0.35315,0.406383 0.59844,0.559279 0.25246,0.153986 0.53931,0.255842 0.86119,0.305957 0.30043,0.04678 0.59182,0.04167 0.87481,-0.01542 0.29135,-0.06256 0.55463,-0.170021 0.79005,-0.322652 0.24257,-0.151458 0.44534,-0.343232 0.60811,-0.5756 0.1712,-0.237782 0.28622,-0.508666 0.34434,-0.812812 z"
             style="font-style:normal;font-variant:normal;font-weight:normal;font-stretch:normal;font-size:10.4332px;line-height:1.25;font-family:'Earwig Factory';-inkscape-font-specification:'Earwig Factory, Normal';font-variant-ligatures:normal;font-variant-caps:normal;font-variant-numeric:normal;font-variant-east-asian:normal;fill:#000000;fill-opacity:1;stroke:none;stroke-width:0.261125"
             id="path900" />
          <path
             d="m 127.67578,-22.095792 c -1.62196,-0.655162 -3.25573,-1.293733 -4.9011,-1.915113 0.87839,-1.99686 1.77067,-3.99001 2.67673,-5.979346 1.69369,0.636641 3.37528,1.290865 5.04459,1.962072 -0.95362,1.973428 -1.89373,3.950926 -2.82022,5.932387 z m 1.01099,-4.548724 c 0.11413,-0.238584 0.22847,-0.477107 0.343,-0.715571 -1.0756,-0.432853 -2.15635,-0.858607 -3.24222,-1.277095 -0.1086,0.247222 -0.21701,0.494497 -0.32521,0.741826 0.41013,0.15589 0.81954,0.312822 1.22824,0.470785 -0.47323,1.0252 -0.94283,2.051435 -1.40876,3.078688 0.2649,0.103068 0.52948,0.206579 0.79377,0.310527 0.46986,-1.025694 0.94337,-2.050358 1.42052,-3.073978 0.39756,0.153967 0.79445,0.308908 1.19066,0.464818 z"
             style="font-style:normal;font-variant:normal;font-weight:normal;font-stretch:normal;font-size:10.4332px;line-height:1.25;font-family:'Earwig Factory';-inkscape-font-specification:'Earwig Factory, Normal';font-variant-ligatures:normal;font-variant-caps:normal;font-variant-numeric:normal;font-variant-east-asian:normal;fill:#000000;fill-opacity:1;stroke:none;stroke-width:0.261125"
             id="path902" />
          <path
             d="m 132.2918,-19.651602 c -1.0057,-0.293351 -2.014,-0.580346 -3.02481,-0.860887 0.70771,-2.187207 1.42142,-4.372997 2.14111,-6.557351 1.03819,0.295403 2.07358,0.597387 3.10607,0.905848 -0.74658,2.169331 -1.48738,4.340134 -2.22237,6.51239 z m -0.85048,-1.277826 c 0.52399,-1.552938 1.0511,-3.105105 1.58133,-4.656493 -0.37422,-0.114201 -0.74883,-0.227545 -1.12384,-0.340027 -0.0575,0.160122 -0.11499,0.320256 -0.17243,0.4804 0.20667,0.05329 0.41325,0.106862 0.61974,0.160686 -0.47386,1.401732 -0.94518,2.804089 -1.41397,4.207065 0.1698,0.04928 0.33952,0.09873 0.50917,0.148369 z"
             style="font-style:normal;font-variant:normal;font-weight:normal;font-stretch:normal;font-size:10.4332px;line-height:1.25;font-family:'Earwig Factory';-inkscape-font-specification:'Earwig Factory, Normal';font-variant-ligatures:normal;font-variant-caps:normal;font-variant-numeric:normal;font-variant-east-asian:normal;fill:#000000;fill-opacity:1;stroke:none;stroke-width:0.261125"
             id="path904" />
          <path
             d="m 141.03591,-24.36609 c -0.76944,1.930036 -1.53332,3.86172 -2.29162,5.795031 -1.8748,-0.638352 -3.76043,-1.254966 -5.65641,-1.849126 0.70047,-1.948193 1.40654,-3.894923 2.1182,-5.840169 1.95441,0.608501 3.89785,1.240161 5.82983,1.894264 z m -1.71992,2.319656 c 0.0929,-0.331559 0.12447,-0.646721 0.0939,-0.945681 -0.0305,-0.29894 -0.11428,-0.572466 -0.25149,-0.820475 -0.13721,-0.247992 -0.32702,-0.459805 -0.56933,-0.635057 -0.2423,-0.175248 -0.52904,-0.301622 -0.85965,-0.378649 -0.32342,-0.07535 -0.64209,-0.08313 -0.95524,-0.02341 -0.31317,0.05972 -0.60293,0.177173 -0.86901,0.352112 -0.25723,0.170044 -0.48545,0.391774 -0.68482,0.665007 -0.19223,0.274848 -0.33346,0.588738 -0.42446,0.941518 -0.086,0.333148 -0.11614,0.654595 -0.0913,0.964175 0.0266,0.303058 0.10814,0.580507 0.24428,0.832434 0.13616,0.251948 0.32595,0.467839 0.56944,0.648071 0.2435,0.180239 0.53712,0.310155 0.88143,0.390321 0.30918,0.07199 0.6147,0.07449 0.91734,0.0074 0.30966,-0.06536 0.59357,-0.184885 0.85196,-0.358829 0.2672,-0.17875 0.50014,-0.407134 0.69853,-0.6854 0.20021,-0.28476 0.34991,-0.602552 0.44832,-0.953584 z m -0.70528,-0.159559 c -0.0559,0.201696 -0.14986,0.404613 -0.28177,0.608932 -0.12304,0.199492 -0.27678,0.374336 -0.46102,0.524687 -0.18245,0.143849 -0.39184,0.250201 -0.62822,0.319277 -0.22933,0.07074 -0.47766,0.07487 -0.74555,0.0126 -0.22559,-0.05245 -0.41523,-0.141203 -0.56918,-0.266547 -0.15393,-0.125336 -0.27479,-0.277478 -0.36259,-0.456564 -0.0808,-0.177467 -0.12659,-0.374593 -0.13743,-0.591396 -0.0108,-0.216799 0.0135,-0.439467 0.0732,-0.667934 0.0665,-0.254593 0.16716,-0.480723 0.30214,-0.678322 0.13669,-0.204123 0.29447,-0.372284 0.47347,-0.504399 0.18069,-0.138632 0.37641,-0.232213 0.58702,-0.280634 0.21233,-0.05494 0.42976,-0.05658 0.6519,-0.0048 0.21498,0.05004 0.40502,0.136137 0.56982,0.258091 0.16659,0.115448 0.29812,0.26097 0.39451,0.436401 0.1036,0.17714 0.16656,0.375957 0.18919,0.596395 0.0316,0.215647 0.013,0.447033 -0.0555,0.694272 z"
             style="font-style:normal;font-variant:normal;font-weight:normal;font-stretch:normal;font-size:10.4332px;line-height:1.25;font-family:'Earwig Factory';-inkscape-font-specification:'Earwig Factory, Normal';font-variant-ligatures:normal;font-variant-caps:normal;font-variant-numeric:normal;font-variant-east-asian:normal;fill:#000000;fill-opacity:1;stroke:none;stroke-width:0.261125"
             id="path906" />
          <path
             d="m 145.59031,-17.405483 c -1.7464,-0.701871 -3.50438,-1.385205 -5.27353,-2.04935 0.90541,-2.083339 1.81935,-4.163998 2.74181,-6.241934 1.82324,0.681335 3.63469,1.382443 5.43396,2.102673 -0.97575,2.059968 -1.94317,4.122853 -2.90224,6.188611 z m -0.32472,-1.201252 c 0.65541,-1.428203 1.31473,-2.855073 1.97798,-4.280596 -0.22073,-0.08487 -0.44162,-0.169438 -0.66269,-0.253722 -0.49654,1.068971 -0.99084,2.138711 -1.48289,3.20921 -0.23949,-1.361279 -0.48992,-2.72311 -0.75141,-4.085354 -0.38367,-0.148784 -0.76788,-0.296689 -1.15262,-0.443711 -0.0918,0.206452 -0.18354,0.412932 -0.27518,0.619439 0.14187,0.0536 0.28366,0.107303 0.42538,0.161134 -0.54938,1.228379 -1.09577,2.457722 -1.63919,3.688019 0.22327,0.08819 0.44635,0.17669 0.66924,0.265488 0.47941,-1.08942 0.96109,-2.178117 1.445,-3.266084 0.25774,1.367693 0.50438,2.734955 0.74003,4.101649 0.23566,0.0945 0.47111,0.18935 0.70635,0.284528 z"
             style="font-style:normal;font-variant:normal;font-weight:normal;font-stretch:normal;font-size:10.4332px;line-height:1.25;font-family:'Earwig Factory';-inkscape-font-specification:'Earwig Factory, Normal';font-variant-ligatures:normal;font-variant-caps:normal;font-variant-numeric:normal;font-variant-east-asian:normal;fill:#000000;fill-opacity:1;stroke:none;stroke-width:0.261125"
             id="path908" />
          <path
             d="m 152.45826,-21.243678 c -0.34963,1.827681 -0.70541,3.653871 -1.06732,5.478539 -1.43165,-0.245049 -2.86414,-0.477688 -4.29712,-0.697797 0.32712,-1.830673 0.64801,-3.662751 0.96265,-5.496201 1.46812,0.225655 2.9355,0.464181 4.40179,0.715459 z m -1.2776,1.430525 c 0.007,-0.293734 -0.0557,-0.519768 -0.18802,-0.677997 -0.12306,-0.162555 -0.30815,-0.279697 -0.55499,-0.350984 -0.43727,-0.126281 -0.82014,-0.137167 -1.14723,-0.03348 -0.31802,0.0993 -0.52588,0.300407 -0.6245,0.602469 -0.0734,0.224936 -0.0809,0.412391 -0.0226,0.562259 0.0582,0.149892 0.15493,0.2756 0.28998,0.377268 0.0903,0.07486 0.19517,0.139924 0.31475,0.195232 4e-5,2.1e-5 0.35849,0.166156 0.35853,0.166177 0.12158,0.04907 0.23854,0.100416 0.35087,0.154036 0.11449,0.04721 0.21414,0.104289 0.29894,0.171173 0.1036,0.07939 0.17966,0.171984 0.2282,0.277687 0.0508,0.09931 0.0511,0.222621 0.001,0.36997 -0.0369,0.108905 -0.0973,0.196849 -0.18101,0.263876 -0.0838,0.06703 -0.18054,0.116212 -0.29025,0.147593 -0.10975,0.03137 -0.229,0.04595 -0.35783,0.04378 -0.12187,-1.56e-4 -0.23835,-0.01626 -0.3495,-0.04831 -0.2223,-0.06412 -0.39877,-0.174467 -0.52967,-0.331348 -0.12394,-0.154871 -0.17666,-0.34197 -0.15788,-0.561389 -0.12916,-0.0016 -0.25829,-0.0032 -0.3874,-0.0045 -0.002,0.308387 0.0693,0.567294 0.21317,0.776827 0.15083,0.211556 0.37861,0.360958 0.6838,0.448898 0.19423,0.05596 0.38305,0.08249 0.56669,0.07956 0.1858,-0.0094 0.35627,-0.04055 0.51147,-0.09372 0.15737,-0.05957 0.29147,-0.13994 0.40226,-0.241211 0.1199,-0.105636 0.20501,-0.232029 0.25512,-0.379295 0.0872,-0.256128 0.0853,-0.464458 -0.006,-0.62509 -0.0821,-0.164947 -0.21242,-0.301693 -0.39088,-0.410002 -0.10111,-0.06464 -0.20892,-0.120619 -0.32355,-0.167913 -0.11248,-0.05371 -0.22609,-0.104139 -0.34084,-0.151285 -0.11473,-0.04715 -0.22495,-0.0964 -0.33066,-0.147808 -0.10571,-0.0514 -0.19534,-0.105138 -0.26886,-0.161265 -0.0903,-0.07497 -0.15549,-0.156734 -0.19543,-0.245357 -0.0378,-0.09503 -0.0357,-0.206806 0.006,-0.335282 0.0506,-0.154159 0.1835,-0.27801 0.39907,-0.371103 0.21765,-0.0995 0.50295,-0.09883 0.85505,0.0028 0.36629,0.105697 0.54373,0.347589 0.53235,0.724297 0.12633,-0.0089 0.25271,-0.01772 0.37911,-0.02643 z"
             style="font-style:normal;font-variant:normal;font-weight:normal;font-stretch:normal;font-size:10.4332px;line-height:1.25;font-family:'Earwig Factory';-inkscape-font-specification:'Earwig Factory, Normal';font-variant-ligatures:normal;font-variant-caps:normal;font-variant-numeric:normal;font-variant-east-asian:normal;fill:#000000;fill-opacity:1;stroke:none;stroke-width:0.261125"
             id="path910" />
          <path
             d="m 14.15122,-4.667578 c 2.192673,-0.2952549 4.38427,-0.5535939 6.574402,-0.7751914 -2.125117,9.2869443 -4.122494,18.6015624 -5.99186,27.9347094 3.233866,5.235255 6.396749,10.550233 9.487569,15.94024 -2.457212,0.831068 -4.909202,1.711657 -7.355274,2.641605 -1.635734,-4.857507 -3.297301,-9.696183 -4.984594,-14.515342 -1.426004,0.768087 -2.8484846,1.552556 -4.2673101,2.353324 0.7057685,4.608584 1.4099563,9.217914 2.112563,13.827989 C 8.554267,43.846848 7.3873548,44.965236 6.2260629,46.09477 4.23321,32.63327 2.2370633,19.173338 0.23762345,5.71498 2.6828018,4.465036 5.1363896,3.2618836 7.597797,2.1057787 8.1543884,6.4899853 8.7114074,10.874012 9.268854,15.257859 10.459838,14.903714 11.651492,14.560818 12.843746,14.229167 13.245195,7.933233 13.681012,1.6339955 14.15122,-4.667578 Z"
             style="font-style:normal;font-variant:normal;font-weight:normal;font-stretch:normal;font-size:39.4156px;line-height:1.25;font-family:'Spongeboy Me Bob';-inkscape-font-specification:'Spongeboy Me Bob, Normal';font-variant-ligatures:normal;font-variant-caps:normal;font-variant-numeric:normal;font-variant-east-asian:normal;fill:#d400aa;fill-opacity:0.75266;stroke:#000000;stroke-width:0.522251;stroke-miterlimit:4;stroke-dasharray:none"
             id="path844" />
          <path
             d="m 23.681839,10.925955 c 0.0024,-0.358386 -6.06e-4,-0.768533 -0.0091,-1.230451 -0.0085,-0.460982 -0.0181,-1.0316428 -0.02864,-1.706397 -0.01055,-0.6756902 -0.0338,-1.4721868 -0.06962,-2.3895261 -0.01964,-0.9591054 -0.04912,-2.109779 -0.08813,-3.4554287 0.1905,-0.3499333 0.476817,-0.6782336 0.859004,-0.9834235 0.398105,-0.34592165 0.946574,-0.7590067 1.643349,-1.23308193 0.814047,-0.54770695 1.5803,-0.96736457 2.29681,-1.26050977 0.736675,-0.2993954 1.487442,-0.5631194 2.251948,-0.7907005 1.50822,-0.4489731 2.77306,-0.6475087 3.786417,-0.6095144 1.010951,0.00332 1.830912,0.1918043 2.457795,0.5577837 0.126764,0.2859214 0.27075,0.6562223 0.4317,1.1108417 0.158069,0.41990159 0.327442,0.97897057 0.507874,1.67727097 0.200435,0.69296003 0.423395,1.54023633 0.668264,2.54146583 0.244854,1.0011677 0.516067,2.2091694 0.81273,3.6233276 1.362791,6.3470471 2.187468,11.5726031 2.504889,15.5967871 0.139893,1.773524 0.17386,3.202505 0.103131,4.284024 -0.05433,1.042359 -0.253276,1.855281 -0.596068,2.439639 -0.155543,0.253257 -0.612603,0.61729 -1.371838,1.101687 -0.761758,0.486008 -1.846785,1.058473 -3.270135,1.745102 -0.224862,-0.665603 -0.450293,-1.330826 -0.676294,-1.995669 -1.564771,0.659065 -3.126019,1.337911 -4.683567,2.036421 -2.186267,0.68018 -3.515983,0.62788 -3.997722,-0.212305 -0.210887,-0.322688 -0.498951,-1.656186 -0.865415,-3.999156 -0.181431,-1.154368 -0.340383,-2.280334 -0.47655,-3.37838 -0.136169,-1.098037 -0.259145,-2.164609 -0.368798,-3.200068 -0.164502,-1.553394 -0.157783,-2.627375 0.02139,-3.223602 0.05605,-0.2331 0.180323,-0.489058 0.373048,-0.767325 0.192684,-0.278212 0.475288,-0.568204 0.847822,-0.868441 0.372419,-0.300143 0.845165,-0.614242 1.417587,-0.939384 0.572148,-0.324987 1.265319,-0.668286 2.077309,-1.024665 0.75358,-0.338472 1.462682,-0.622946 2.126123,-0.85471 0.661372,-0.266875 1.24168,-0.505866 1.746979,-0.721762 0.504803,-0.251965 0.902376,-0.451038 1.214414,-0.610212 0.324981,-0.197508 0.52916,-0.395938 0.612461,-0.596716 C 35.883642,10.929325 35.81264,10.344755 35.727829,9.834967 35.662757,9.3198041 35.555142,8.7807454 35.404673,8.2181805 35.257228,7.690297 35.117102,7.2493334 34.984422,6.8952541 34.851787,6.5412976 34.683001,6.1259869 34.478041,5.6503163 34.422952,5.4880098 34.31282,5.3944707 34.147631,5.3700147 33.97936,5.3108677 33.805718,5.3067851 33.626833,5.3578114 33.289121,5.4541428 32.834178,5.7270496 32.264406,6.1785252 31.712025,6.5889879 31.010304,7.1714705 30.16697,7.926623 c 0.148992,0.809841 0.297705,1.619807 0.446138,2.429897 -0.144478,0.186354 -0.34304,0.335827 -0.595783,0.448977 -0.236004,0.07237 -0.492802,0.151577 -0.768096,0.23714 -0.511978,0.159128 -1.04678,0.291813 -1.60473,0.398665 -0.561541,0.07229 -1.200298,0.08256 -1.917771,0.03316 -0.639148,-0.07537 -1.126167,-0.161554 -1.463604,-0.262618 -0.340747,-0.135481 -0.534392,-0.230136 -0.581288,-0.285887 1e-6,-1e-6 2e-6,-3e-6 3e-6,-4e-6 z m 9.120952,14.26695 c 0.112876,0.358094 0.363214,0.603571 0.750746,0.738304 0.384514,0.100133 0.921679,0.04902 1.613496,-0.149335 1.498616,-0.42968 2.376235,-1.092556 2.632599,-2.014969 0.281244,-0.857148 0.308589,-2.642218 0.07907,-5.350481 -0.05005,-0.590494 -0.107759,-1.036673 -0.173282,-1.338806 -0.06551,-0.302089 -0.13494,-0.532042 -0.208274,-0.689883 -0.09285,-0.15256 -0.213566,-0.279797 -0.362175,-0.381542 -0.151463,-0.136359 -0.459646,-0.230503 -0.924067,-0.279785 -0.363812,-0.04159 -0.72173,-0.01269 -1.073391,0.0865 -0.335207,0.05902 -0.678627,0.139038 -1.030143,0.240178 -0.566297,0.162939 -1.004264,0.416031 -1.313209,0.756342 -0.292675,0.29992 -0.508727,0.560327 -0.648191,0.780011 -0.07783,0.236972 -0.119717,0.641285 -0.125617,1.212985 -0.0092,0.537205 0.03391,1.307596 0.129084,2.312153 0.200097,2.112131 0.41843,3.472499 0.653353,4.078316 0,2e-6 0,4e-6 0,5e-6 z"
             style="font-style:normal;font-variant:normal;font-weight:normal;font-stretch:normal;font-size:39.4156px;line-height:1.25;font-family:'Spongeboy Me Bob';-inkscape-font-specification:'Spongeboy Me Bob, Normal';font-variant-ligatures:normal;font-variant-caps:normal;font-variant-numeric:normal;font-variant-east-asian:normal;fill:#d400aa;fill-opacity:0.75266;stroke:#000000;stroke-width:0.522251;stroke-miterlimit:4;stroke-dasharray:none"
             id="path846" />
          <path
             d="m 40.919124,1.6634017 c 1.830009,-0.84013306 3.66557,-1.65437607 5.506445,-2.44250156 0.262733,0.86328646 0.548367,2.37590536 0.855914,4.53916176 0.30752,2.1630523 0.655649,4.9544227 1.042922,8.3744161 0.316611,3.257287 0.59803,5.710868 0.844385,7.356133 0.246467,1.646023 0.430313,2.509535 0.553155,2.590139 0.108077,0.154402 0.259818,0.229058 0.455329,0.224312 0.21486,-0.0087 0.457503,-0.04045 0.728128,-0.0949 0.562456,-0.236893 1.125425,-0.471259 1.688901,-0.703088 0.129754,-2.710507 0.20404,-5.266584 0.219868,-7.672025 0.01376,-2.440237 -0.03972,-4.7072514 -0.163324,-6.8037445 -0.232824,-3.9488867 -0.645434,-6.34139621 -1.244878,-7.18230978 1.383334,-0.44125025 2.768753,-0.86772632 4.156153,-1.27935862 1.357254,-0.4065215 2.716431,-0.7988373 4.077435,-1.1768817 -0.06763,1.1555078 -0.134585,2.31103178 -0.200869,3.46657016 -0.01187,0.60099784 -0.01445,1.18302994 -0.0078,1.74601024 0.005,0.5279842 0.01913,1.0369936 0.04242,1.5269662 0.02829,0.5951083 0.07235,1.3108284 0.132091,2.147944 0.07793,0.799103 0.178841,1.6649367 0.302497,2.5982169 0.12365,0.9332369 0.268324,1.8984421 0.433739,2.8960981 0.183435,0.959668 0.385062,1.899202 0.604631,2.8187 0.906212,-0.220187 1.81311,-0.433873 2.720661,-0.641042 0.180052,-0.411098 0.36405,-1.20962 0.553591,-2.395949 0.209258,-1.189084 0.421158,-2.8348518 0.638311,-4.9391591 0.235793,-2.1432965 0.382132,-3.8293482 0.435779,-5.0697002 0.07226,-1.27623005 0.09182,-2.36920217 0.05759,-3.2806339 -0.04248,-0.5933554 -0.08502,-1.1867012 -0.127619,-1.7800372 l -0.0019,-0.052558 c 0.289106,-0.1225271 0.57836,-0.2444089 0.867762,-0.3656456 1.230967,-0.1414239 2.340207,0.2883064 3.320132,1.2825458 l 0.02928,0.9468338 c 0.04126,1.33429997 -0.11273,3.2100187 -0.45508,5.6384042 -0.342859,2.4319831 -0.85182,5.3768647 -1.519194,8.8693472 -1.227104,6.651982 -2.293849,11.385836 -3.257687,14.229634 -0.324185,0.07778 -0.705771,0.181633 -1.143161,0.31224 -0.439351,0.0957 -0.975984,0.153425 -1.611485,0.175903 -0.288871,0.0071 -0.538792,0.02663 -0.749417,0.0583 -0.212328,-0.0033 -0.414278,0.0098 -0.605786,0.03922 -0.174036,-0.0086 -0.357715,-0.01531 -0.550943,-0.02031 -0.193137,-0.0049 -0.424918,-0.0037 -0.694704,0.0043 -0.167333,-0.255225 -0.346751,-1.125694 -0.539142,-2.610998 -0.10069,-0.830261 -0.188378,-1.591674 -0.262988,-2.285062 -0.05709,-0.731452 -0.136918,-1.335549 -0.239712,-1.812582 -0.216689,-0.03499 -0.421038,-0.01875 -0.612882,0.04864 -0.172465,0.06412 -0.363374,0.149237 -0.572575,0.255463 -0.08178,0.296193 -0.163739,0.769 -0.245497,1.418244 -0.06428,0.61044 -0.139236,1.383189 -0.224035,2.315014 -0.0906,0.827491 -0.189263,1.497717 -0.296318,2.010737 -0.108998,0.478078 -0.214875,0.832176 -0.317944,1.062367 -0.495641,0.123649 -1.01792,0.289379 -1.566316,0.497803 -0.52987,0.205077 -1.22323,0.389618 -2.083558,0.560186 -0.491066,0.09735 -0.903552,0.181118 -1.203437,0.242542 -0.288854,0.02378 -0.548687,0.04236 -0.780272,0.05538 -0.231458,0.01296 -0.462929,0.02647 -0.694412,0.04035 -0.231788,0.0139 -0.52113,0.02291 -0.869915,0.02795 C 47.217398,28.010334 45.727461,23.021596 43.796308,14.474888 42.850585,10.198112 41.891514,5.9275485 40.919124,1.6634017 Z"
             style="font-style:normal;font-variant:normal;font-weight:normal;font-stretch:normal;font-size:39.4156px;line-height:1.25;font-family:'Spongeboy Me Bob';-inkscape-font-specification:'Spongeboy Me Bob, Normal';font-variant-ligatures:normal;font-variant-caps:normal;font-variant-numeric:normal;font-variant-east-asian:normal;fill:#d400aa;fill-opacity:0.75266;stroke:#000000;stroke-width:0.522251;stroke-miterlimit:4;stroke-dasharray:none"
             id="path848" />
          <path
             d="m 70.179854,0.86450136 c 0.02957,-0.35450399 0.05764,-0.76160859 0.08424,-1.22131675 0.02655,-0.45877179 0.06026,-1.02650621 0.100948,-1.69757751 0.04075,-0.6720071 0.07809,-1.4667576 0.11212,-2.3842606 0.05324,-0.9549936 0.111228,-2.1021436 0.174571,-3.4447655 0.215292,-0.3008468 0.523889,-0.5571905 0.925732,-0.7675462 0.420699,-0.2468756 0.995498,-0.524089 1.72186,-0.8259731 0.848149,-0.3465941 1.639229,-0.5777897 2.371421,-0.6956037 0.752645,-0.119149 1.516543,-0.19953 2.291303,-0.24076 1.528445,-0.08134 2.796724,0.02691 3.79784,0.308863 1.001371,0.2470282 1.799434,0.6314811 2.392697,1.145173 0.103867,0.3137724 0.218385,0.7152751 0.343299,1.2043813 0.124705,0.454025 0.250024,1.0486159 0.375719,1.7837745 0.145917,0.7346921 0.302418,1.627662 0.468926,2.6783898 0.166485,1.0506621 0.343359,2.3125413 0.529767,3.78472886 0.86762,6.61493124 1.287159,11.98947254 1.295718,16.05157354 0.0037,1.790278 -0.07118,3.213808 -0.223343,4.267966 -0.13297,1.019329 -0.391681,1.776596 -0.77544,2.272865 -0.173236,0.213407 -0.653391,0.463932 -1.441883,0.761038 -0.791132,0.298102 -1.908844,0.604098 -3.370372,0.942061 -0.172164,-0.71341 -0.344934,-1.426584 -0.518305,-2.139522 -1.59954,0.27663 -3.197199,0.573941 -4.792807,0.891813 -2.216927,0.14868 -3.530198,-0.222337 -3.943747,-1.170487 -0.184456,-0.370365 -0.368776,-1.760797 -0.554283,-4.170284 -0.09227,-1.187352 -0.164417,-2.341165 -0.216113,-3.461841 -0.0517,-1.120671 -0.09271,-2.206995 -0.122879,-3.25929 -0.04526,-1.5786567 0.04278,-2.6411433 0.265485,-3.188807 0.0732,-0.217482 0.215719,-0.4412031 0.427749,-0.6705689 0.211986,-0.2293196 0.513954,-0.4486878 0.90579,-0.6565682 C 73.19758,6.7541414 73.689749,6.5566359 74.281492,6.3721885 74.87295,6.1878291 75.585697,6.014455 76.417113,5.8567622 77.189312,5.7027536 77.913338,5.5915803 78.588122,5.5216676 79.263528,5.4164733 79.856484,5.3194295 80.373409,5.2272217 80.892614,5.0991521 81.30142,4.9977267 81.622643,4.9151868 81.959544,4.7978079 82.176848,4.6504344 82.274602,4.4716181 82.267802,3.804487 82.241892,3.2083463 82.196602,2.6829503 82.171249,2.1569866 82.105585,1.5971036 81.999228,1.0036115 81.893246,0.4452007 81.78791,-0.02535171 81.683353,-0.40804883 81.578834,-0.7906122 81.443155,-1.2426634 81.276213,-1.7632193 c -0.04223,-0.1740456 -0.144237,-0.2932364 -0.306042,-0.3572589 -0.162209,-0.099129 -0.333923,-0.1450063 -0.515012,-0.1375553 -0.341867,0.014066 -0.813283,0.1748086 -1.412007,0.4848165 -0.578381,0.2735671 -1.317775,0.6816093 -2.210552,1.22667938 0.08619,0.83813753 0.172083,1.67632852 0.25769,2.51457242 C 76.933025,2.1178712 76.724977,2.218157 76.466006,2.269424 76.226708,2.284325 75.966297,2.300988 75.687072,2.319508 75.167785,2.353949 74.627882,2.35672 74.066997,2.328338 73.505156,2.2648583 72.871511,2.1213599 72.164393,1.8998314 71.53684,1.6714001 71.060832,1.4688773 70.734147,1.2875766 70.406794,1.071381 70.222096,0.93102009 70.179854,0.86450136 Z m 7.95425,16.32804764 c 0.08464,0.38189 0.31397,0.685259 0.687566,0.911911 0.373235,0.191659 0.909116,0.27018 1.609313,0.240076 1.516751,-0.06522 2.436113,-0.510607 2.759999,-1.362592 0.343569,-0.78134 0.506169,-2.542938 0.484476,-5.280779 -0.0045,-0.596948 -0.02798,-1.052794 -0.06998,-1.367844 C 83.563543,10.018319 83.512236,9.7738266 83.451575,9.5998214 83.371202,9.4263469 83.261304,9.2712418 83.121838,9.1346734 82.982176,8.9631325 82.684086,8.7956595 82.227844,8.635019 81.870661,8.5062172 81.513957,8.4486398 81.158117,8.4622787 c -0.336503,-0.02223 -0.682735,-0.025635 -1.038591,-0.010048 -0.573288,0.025104 -1.026312,0.1704271 -1.358149,0.4332083 -0.312658,0.2266848 -0.546427,0.4326757 -0.701233,0.6167512 -0.09506,0.216031 -0.16722,0.6064858 -0.216427,1.1714228 -0.04983,0.529977 -0.06557,1.303532 -0.04749,2.321596 0.03802,2.140523 0.151123,3.540698 0.337861,4.197336 -7e-6,2e-6 -1.5e-5,5e-6 -2.2e-5,6e-6 z"
             style="font-style:normal;font-variant:normal;font-weight:normal;font-stretch:normal;font-size:39.4156px;line-height:1.25;font-family:'Spongeboy Me Bob';-inkscape-font-specification:'Spongeboy Me Bob, Normal';font-variant-ligatures:normal;font-variant-caps:normal;font-variant-numeric:normal;font-variant-east-asian:normal;fill:#d400aa;fill-opacity:0.75266;stroke:#000000;stroke-width:0.522251;stroke-miterlimit:4;stroke-dasharray:none"
             id="path850" />
          <path
             d="m 91.017041,-18.73079 c 0.909093,0.01229 1.798466,-0.197695 2.67097,-0.630618 0.893543,-0.432542 1.903465,-1.083631 3.036164,-1.949055 -0.262026,0.972541 -0.501878,2.735683 -0.718215,5.291101 -0.215992,2.52127 -0.407673,5.79495 -0.575298,9.8284436 -0.1677,4.034931 -0.310444,8.7826466 -0.429913,14.2591982 -0.09932,5.4439122 -0.184833,11.5420672 -0.258553,18.3212562 -1.850118,-0.06313 -3.700739,-0.09822 -5.551585,-0.105357 -0.27684,-15.380121 -0.577226,-30.7598405 -0.901135,-46.138985 0.351948,0.351034 0.755,0.632714 1.209389,0.846028 0.47513,0.178324 0.980976,0.270741 1.518176,0.277988 z"
             style="font-style:normal;font-variant:normal;font-weight:normal;font-stretch:normal;font-size:39.4156px;line-height:1.25;font-family:'Spongeboy Me Bob';-inkscape-font-specification:'Spongeboy Me Bob, Normal';font-variant-ligatures:normal;font-variant-caps:normal;font-variant-numeric:normal;font-variant-east-asian:normal;fill:#d400aa;fill-opacity:0.75266;stroke:#000000;stroke-width:0.522251;stroke-miterlimit:4;stroke-dasharray:none"
             id="path852" />
          <path
             d="m 96.950571,0.19171719 c 0.04501,-0.34917907 0.0908,-0.75098561 0.137471,-1.20541869 0.04651,-0.4535147 0.105007,-1.0146052 0.174976,-1.6777215 0.07006,-0.6640361 0.142099,-1.450868 0.216224,-2.3604896 0.09491,-0.9443209 0.202978,-2.0794512 0.324959,-3.4086587 0.227791,-0.2698636 0.546637,-0.4823935 0.956425,-0.6361001 0.430184,-0.1874732 1.015323,-0.383726 1.752624,-0.5833954 0.86067,-0.2272636 1.6594,-0.3474032 2.39446,-0.3627112 0.75549,-0.01379 1.5205,0.01268 2.29463,0.079749 1.52719,0.1323053 2.78671,0.4174574 3.77221,0.8384362 0.98732,0.3862135 1.76588,0.8810414 2.33458,1.4760015 0.0897,0.3272144 0.18613,0.7433441 0.28906,1.248225 0.10426,0.4698934 0.20294,1.079947 0.29578,1.8301273 0.11301,0.7525464 0.22958,1.6643022 0.34913,2.734658 0.11956,1.07028823 0.24013,2.35251512 0.36088,3.8456383 0.57251,6.7130727 0.75287,12.1278087 0.5819,16.1766327 -0.0754,1.784489 -0.2129,3.192512 -0.41106,4.221618 -0.17747,0.9971 -0.4686,1.715444 -0.87273,2.156209 -0.18196,0.188398 -0.67122,0.370765 -1.46963,0.556486 -0.80113,0.18635 -1.92772,0.33491 -3.39829,0.467595 -0.14006,-0.734956 -0.28074,-1.469762 -0.42203,-2.204413 -1.60538,0.05234 -3.20982,0.125868 -4.81314,0.220478 -2.2148,-0.160509 -3.50676,-0.712645 -3.877183,-1.715007 -0.16752,-0.394723 -0.290221,-1.805996 -0.36947,-4.232991 -0.03991,-1.196102 -0.06121,-2.355981 -0.06368,-3.479999 -0.0023,-1.124011 0.0045,-2.212307 0.0204,-3.265186 0.02408,-1.5795358 0.158347,-2.6261318 0.40426,-3.1409557 0.08247,-0.2065585 0.234302,-0.409695 0.455642,-0.6087858 0.221295,-0.1990502 0.531822,-0.3756667 0.931401,-0.5283141 0.399452,-0.152599 0.89856,-0.2809332 1.49632,-0.3823516 0.59748,-0.1013702 1.31535,-0.1748711 2.15076,-0.2161288 0.77625,-0.04584 1.50262,-0.055645 2.1781,-0.031152 0.67767,-0.010582 1.27276,-0.024489 1.79194,-0.044174 0.52311,-0.055108 0.93476,-0.099028 1.25858,-0.13639 0.34087,-0.069878 0.5639,-0.1863484 0.66919,-0.3508697 0.0227,-0.6657389 0.0231,-1.2634168 7.5e-4,-1.7933057 -0.002,-0.527663 -0.0428,-1.0947687 -0.1227,-1.7010522 -0.081,-0.5712727 -0.16525,-1.05490402 -0.25259,-1.45087843 -0.0873,-0.39583437 -0.20262,-0.86527388 -0.34606,-1.40734043 -0.0344,-0.17934024 -0.13084,-0.31237274 -0.28929,-0.39878544 -0.1573,-0.1214529 -0.32641,-0.1911663 -0.50722,-0.2090439 -0.34135,-0.03375 -0.81826,0.060573 -1.42861,0.285905 -0.58846,0.1918569 -1.34334,0.49528551 -2.25704,0.91395376 0.0491,0.84724369 0.0978,1.69449994 0.14631,2.54176834 -0.16332,0.1273828 -0.37506,0.1983094 -0.63539,0.2132946 -0.23913,-0.018511 -0.49938,-0.038205 -0.77846,-0.058662 C 101.85594,2.3701676 101.31777,2.2977176 100.76004,2.191334 100.20292,2.0498389 99.577749,1.8186345 98.882743,1.4994878 98.267322,1.1845268 97.801809,0.91651486 97.484163,0.69040794 97.16738,0.42943638 96.989456,0.26388593 96.950271,0.19172079 c -1.5e-5,-1.33e-6 -2.3e-5,-2.8e-6 -3.8e-5,-4.27e-6 z M 104.16002,17.570695 c 0.0675,0.392365 0.28265,0.72665 0.64486,1.004625 0.36339,0.243053 0.89374,0.396055 1.59257,0.46381 1.51378,0.146771 2.44919,-0.168475 2.8094,-0.972177 0.37668,-0.730539 0.61635,-2.463228 0.71548,-5.194478 0.0216,-0.595514 0.0185,-1.053015 -0.009,-1.372827 -0.0279,-0.319763 -0.0682,-0.570574 -0.12098,-0.752456 -0.0725,-0.184109 -0.1751,-0.354044 -0.30803,-0.509641 -0.13158,-0.190471 -0.42121,-0.3990553 -0.86872,-0.6229176 -0.35021,-0.1782866 -0.70309,-0.2855155 -1.05825,-0.3216436 -0.3343,-0.069168 -0.67913,-0.1209224 -1.03439,-0.1550869 -0.57233,-0.055038 -1.03011,0.026552 -1.37231,0.242114 -0.3215,0.1822671 -0.56348,0.3549341 -0.72583,0.5167752 -0.10422,0.2020199 -0.19328,0.5810509 -0.26713,1.1371609 -0.073,0.521185 -0.12264,1.289851 -0.14937,2.306897 -0.0562,2.138371 -0.005,3.549459 0.15209,4.229841 -1e-5,1e-6 -1e-5,3e-6 -2e-5,4e-6 z"
             style="font-style:normal;font-variant:normal;font-weight:normal;font-stretch:normal;font-size:39.4156px;line-height:1.25;font-family:'Spongeboy Me Bob';-inkscape-font-specification:'Spongeboy Me Bob, Normal';font-variant-ligatures:normal;font-variant-caps:normal;font-variant-numeric:normal;font-variant-east-asian:normal;fill:#d400aa;fill-opacity:0.75266;stroke:#000000;stroke-width:0.522251;stroke-miterlimit:4;stroke-dasharray:none"
             id="path854" />
          <path
             d="m 118.57357,19.939035 c 0.16713,0.168365 0.30679,0.297176 0.4193,0.386383 0.11435,0.05426 0.28752,0.100747 0.51979,0.140011 0.29029,0.04908 0.52428,0.05408 0.70228,0.01434 0.17796,-0.03974 0.35108,-0.168216 0.51953,-0.385472 0.0948,-0.65327 0.19092,-1.500545 0.28816,-2.541276 0.11862,-1.072365 0.20645,-2.114729 0.263,-3.127526 0.0351,-0.628598 0.079,-1.414347 0.13161,-2.357247 0.0527,-0.942744 0.10134,-1.992455 0.14589,-3.1482359 0.0465,-1.190725 0.0869,-2.4534577 0.121,-3.7874342 0.0361,-1.3689576 0.0638,-2.7748408 0.0831,-4.21725485 0.0135,-1.33770402 0.0149,-2.46590225 0.005,-3.38455935 -0.008,-0.9535845 -0.0248,-1.7674839 -0.0491,-2.4416747 -0.002,-0.7056401 -0.0193,-1.3256196 -0.0515,-1.8601446 -0.0119,-0.5309711 -0.0341,-1.0637097 -0.0667,-1.5981993 3.18184,0.5131245 6.36,1.1058367 9.53329,1.7785117 -0.22719,2.3542275 -0.42447,4.7326844 -0.59297,7.13537238 -0.14602,2.37217482 -0.26984,4.71423322 -0.37211,7.02545022 -0.0998,2.2763189 -0.17569,4.4878186 -0.22815,6.6333636 -0.0305,2.11504 -0.0315,4.078395 -0.004,5.888564 0.31171,0.318309 0.56256,0.5175 0.75345,0.597013 0.2102,0.08396 0.39253,0.144163 0.5472,0.180392 0.27063,0.06339 0.51158,-0.0035 0.72323,-0.200851 0.81639,-10.479582 1.63438,-20.95877061 2.45397,-31.437564 2.02544,0.271386 4.05071,0.575195 6.0755,0.911607 -0.33989,2.2608939 -0.71624,4.7468631 -1.13677,7.5187768 -0.41616,2.72773139 -0.85699,5.5360466 -1.32189,8.4288396 -0.44498,2.8974183 -0.90538,5.7735586 -1.38032,8.6284086 -0.47536,2.857375 -0.92045,5.520396 -1.33881,8.003366 -0.41805,2.481136 -0.80078,4.686195 -1.15005,6.618439 -0.34659,1.898111 -0.62583,3.349043 -0.84099,4.359355 -1.68685,-0.477349 -3.37632,-0.930305 -5.06817,-1.358909 -0.2892,-1.089607 -0.51396,-2.305609 -0.67371,-3.648114 -0.15975,-1.342508 -0.29745,-2.89211 -0.41361,-4.648455 -0.0865,-1.326082 -0.1466,-2.62849 -0.17955,-3.907557 -0.0306,-1.313847 -0.0512,-2.643217 -0.0616,-3.987972 -0.62549,-0.254115 -1.25163,-0.505008 -1.87837,-0.752674 -0.19775,1.585072 -0.4142,3.166508 -0.64889,4.74454 -0.23256,1.543297 -0.50591,3.131248 -0.81909,4.765288 -0.27907,1.393317 -0.55149,2.541357 -0.81774,3.443694 -0.26626,0.902353 -0.55077,1.642975 -0.85365,2.22185 -0.15618,0.04161 -0.29225,0.06948 -0.40832,0.08351 -0.0971,0.0175 -0.21309,0.0316 -0.34815,0.0424 -0.11604,0.01424 -0.25955,0.006 -0.43062,-0.02461 -0.17307,0.0043 -0.38306,-0.01535 -0.63021,-0.05867 -1.61651,-0.283285 -2.73059,-0.774695 -3.34872,-1.506336 -0.26211,-1.696432 -0.48159,-3.738487 -0.65904,-6.124839 -0.1758,-2.421353 -0.32935,-4.980412 -0.46037,-7.6757 -0.0524,-0.994136 -0.10692,-2.163306 -0.16413,-3.510104 -0.0359,-1.377837 -0.0776,-2.8640792 -0.1254,-4.4547105 -0.0478,-1.5913021 -0.0926,-3.2700967 -0.13452,-5.0364035 -0.001,-0.1059505 -0.065,-5.2371567 -0.0663,-5.343107 -0.0239,-2.2220778 -0.0281,-4.2276864 -0.0115,-6.0215611 0.0166,-1.7930769 0.035,-3.6386929 0.0551,-5.5368539 1.34104,0.02588 2.68253,0.06569 4.02439,0.119499 -0.0839,2.101112 -0.19466,4.320295 -0.33159,6.6596595 -0.11666,2.3429781 -0.2132,4.8983173 -0.29101,7.67026446 -0.0761,2.73772034 -0.12674,5.75695664 -0.15434,9.06630664 -0.008,3.3136134 0.043,6.9814584 0.14718,11.0188234 0,0 -1e-5,-1e-6 -1e-5,-1e-6 z"
             style="font-style:normal;font-variant:normal;font-weight:normal;font-stretch:normal;font-size:39.4156px;line-height:1.25;font-family:'Spongeboy Me Bob';-inkscape-font-specification:'Spongeboy Me Bob, Normal';font-variant-ligatures:normal;font-variant-caps:normal;font-variant-numeric:normal;font-variant-east-asian:normal;fill:#d400aa;fill-opacity:0.75266;stroke:#000000;stroke-width:0.522251;stroke-miterlimit:4;stroke-dasharray:none"
             id="path856" />
          <path
             d="m 141.81848,-0.43509793 c 0.79927,-1.58596527 2.95728,-1.89528947 6.45206,-0.78658817 1.44545,0.45856314 2.68003,0.97451071 3.69905,1.53329361 1.02325,0.52460905 1.81821,1.14184109 2.38359,1.84162109 0.59053,0.8522376 0.92831,3.3889777 1.00057,7.6055783 -0.007,3.2892031 -0.11427,5.8001621 -0.31207,7.5158481 l -0.0357,0.309382 c 0.019,0.186098 -0.25577,0.371476 -0.8232,0.560203 -0.56504,0.154746 -1.42973,0.23608 -2.60226,0.258731 -1.33389,0.03763 -2.62165,-0.03741 -3.8663,-0.228051 -1.24463,-0.190631 -2.44933,-0.462282 -3.61619,-0.817451 -0.63511,-0.264513 -1.27079,-0.525639 -1.90702,-0.783379 l -0.0864,0.934839 c -0.0544,0.58868 -0.0666,1.260624 -0.0371,2.016229 0.0327,0.720875 0.13914,1.28581 0.31919,1.694943 1.3761,0.568555 2.74947,1.153099 4.11999,1.753625 0.44108,0.15946 0.88195,0.320576 1.3226,0.483347 0.0577,0.01897 0.0973,-0.07503 0.1188,-0.282062 0.005,-0.337318 0.0103,-0.674645 0.0153,-1.011982 -0.007,-0.323252 -0.0128,-0.646513 -0.0193,-0.969783 0.80976,0.08735 1.59422,0.136233 2.35397,0.145654 0.77887,0.01602 1.65191,0.194062 2.61633,0.5382 0.3857,0.137629 0.65198,0.2697 0.79824,0.394153 0.16958,0.09714 0.32749,0.208226 0.47371,0.333171 -1.06618,3.515749 -2.11991,7.039537 -3.16118,10.571163 -0.57274,-0.148737 -1.14565,-0.294613 -1.7187,-0.437631 -1.38831,-0.404873 -2.77794,-0.792977 -4.16881,-1.164364 -1.93593,-0.61616 -3.43262,-1.255971 -4.50359,-1.959931 -1.06865,-0.702431 -1.71757,-1.539926 -1.94417,-2.526588 -0.39531,-1.279019 -0.3642,-4.613737 0.10078,-9.986173 0.16209,-1.872842 0.34884,-3.685307 0.56113,-5.437827 0.23493,-1.7817379 0.4872,-3.5229496 0.75737,-5.2237845 0.5952,-3.5647109 1.16581,-5.85478234 1.70934,-6.87438255 0,-1.34e-6 0,-2.54e-6 0,-3.88e-6 z m 1.03631,6.85543013 c -0.10797,0.2885846 -0.192,0.7617725 -0.25238,1.4198136 -0.0413,0.4501943 -0.0842,0.9177045 -0.12868,1.4025305 -0.0413,0.4501951 -0.0628,0.9061267 -0.0649,1.3677737 -0.0141,0.813618 0.0578,1.456968 0.21547,1.929933 0.17408,0.513442 0.74074,0.910209 1.6997,1.201444 0.50893,0.154559 0.97991,0.282007 1.41366,0.381603 0.43367,0.09957 0.86257,0.145828 1.28708,0.138661 0.46713,-0.02923 0.84006,-0.12242 1.1192,-0.281423 0.30219,-0.187137 0.50685,-0.405325 0.61377,-0.65575 0.0837,-0.22227 0.14531,-0.52321 0.18463,-0.902785 0.0625,-0.40761 0.12418,-0.904835 0.18496,-1.491421 0.10729,-1.0353488 0.0723,-1.7781768 -0.10584,-2.2290292 -0.11871,-0.4308532 -0.54321,-0.873847 -1.27428,-1.3210319 -0.50393,-0.2677382 -0.94306,-0.4770215 -1.31589,-0.6287894 -0.34981,-0.180232 -0.70324,-0.3248899 -1.06009,-0.4339158 -1.46706,-0.4482169 -2.30692,-0.405411 -2.51644,0.1023723 1e-5,4.7e-6 2e-5,9.5e-6 3e-5,1.42e-5 z"
             style="font-style:normal;font-variant:normal;font-weight:normal;font-stretch:normal;font-size:39.4156px;line-height:1.25;font-family:'Spongeboy Me Bob';-inkscape-font-specification:'Spongeboy Me Bob, Normal';font-variant-ligatures:normal;font-variant-caps:normal;font-variant-numeric:normal;font-variant-east-asian:normal;fill:#d400aa;fill-opacity:0.75266;stroke:#000000;stroke-width:0.522251;stroke-miterlimit:4;stroke-dasharray:none"
             id="path858" />
          <path
             d="m 157.88757,-2.9641732 c 0.68518,0.2523736 1.35376,0.4667763 2.00622,0.6427156 0.67265,0.1835955 1.37923,0.3479807 2.12045,0.494444 1.40677,0.2976143 2.44983,0.5092942 3.18458,0.6277356 0.72997,0.082753 1.10636,0.041969 1.12876,-0.1289297 -0.0623,0.1536414 -0.26313,0.95455773 -0.59961,2.4001273 -0.33579,1.4426391 -0.80908,3.6148953 -1.41169,6.4971534 -0.80667,3.810869 -1.60723,7.62493 -2.40169,11.442138 1.23108,0.103927 2.4631,0.220788 3.69597,0.35068 0.75781,0.143826 1.61997,0.317873 2.57633,0.52452 0.9772,0.215534 1.83425,0.494441 2.56886,0.830951 0.79294,0.363225 1.30599,0.948175 1.53838,1.746579 0.12339,0.420924 0.1584,1.018306 0.10527,1.792303 -0.0339,0.783219 -0.13932,1.768174 -0.31584,2.956375 -0.19668,1.324016 -0.44913,2.747997 -0.75662,4.274025 -0.30759,1.526435 -0.66774,3.207543 -1.08019,5.047949 -0.40222,1.77155 -0.78129,3.191964 -1.13696,4.259694 -0.35582,1.068161 -0.64933,1.85667 -0.88194,2.365769 -0.40837,0.899505 -1.10015,1.448909 -2.07458,1.660059 -0.95699,0.21975 -2.22563,-0.02276 -3.81836,-0.705427 -1.27778,-0.547681 -2.64457,-1.298441 -4.10767,-2.246674 -1.46801,-0.914353 -3.05638,-2.035084 -4.7774,-3.355455 0.25397,-0.837222 0.52663,-2.242488 0.81717,-4.213179 0.29441,-2.003869 0.63256,-4.62416 1.01217,-7.851187 0.31513,-2.678887 0.61931,-5.434385 0.91149,-8.265251 0.29216,-2.830619 0.56888,-5.794041 0.82836,-8.8876909 0.53452,-5.9689466 0.82253,-10.05305462 0.86856,-12.2594155 -10e-6,-2.9e-6 -2e-5,-5.8e-6 -2e-5,-8.8e-6 z m 1.8865,27.1057562 c -0.42299,0.155531 -0.79831,0.744576 -1.12543,1.766251 -0.3274,1.022555 -0.6395,2.749052 -0.93921,5.184 -0.0886,0.719842 -0.15509,1.340762 -0.1995,1.862292 -0.0255,0.528975 -0.0164,1.017655 0.027,1.465936 0.0165,0.186169 0.0823,0.373678 0.19714,0.5627 0.13792,0.162164 0.28941,0.293934 0.45452,0.395423 0.4055,0.232854 0.80551,0.429165 1.20031,0.588831 0.39918,0.125453 0.81916,0.242764 1.26017,0.352462 0.45977,0.117437 0.91229,0.215782 1.35773,0.294854 0.46882,0.05282 0.85522,0.0549 1.15993,0.0045 0.38885,-0.08649 0.69789,-0.386529 0.92723,-0.901501 0.23387,-0.548833 0.50056,-1.625941 0.79992,-3.22995 0.17765,-1.006821 0.31301,-1.995731 0.40549,-2.967273 0.11149,-0.96336 0.13058,-1.767737 0.0566,-2.413908 -0.0196,-0.15294 -0.0943,-0.347822 -0.22422,-0.5843 -0.12526,-0.270543 -0.35109,-0.548253 -0.67762,-0.831662 -0.41775,-0.358354 -0.80704,-0.630642 -1.16707,-0.817359 -0.33637,-0.212871 -0.69672,-0.39863 -1.08086,-0.556817 -0.55694,-0.229348 -1.02944,-0.331073 -1.41623,-0.307219 -0.38252,-0.01042 -0.72126,0.03413 -1.01596,0.132683 1e-5,2e-6 2e-5,4e-6 2e-5,6e-6 z"
             style="font-style:normal;font-variant:normal;font-weight:normal;font-stretch:normal;font-size:39.4156px;line-height:1.25;font-family:'Spongeboy Me Bob';-inkscape-font-specification:'Spongeboy Me Bob, Normal';font-variant-ligatures:normal;font-variant-caps:normal;font-variant-numeric:normal;font-variant-east-asian:normal;fill:#d400aa;fill-opacity:0.75266;stroke:#000000;stroke-width:0.522251;stroke-miterlimit:4;stroke-dasharray:none"
             id="path860" />
        </g>
      </g>
    </g>
  </g>
</svg>
