<?xml version="1.0" encoding="UTF-8"?>
<svg width="246" height="48" version="1.1" viewBox="0 0 65.087 12.7" xmlns="http://www.w3.org/2000/svg" xmlns:cc="http://creativecommons.org/ns#" xmlns:dc="http://purl.org/dc/elements/1.1/" xmlns:rdf="http://www.w3.org/1999/02/22-rdf-syntax-ns#">
 <metadata>
  <rdf:RDF>
   <cc:Work rdf:about="">
    <dc:format>image/svg+xml</dc:format>
    <dc:type rdf:resource="http://purl.org/dc/dcmitype/StillImage"/>
    <dc:title/>
   </cc:Work>
  </rdf:RDF>
 </metadata>
 <g transform="matrix(.092529 0 0 .092529 -26.927 .43733)" fill="#a08" stroke="#000" stroke-width="6.35">
  <path d="m330.06 19.656-34.52 103.56 21.802-1.8169 7.2673-25.436 18.168-3.6339 10.901 21.802 32.703-5.4508zm1.817 39.97 7.2678 21.802h-14.535z"/>
  <path d="m442.16 22.508c-7.9554-2.1979-16.735-3.03-22.799-3.2124-12.938-0.38924-19.927 1.6321-19.927 1.6321l1.6665 97.639c-1.4401 1.5664 63.82 5.5201 64.03-17.776 0.22469-24.989-32.518-32.886-43.485-32.621 4.1882-0.32976 16.202-1.558 26.12-5.4205 12.191-4.7479 15.331-17.554 13.118-26.462-1.7498-7.0428-9.7078-11.288-18.724-13.779zm-12.548 9.0405c4.6042 1.2503 8.6258 4.0195 9.1125 9.8017 1.1981 14.233-22.774 11.923-22.774 11.923l-1.0411-22.134s7.9733-1.4176 14.703 0.4098zm1.2343 50.569c5.5333 1.5535 10.791 4.9561 11.516 12.206 1.5997 15.999-23.833 13.617-23.833 13.617l-1.4404-26.879s7.0799-0.81838 13.758 1.0566z"/>
  <path d="m511.31 18.262a52.126 42.714 71.625 0 0-7.4928 0.80735 52.126 42.714 71.625 0 0-29.019 59.525 52.126 42.714 71.625 0 0 54.629 41.397 52.126 42.714 71.625 0 0 29.019-59.525 52.126 42.714 71.625 0 0-47.136-42.205zm2.644 25.176a26.529 21.739 71.625 0 1 23.953 21.479 26.529 21.739 71.625 0 1-14.768 30.294 26.529 21.739 71.625 0 1-27.803-21.068 26.529 21.739 71.625 0 1 14.769-30.294 26.529 21.739 71.625 0 1 3.8489-0.41089z"/>
  <g>
   <path d="m570.43 41.174 18.326-6.4268s4.0724 67.848 31.268 63.036c22.64-4.006 1.3312-69.141 2.6655-70.432l19.505-6.626s22.943 92.768-19.794 98.318c-42.737 5.55-51.97-77.869-51.97-77.869z"/>
   <path d="m659.74 28.392 0.19311 23.176 38.096-6.174-1.353 68.301 24.229-1.4229-8.8291-66.362 33.186 1.5551-4.9329-22.119-38.625 2.3117z"/>
   <path d="m793.48 111.97 2.3891-83.62 22.138-3.8677 25.857 45.583 12.46-46.462 22.007-2.0556 15.602 86.739-21.746-1.5687-6.4462-36.896-18.401 27.818-30.527-31.347 5.9232 44.145z"/>
   <path d="m895.55 30.809 67.221-30.886 5.4502 36.337-47.235 9.0842 9.0837 21.802 45.419-12.718 1.8167 32.703-45.418-1.8168 7.267 23.619 49.052-7.2674-1.8167 16.352-65.403 10.901z"/>
  </g>
 </g>
</svg>
