<?xml version="1.0" encoding="UTF-8"?>
<svg width="316" height="48" version="1.1" viewBox="0 0 83.608 12.7" xmlns="http://www.w3.org/2000/svg" xmlns:cc="http://creativecommons.org/ns#" xmlns:dc="http://purl.org/dc/elements/1.1/" xmlns:rdf="http://www.w3.org/1999/02/22-rdf-syntax-ns#">
 <metadata>
  <rdf:RDF>
   <cc:Work rdf:about="">
    <dc:format>image/svg+xml</dc:format>
    <dc:type rdf:resource="http://purl.org/dc/dcmitype/StillImage"/>
    <dc:title/>
   </cc:Work>
  </rdf:RDF>
 </metadata>
 <g transform="matrix(.10652 0 0 .10652 -34.673 -16.308)" fill="#a08" stroke="#000" stroke-width="6.35">
  <g>
   <path d="m364.55 164.04-34.52 103.56 21.802-1.8169 7.2673-25.436 18.168-3.6339 10.901 21.802 32.703-5.4508zm1.817 39.97 7.2678 21.802h-14.535z"/>
   <path d="m498.48 167.95c-5.1676-0.8289-11.91-1.2102-20.535-1.0214-35.658 0.78036-40.617 0.86049-40.617 0.86049l-5.6704 92.931 31.647-2.2963-7.7495-43.559 39.683 39.469 26.264-3.1571-43.271-40.043s62.327-36.433 20.249-43.183zm-24.268 12.785c10.857 1.8566 4.4631 11.428 0.71525 16.554-4.1356 5.6563-22.745 4.1572-22.745 4.1572l-0.42998-20.308c-3e-5 -1e-5 5.8147-0.83017 18.514-0.71708 1.5145 0.0135 2.8222 0.12262 3.9453 0.31467z"/>
   <path d="m524.71 174.59 0.9072 23.159 37.888-7.345 0.75234 68.31 24.173-2.1689-10.87-66.058 33.218 0.53177-5.6122-21.957-38.536 3.5009z"/>
   <path d="m624.32 181.33 22.472-3.0328 12.169 46.922 15.224-45.948 28.408 44.147 3.9833-48.828 19.664-1.5548-10.447 78.069-17.03 1.8175-22.078-36.484-9.1747 38.641-16.856 0.0768z"/>
  </g>
  <path d="m775.47 170.27a48.804 42.159 27.37 0 0-8.1329 0.68734 48.804 42.159 27.37 0 0-31.499 50.677 48.804 42.159 27.37 0 0 59.296 35.244 48.804 42.159 27.37 0 0 31.498-50.677 48.804 42.159 27.37 0 0-51.163-35.931zm2.8699 21.434a24.838 21.456 27.37 0 1 26 18.287 24.838 21.456 27.37 0 1-16.03 25.791 24.838 21.456 27.37 0 1-30.178-17.937 24.838 21.456 27.37 0 1 16.031-25.791 24.838 21.456 27.37 0 1 4.1777-0.34982z"/>
  <g>
   <path d="m908.96 167.54c-5.2105-0.84724-12.01-1.2444-20.71-1.0697-35.967 0.72234-40.968 0.79412-40.968 0.79412l-5.8908 93.863 31.924-2.2611-7.7358-44.015 39.952 39.942 26.496-3.1405-43.57-40.529s62.932-36.687 20.503-43.584zm-24.501 12.869c10.948 1.8954 4.4804 11.552 0.69083 16.723-4.1816 5.706-22.948 4.1573-22.948 4.1573l-0.39618-20.515c-3e-5 0 5.8663-0.82782 18.675-0.69009 1.5275 0.0164 2.8462 0.12908 3.9787 0.32516z"/>
   <path d="m941.46 169.2 9.2214 45-4.4764 52.761 23.455-2.6212 2.7144-42.873 25.723 44.54 24.336-7.565-37.071-49.963 35.987-36.093-21.963-14.966-30.062 39.7-1.2264-29.973z"/>
   <path d="m1060.1 159.11c-12.228 1.2671-21.533 6.6099-25.801 14.552-4.2676 7.9425-3.7186 16.383-2.6314 23.933 0.8487 5.8934 4.1353 13.069 10.714 17.32 6.5782 4.2515 14.893 5.9767 26.599 6.61 7.5456 0.40823 11.234 3.0129 13.913 6.2045 2.679 3.1915 3.9289 7.5667 4.0391 9.8174 0.1479 3.0188-0.1912 6.1254-1.4439 8.1322-1.2526 2.0067-3.2786 4.2118-11.465 5.0666-9.868 1.0305-13.626-1.5724-16.085-4.4868-2.4595-2.9144-3.1791-7.5883-2.8645-9.4803l1.4911-8.9619-18.434-3.3135-1.4886 8.964c-1.2541 7.5446 0.4893 16.49 6.9936 24.197 6.5043 7.7072 18.213 12.73 32.783 11.209 12.119-1.2656 20.792-6.5988 25.071-13.454 4.2796-6.8558 4.3065-13.935 4.0911-18.335-0.3109-6.3516-2.6175-13.884-8.3546-20.719-5.737-6.8344-15.324-12.376-27.632-13.041-10.072-0.54493-15.305-2.347-17.152-3.5405-1.8465-1.1934-1.8604-1.3794-2.2852-4.3298-0.8781-6.0983-0.5104-10.759 0.7164-13.042 1.2269-2.2834 3.0924-4.2913 11.605-5.1734 10.486-1.0865 13.49 1.3455 15.413 3.696 1.9232 2.3505 2.6803 6.563 2.5702 9.034l-0.4043 9.0945 18.655 1.201 0.4039-9.0967c0.2524-5.6555-0.6249-13.946-6.736-21.415-6.1109-7.4684-17.54-12.17-32.282-10.642z" color="#000000" color-rendering="auto" dominant-baseline="auto" image-rendering="auto" shape-rendering="auto" solid-color="#000000" stop-color="#000000" stroke-linecap="square" style="font-feature-settings:normal;font-variant-alternates:normal;font-variant-caps:normal;font-variant-east-asian:normal;font-variant-ligatures:normal;font-variant-numeric:normal;font-variant-position:normal;font-variation-settings:normal;inline-size:0;isolation:auto;mix-blend-mode:normal;shape-margin:0;shape-padding:0;text-decoration-color:#000000;text-decoration-line:none;text-decoration-style:solid;text-indent:0;text-orientation:mixed;text-transform:none;white-space:normal"/>
  </g>
 </g>
</svg>
