<?xml version="1.0" encoding="UTF-8"?>
<svg width="144" height="48" version="1.1" viewBox="0 0 38.1 12.7" xmlns="http://www.w3.org/2000/svg" xmlns:cc="http://creativecommons.org/ns#" xmlns:dc="http://purl.org/dc/elements/1.1/" xmlns:rdf="http://www.w3.org/1999/02/22-rdf-syntax-ns#">
 <metadata>
  <rdf:RDF>
   <cc:Work rdf:about="">
    <dc:format>image/svg+xml</dc:format>
    <dc:type rdf:resource="http://purl.org/dc/dcmitype/StillImage"/>
    <dc:title/>
   </cc:Work>
  </rdf:RDF>
 </metadata>
 <g transform="matrix(.092529 0 0 .092529 -28.972 13.754)" fill="#a08" stroke="#000" stroke-width="6.35">
  <path d="m345.99-128.7 5.7159 38.106 25.721-1.9053-3.8106-41.917 29.414-1.5006-2.5967 50.372 18.792 51.156h-24.651l-10.479-40.964h-32.39l-0.95266 45.727-25.199 4.9066 6.9553-55.397-15.124-46.275z"/>
  <path d="m457.04-130.05a50.704 40.257 74.492 0 0-7.0391 0.78784 50.704 40.257 74.492 0 0-27.262 58.086 50.704 40.257 74.492 0 0 51.321 40.397 50.704 40.257 74.492 0 0 27.262-58.086 50.704 40.257 74.492 0 0-44.281-41.184zm2.4839 24.568a25.805 20.488 74.492 0 1 22.503 20.96 25.805 20.488 74.492 0 1-13.874 29.562 25.805 20.488 74.492 0 1-26.119-20.559 25.805 20.488 74.492 0 1 13.875-29.562 25.805 20.488 74.492 0 1 3.6158-0.40096z"/>
  <path d="m521.08-31.851-3.6337-83.575 21.802-5.4505 29.07 43.604 9.0842-47.238 21.802-3.6337 21.802 85.392h-21.802l-9.0842-36.337-16.352 29.07-32.703-29.07 9.0842 43.604z"/>
  <path d="m625.79-113.11 67.223-30.886 5.4505 36.337-47.238 9.0842 9.0842 21.802 45.421-12.718 1.8168 32.703-45.421-1.8168 7.2674 23.619 49.055-7.2674-1.8168 16.352-65.406 10.901z"/>
 </g>
</svg>
