<?xml version="1.0" encoding="UTF-8"?>
<svg width="408" height="40" version="1.1" viewBox="0 0 107.95 10.583" xmlns="http://www.w3.org/2000/svg" xmlns:cc="http://creativecommons.org/ns#" xmlns:dc="http://purl.org/dc/elements/1.1/" xmlns:rdf="http://www.w3.org/1999/02/22-rdf-syntax-ns#">
 <metadata>
  <rdf:RDF>
   <cc:Work rdf:about="">
    <dc:format>image/svg+xml</dc:format>
    <dc:type rdf:resource="http://purl.org/dc/dcmitype/StillImage"/>
    <dc:title/>
   </cc:Work>
  </rdf:RDF>
 </metadata>
 <g transform="matrix(1.0009 0 0 1.0133 -7.0407 -119.99)" fill="#e6e6e6" stroke="#e6e6e6">
  <g stroke-width=".48319">
   <path d="m58.251 119.83-2.6267 7.8803 1.659-0.13826 0.55299-1.9355 1.3825-0.27651 0.82951 1.659 2.4885-0.41477zm0.13826 3.0415 0.55303 1.659h-1.106z"/>
   <path d="m68.156 120.13c-0.39322-0.0631-0.90624-0.0921-1.5626-0.0777-2.7133 0.0594-3.0907 0.0655-3.0907 0.0655l-0.43148 7.0714 2.4081-0.17473-0.58968-3.3145 3.0196 3.0033 1.9985-0.24023-3.2927-3.047s4.7427-2.7723 1.5408-3.286zm-1.8467 0.97283c0.82618 0.14127 0.33961 0.86956 0.05443 1.2596-0.31469 0.43041-1.7307 0.31634-1.7307 0.31634l-0.03272-1.5453c-2e-6 0 0.44246-0.0632 1.4088-0.0546 0.11524 1e-3 0.21475 9e-3 0.30021 0.0239z"/>
   <path d="m70.856 120.64 0.06903 1.7623 2.883-0.55891 0.05725 5.198 1.8394-0.16504-0.82713-5.0266 2.5276 0.0405-0.42705-1.6708-2.9323 0.26639z"/>
  </g>
  <path d="m111.17 119.45c-0.93049 0.0964-1.6385 0.50297-1.9633 1.1074-0.32473 0.60437-0.28296 1.2466-0.20023 1.8211 0.0646 0.44845 0.31467 0.99446 0.81523 1.318s1.1333 0.45479 2.024 0.50297c0.57418 0.0311 0.85482 0.22927 1.0587 0.47212 0.20385 0.24286 0.29896 0.57578 0.30735 0.74705 0.0113 0.22971-0.0145 0.4661-0.10987 0.6188-0.0953 0.1527-0.24948 0.32049-0.87239 0.38554-0.75089 0.0784-1.0368-0.11965-1.224-0.34142-0.18715-0.22177-0.24191-0.57742-0.21797-0.72139l0.11346-0.68194-1.4027-0.25213-0.11327 0.6821c-0.0954 0.57409 0.0372 1.2548 0.53216 1.8412 0.49494 0.58646 1.3859 0.96869 2.4946 0.8529 0.9222-0.0963 1.5821-0.50212 1.9078-1.0238 0.32565-0.52167 0.3277-1.0604 0.31131-1.3951-0.0237-0.48332-0.19918-1.0565-0.63573-1.5766s-1.166-0.9417-2.1026-0.99237c-0.76638-0.0415-1.1646-0.17859-1.3052-0.26941-0.14051-0.0908-0.14157-0.10495-0.17389-0.32947-0.0668-0.46404-0.0388-0.81867 0.0545-0.99241 0.0934-0.17375 0.23531-0.32654 0.88305-0.39366 0.79791-0.0827 1.0265 0.10238 1.1728 0.28124s0.20396 0.4994 0.19558 0.68743l-0.0308 0.69203 1.4195 0.0914 0.0307-0.6922c0.0192-0.43034-0.0476-1.0612-0.51257-1.6295-0.465-0.5683-1.3346-0.92606-2.4564-0.80982z" color="#000000" color-rendering="auto" dominant-baseline="auto" image-rendering="auto" shape-rendering="auto" solid-color="#000000" stop-color="#000000" stroke-linecap="square" stroke-width=".48319" style="font-feature-settings:normal;font-variant-alternates:normal;font-variant-caps:normal;font-variant-east-asian:normal;font-variant-ligatures:normal;font-variant-numeric:normal;font-variant-position:normal;font-variation-settings:normal;inline-size:0;isolation:auto;mix-blend-mode:normal;shape-margin:0;shape-padding:0;text-decoration-color:#000000;text-decoration-line:none;text-decoration-style:solid;text-indent:0;text-orientation:mixed;text-transform:none;white-space:normal"/>
  <path d="m80.245 119.24v8.5834l1.9091 0.19746 0.95204-8.4948z" stroke-width=".48313"/>
  <path d="m89.066 119.61c-1.8445 0-3.325 1.8234-3.325 4.0172 0 2.1937 1.4805 4.0172 3.325 4.0172 2.2145-0.30719 2.9246-1.3352 3.5528-3.18l-1.5168-0.38562c-0.07043 1.0218-1.1015 2.1579-2.036 2.1972-1.1781 0-1.7548-1.2593-1.7548-2.747 0-1.4878 0.57678-2.5543 1.7548-2.5505 1.1856 0.0233 1.2523 0.4093 1.6722 1.4018l1.386-0.78482c-0.47961-1.5759-1.7392-1.9864-3.0582-1.9854z" color="#000000" color-rendering="auto" dominant-baseline="auto" image-rendering="auto" shape-rendering="auto" solid-color="#000000" stop-color="#000000" stroke-linecap="square" stroke-width=".48319" style="font-feature-settings:normal;font-variant-alternates:normal;font-variant-caps:normal;font-variant-east-asian:normal;font-variant-ligatures:normal;font-variant-numeric:normal;font-variant-position:normal;font-variation-settings:normal;inline-size:0;isolation:auto;mix-blend-mode:normal;shape-margin:0;shape-padding:0;text-decoration-color:#000000;text-decoration-line:none;text-decoration-style:solid;text-indent:0;text-orientation:mixed;text-transform:none;white-space:normal"/>
  <g>
   <g stroke-width=".48313">
    <path d="m92.556 120.02c1.2013 3.6151 1.5581 5.2338 1.6751 7.9421 1.1481-0.15352 4.1559-1.2263 6.527-0.9374l0.2211-3.2501c-1.4767 3e-3 -2.8132 1.2276-5.0076 1.844 0.14554-1.8601-0.33329-4.2087-0.94279-6.294z"/>
    <path d="m100.75 121.11 5.1153-2.3503 0.41475 2.765-3.5945 0.69125 0.69125 1.659 3.4562-0.96775 0.13825 2.4885-3.4562-0.13825 0.553 1.7973 3.7328-0.553-0.13825 1.2442-4.977 0.8295z"/>
    <path d="m7.3431 120.02c1.2013 3.6151 1.5581 5.2338 1.6751 7.9421 1.1481-0.15352 4.1559-1.2263 6.527-0.9374l0.2211-3.2501c-1.4767 3e-3 -2.8132 1.2276-5.0076 1.844 0.14554-1.8601-0.33329-4.2087-0.94279-6.294z"/>
   </g>
   <path d="m18.459 119.83-2.6267 7.8803 1.659-0.13826 0.55299-1.9355 1.3825-0.27651 0.82951 1.659 2.4885-0.41477zm0.13826 3.0415 0.55303 1.659h-1.106z" stroke-width=".48319"/>
   <path d="m22.209 120.64 0.06903 1.7623 2.883-0.55891 0.05725 5.198 1.8394-0.16504-0.82713-5.0266 2.5276 0.0405-0.42705-1.6708-2.9323 0.26639z" stroke-width=".48319"/>
   <path d="m29.78 121.11 5.1153-2.3503 0.41475 2.765-3.5945 0.69125 0.69125 1.659 3.4562-0.96775 0.13825 2.4885-3.4562-0.13825 0.553 1.7972 3.7328-0.553-0.13825 1.2442-4.977 0.8295z" stroke-width=".48313"/>
  </g>
  <path d="m40.464 119.45c-0.93049 0.0964-1.6385 0.50297-1.9633 1.1074-0.32473 0.60437-0.28296 1.2466-0.20023 1.8211 0.0646 0.44845 0.31467 0.99446 0.81523 1.318s1.1333 0.45479 2.024 0.50297c0.57418 0.0311 0.85482 0.22927 1.0587 0.47212 0.20385 0.24286 0.29896 0.57578 0.30735 0.74705 0.0113 0.22971-0.0145 0.4661-0.10987 0.6188-0.0953 0.1527-0.24948 0.32049-0.87239 0.38554-0.75089 0.0784-1.0368-0.11965-1.224-0.34142-0.18715-0.22177-0.24191-0.57742-0.21797-0.72139l0.11346-0.68194-1.4027-0.25213-0.11327 0.6821c-0.0954 0.57409 0.0372 1.2548 0.53216 1.8412 0.49494 0.58646 1.3859 0.96869 2.4946 0.8529 0.9222-0.0963 1.5821-0.50212 1.9078-1.0238 0.32565-0.52167 0.3277-1.0604 0.31131-1.3951-0.0237-0.48332-0.19918-1.0565-0.63573-1.5766s-1.166-0.9417-2.1026-0.99237c-0.76638-0.0415-1.1646-0.17859-1.3052-0.26941-0.14051-0.0908-0.14157-0.10495-0.17389-0.32947-0.0668-0.46404-0.0388-0.81867 0.0545-0.99241 0.0934-0.17375 0.23531-0.32654 0.88305-0.39366 0.79791-0.0827 1.0265 0.10238 1.1728 0.28124s0.20396 0.4994 0.19558 0.68743l-0.0308 0.69203 1.4195 0.0914 0.0307-0.6922c0.0192-0.43034-0.0476-1.0612-0.51257-1.6295-0.465-0.5683-1.3346-0.92606-2.4564-0.80982z" color="#000000" color-rendering="auto" dominant-baseline="auto" image-rendering="auto" shape-rendering="auto" solid-color="#000000" stop-color="#000000" stroke-linecap="square" stroke-width=".48319" style="font-feature-settings:normal;font-variant-alternates:normal;font-variant-caps:normal;font-variant-east-asian:normal;font-variant-ligatures:normal;font-variant-numeric:normal;font-variant-position:normal;font-variation-settings:normal;inline-size:0;isolation:auto;mix-blend-mode:normal;shape-margin:0;shape-padding:0;text-decoration-color:#000000;text-decoration-line:none;text-decoration-style:solid;text-indent:0;text-orientation:mixed;text-transform:none;white-space:normal"/>
  <path d="m45.567 120.64 0.06903 1.7623 2.883-0.55891 0.05725 5.198 1.8394-0.16504-0.82713-5.0266 2.5276 0.0405-0.42705-1.6708-2.9323 0.26639z" stroke-width=".48319"/>
 </g>
</svg>
