<?xml version="1.0" encoding="UTF-8"?>
<svg width="204" height="40" version="1.1" viewBox="0 0 53.975 10.583" xmlns="http://www.w3.org/2000/svg" xmlns:cc="http://creativecommons.org/ns#" xmlns:dc="http://purl.org/dc/elements/1.1/" xmlns:rdf="http://www.w3.org/1999/02/22-rdf-syntax-ns#">
 <metadata>
  <rdf:RDF>
   <cc:Work rdf:about="">
    <dc:format>image/svg+xml</dc:format>
    <dc:type rdf:resource="http://purl.org/dc/dcmitype/StillImage"/>
    <dc:title/>
   </cc:Work>
  </rdf:RDF>
 </metadata>
 <g transform="translate(-35.18 -60.868)" fill="#a08" stroke="#000">
  <path d="m68.193 63.572 5.1153-2.3503 0.41475 2.765-3.5945 0.69125 0.69125 1.659 3.4563-0.96775 0.13825 2.4885-3.4563-0.13825 0.553 1.7973 3.7328-0.553-0.13825 1.2443-4.977 0.8295z" stroke-width=".48313"/>
  <path d="m81.055 62.591c-0.39322-0.06307-0.90624-0.09209-1.5626-0.07772-2.7133 0.05938-3.0907 0.06548-3.0907 0.06548l-0.43148 7.0714 2.4081-0.17474-0.58969-3.3145 3.0196 3.0033 1.9986-0.24023-3.2927-3.047s4.7427-2.7723 1.5408-3.286zm-1.8467 0.97282c0.82618 0.14127 0.33961 0.86956 0.05443 1.2596-0.31469 0.4304-1.7307 0.31634-1.7307 0.31634l-0.03271-1.5453c-7e-6 -1e-6 0.44245-0.06317 1.4088-0.05456 0.11524 1e-3 0.21475 0.0093 0.30021 0.02394z" stroke-width=".48319"/>
  <path d="m47.927 61.985a4.1638 3.3496 73.421 0 0-0.5864 0.06462 4.1638 3.3496 73.421 0 0-2.2711 4.7644 4.1638 3.3496 73.421 0 0 4.2754 3.3134 4.1638 3.3496 73.421 0 0 2.271-4.7644 4.1638 3.3496 73.421 0 0-3.6889-3.3781zm0.20692 2.0151a2.1191 1.7047 73.421 0 1 1.8746 1.7192 2.1191 1.7047 73.421 0 1-1.1558 2.4248 2.1191 1.7047 73.421 0 1-2.1759-1.6863 2.1191 1.7047 73.421 0 1 1.1558-2.4248 2.1191 1.7047 73.421 0 1 0.30122-0.03289z" stroke-width=".48319"/>
  <g>
   <path d="m57.088 63.728c-2.2154-0.51921-3.0697 0.75824-2.663 2.6703 0.41137 3.1097 3.7639 1.9873 3.8516 0.24572l-0.95938 0.40091-0.4528-1.4722 2.4005-0.60388c0.85788 2.2739 0.15535 4.4262-2.0828 5.1581-1.434 0.38328-3.6231 0.30851-4.3484-2.2202-1.5696-4.8479 2.7098-7.6444 5.2942-5.033z" stroke-width=".45043"/>
   <path d="m35.489 62.478c1.2013 3.6151 1.5581 5.2338 1.6751 7.9421 1.1481-0.15352 4.1559-1.2263 6.527-0.9374l0.2211-3.2501c-1.4767 0.0033-2.8132 1.2276-5.0076 1.844 0.14554-1.8601-0.33329-4.2087-0.94279-6.2939z" stroke-width=".48313"/>
   <path d="m64.925 63.728c-2.2154-0.51921-3.0697 0.75824-2.663 2.6703 0.41137 3.1097 3.7639 1.9873 3.8516 0.24572l-0.95938 0.40091-0.4528-1.4722 2.4005-0.60388c0.85788 2.2739 0.15535 4.4262-2.0828 5.1581-1.434 0.38328-3.6231 0.30851-4.3484-2.2202-1.5696-4.8479 2.7098-7.6444 5.2942-5.033z" stroke-width=".45043"/>
  </g>
  <path d="m85.253 61.984c-0.93049 0.09642-1.6385 0.50297-1.9633 1.1073-0.32474 0.60437-0.28296 1.2466-0.20023 1.8211 0.06458 0.44845 0.31467 0.99445 0.81523 1.318 0.50056 0.32352 1.1333 0.45479 2.024 0.50298 0.57417 0.03106 0.85482 0.22926 1.0587 0.47212 0.20386 0.24285 0.29896 0.57578 0.30735 0.74704 0.01125 0.22971-0.01455 0.46611-0.10987 0.61881-0.09531 0.1527-0.24948 0.32049-0.87238 0.38554-0.75089 0.07842-1.0368-0.11965-1.224-0.34142-0.18715-0.22177-0.24191-0.57742-0.21797-0.72139l0.11346-0.68194-1.4027-0.25214-0.11327 0.6821c-0.09543 0.5741 0.03723 1.2548 0.53217 1.8412 0.49494 0.58646 1.3859 0.96869 2.4946 0.8529 0.9222-0.0963 1.5821-0.50213 1.9077-1.0238 0.32565-0.52168 0.3277-1.0604 0.31131-1.3951-0.02366-0.48332-0.19917-1.0565-0.63573-1.5766-0.43655-0.52006-1.166-0.9417-2.1026-0.99236-0.76638-0.04147-1.1646-0.17859-1.3052-0.26941-0.14051-0.09081-0.14156-0.10496-0.17389-0.32947-0.06682-0.46404-0.03884-0.81867 0.05451-0.99242 0.09336-0.17375 0.23531-0.32654 0.88306-0.39366 0.7979-0.08268 1.0265 0.10239 1.1728 0.28125 0.14634 0.17886 0.20395 0.4994 0.19558 0.68743l-0.03077 0.69203 1.4195 0.09139 0.03073-0.6922c0.01921-0.43035-0.04755-1.0612-0.51257-1.6295-0.465-0.5683-1.3346-0.92606-2.4564-0.80982z" color="#000000" color-rendering="auto" dominant-baseline="auto" image-rendering="auto" shape-rendering="auto" solid-color="#000000" stop-color="#000000" stroke-linecap="square" stroke-width=".48319" style="font-feature-settings:normal;font-variant-alternates:normal;font-variant-caps:normal;font-variant-east-asian:normal;font-variant-ligatures:normal;font-variant-numeric:normal;font-variant-position:normal;font-variation-settings:normal;inline-size:0;isolation:auto;mix-blend-mode:normal;shape-margin:0;shape-padding:0;text-decoration-color:#000000;text-decoration-line:none;text-decoration-style:solid;text-indent:0;text-orientation:mixed;text-transform:none;white-space:normal"/>
 </g>
</svg>
