<?xml version="1.0" encoding="UTF-8"?>
<svg width="180" height="40" version="1.1" viewBox="0 0 47.625 10.583" xmlns="http://www.w3.org/2000/svg" xmlns:cc="http://creativecommons.org/ns#" xmlns:dc="http://purl.org/dc/elements/1.1/" xmlns:rdf="http://www.w3.org/1999/02/22-rdf-syntax-ns#">
 <metadata>
  <rdf:RDF>
   <cc:Work rdf:about="">
    <dc:format>image/svg+xml</dc:format>
    <dc:type rdf:resource="http://purl.org/dc/dcmitype/StillImage"/>
    <dc:title/>
   </cc:Work>
  </rdf:RDF>
 </metadata>
 <g transform="matrix(1.0026 0 0 1.0133 -36.045 -76.708)" fill="#fff" stroke="#fff">
  <path d="m38.414 76.746c-0.93049 0.0964-1.6385 0.50297-1.9633 1.1073-0.32474 0.60438-0.28296 1.2466-0.20023 1.8212 0.0646 0.44845 0.31467 0.99445 0.81522 1.318 0.50056 0.32351 1.1333 0.45478 2.024 0.50297 0.57417 0.0311 0.85482 0.22926 1.0587 0.47212 0.20386 0.24286 0.29897 0.57578 0.30735 0.74704 0.0113 0.22972-0.0145 0.46611-0.10987 0.61881-0.0953 0.1527-0.24948 0.32049-0.87238 0.38554-0.75089 0.0784-1.0368-0.11965-1.224-0.34142-0.18715-0.22177-0.24191-0.57742-0.21797-0.72139l0.11346-0.68194-1.4027-0.25214-0.11327 0.6821c-0.0954 0.5741 0.0372 1.2548 0.53217 1.8412 0.49494 0.58646 1.3859 0.96869 2.4946 0.8529 0.9222-0.0963 1.5821-0.50213 1.9078-1.0238 0.32565-0.52168 0.32769-1.0604 0.3113-1.3951-0.0237-0.48332-0.19917-1.0565-0.63573-1.5766-0.43655-0.52006-1.166-0.9417-2.1026-0.99237-0.76639-0.0415-1.1646-0.17859-1.3052-0.26941-0.14051-0.0908-0.14156-0.10496-0.17389-0.32947-0.0668-0.46405-0.0388-0.81867 0.0545-0.99242 0.0934-0.17375 0.23531-0.32654 0.88306-0.39365 0.7979-0.0827 1.0265 0.10238 1.1728 0.28124 0.14634 0.17886 0.20395 0.4994 0.19557 0.68743l-0.0308 0.69203 1.4195 0.0914 0.0307-0.6922c0.0192-0.43035-0.0476-1.0612-0.51256-1.6295-0.465-0.56829-1.3346-0.92605-2.4564-0.80981z" color="#000000" color-rendering="auto" dominant-baseline="auto" image-rendering="auto" shape-rendering="auto" solid-color="#000000" stop-color="#000000" stroke-linecap="square" stroke-width=".48319" style="font-feature-settings:normal;font-variant-alternates:normal;font-variant-caps:normal;font-variant-east-asian:normal;font-variant-ligatures:normal;font-variant-numeric:normal;font-variant-position:normal;font-variation-settings:normal;inline-size:0;isolation:auto;mix-blend-mode:normal;shape-margin:0;shape-padding:0;text-decoration-color:#000000;text-decoration-line:none;text-decoration-style:solid;text-indent:0;text-orientation:mixed;text-transform:none;white-space:normal"/>
  <g>
   <path d="m43.557 78.403 5.1153-2.3503 0.41475 2.765-3.5945 0.69125 0.69125 1.659 3.4563-0.96775 0.13825 2.4885-3.4563-0.13825 0.553 1.7973 3.7328-0.553-0.13825 1.2443-4.977 0.8295z" stroke-width=".48313"/>
   <path d="m54.262 77.125-2.6267 7.8803 1.659-0.13826 0.55299-1.9355 1.3825-0.27652 0.82951 1.659 2.4885-0.41477zm0.13826 3.0415 0.55303 1.659h-1.106z" stroke-width=".48319"/>
   <path d="m64.68 77.423c-0.39322-0.06307-0.90624-0.09208-1.5626-0.07772-2.7133 0.05938-3.0907 0.06548-3.0907 0.06548l-0.43148 7.0714 2.4081-0.17474-0.58968-3.3145 3.0196 3.0033 1.9985-0.24023-3.2927-3.047s4.7427-2.7723 1.5408-3.286zm-1.8467 0.97282c0.82618 0.14127 0.33961 0.86956 0.05443 1.2596-0.31469 0.4304-1.7307 0.31634-1.7307 0.31634l-0.03272-1.5453c-2e-6 0 0.44246-0.06317 1.4088-0.05456 0.11524 1e-3 0.21475 0.0093 0.30021 0.02394z" stroke-width=".48319"/>
  </g>
  <path d="m71.05 76.904c-1.8445 0-3.325 1.8235-3.325 4.0172 0 2.1937 1.4805 4.0172 3.325 4.0172 2.2145-0.30719 2.9246-1.3352 3.5528-3.18l-1.5168-0.38562c-0.07043 1.0218-1.1015 2.1579-2.036 2.1972-1.1781 0-1.7548-1.2593-1.7548-2.747 0-1.4878 0.57678-2.5543 1.7548-2.5505 1.1856 0.02334 1.2523 0.4093 1.6722 1.4018l1.386-0.78482c-0.47961-1.5759-1.7392-1.9864-3.0582-1.9854z" color="#000000" color-rendering="auto" dominant-baseline="auto" image-rendering="auto" shape-rendering="auto" solid-color="#000000" stop-color="#000000" stroke-linecap="square" stroke-width=".48319" style="font-feature-settings:normal;font-variant-alternates:normal;font-variant-caps:normal;font-variant-east-asian:normal;font-variant-ligatures:normal;font-variant-numeric:normal;font-variant-position:normal;font-variation-settings:normal;inline-size:0;isolation:auto;mix-blend-mode:normal;shape-margin:0;shape-padding:0;text-decoration-color:#000000;text-decoration-line:none;text-decoration-style:solid;text-indent:0;text-orientation:mixed;text-transform:none;white-space:normal"/>
  <path d="m77.532 77.217 0.43494 2.8996 1.9572-0.14498-0.28996-3.1896 2.2382-0.11419-0.19759 3.833 1.4299 3.8927h-1.8758l-0.79739-3.1171h-2.4647l-0.07249 3.4795-1.9175 0.37336 0.52925-4.2154-1.1509-3.5212z" stroke-width=".48313"/>
 </g>
</svg>
