<?xml version="1.0" encoding="UTF-8"?>
<svg width="104" height="34" version="1.1" viewBox="0 0 27.517 8.9958" xmlns="http://www.w3.org/2000/svg" xmlns:cc="http://creativecommons.org/ns#" xmlns:dc="http://purl.org/dc/elements/1.1/" xmlns:rdf="http://www.w3.org/1999/02/22-rdf-syntax-ns#">
 <metadata>
  <rdf:RDF>
   <cc:Work rdf:about="">
    <dc:format>image/svg+xml</dc:format>
    <dc:type rdf:resource="http://purl.org/dc/dcmitype/StillImage"/>
    <dc:title/>
   </cc:Work>
  </rdf:RDF>
 </metadata>
 <g transform="matrix(.99783 0 0 1.0133 -32.633 -91.444)" fill="#045" stroke="#045">
  <g stroke-width=".48319">
   <path d="m32.955 91.693 0.06903 1.7623 2.883-0.55891 0.05725 5.198 1.8394-0.16504-0.82713-5.0266 2.5276 0.04046-0.42705-1.6708-2.9323 0.26639z"/>
   <path d="m42.381 90.89-2.6267 7.8803 1.659-0.13826 0.55299-1.9355 1.3825-0.27652 0.82951 1.659 2.4885-0.41477zm0.13826 3.0415 0.55303 1.659h-1.106z"/>
   <path d="m56.569 90.51c-0.93049 0.09642-1.6385 0.50297-1.9633 1.1073-0.32474 0.60437-0.28296 1.2466-0.20023 1.8211 0.06458 0.44845 0.31467 0.99445 0.81523 1.318 0.50056 0.32352 1.1333 0.45479 2.024 0.50298 0.57417 0.03106 0.85482 0.22926 1.0587 0.47212 0.20386 0.24285 0.29896 0.57578 0.30735 0.74704 0.01125 0.22971-0.01455 0.46611-0.10987 0.61881-0.09531 0.1527-0.24948 0.32049-0.87238 0.38554-0.75089 0.07842-1.0368-0.11965-1.224-0.34142-0.18715-0.22177-0.24191-0.57742-0.21797-0.72139l0.11346-0.68194-1.4027-0.25214-0.11327 0.6821c-0.09543 0.5741 0.03723 1.2548 0.53217 1.8412 0.49494 0.58646 1.3859 0.96869 2.4946 0.8529 0.9222-0.0963 1.5821-0.50213 1.9077-1.0238 0.32565-0.52168 0.3277-1.0604 0.31131-1.3951-0.02366-0.48332-0.19917-1.0565-0.63573-1.5766-0.43655-0.52006-1.166-0.9417-2.1026-0.99236-0.76638-0.04147-1.1646-0.17859-1.3052-0.26941-0.14051-0.09081-0.14156-0.10496-0.17389-0.32947-0.06682-0.46404-0.03884-0.81867 0.05451-0.99242 0.09336-0.17375 0.23531-0.32654 0.88306-0.39366 0.7979-0.08268 1.0265 0.10239 1.1728 0.28125 0.14634 0.17886 0.20395 0.4994 0.19558 0.68743l-0.03077 0.69203 1.4195 0.09139 0.03073-0.6922c0.01921-0.43035-0.04755-1.0612-0.51257-1.6295-0.465-0.5683-1.3346-0.92606-2.4564-0.80982z" color="#000000" color-rendering="auto" dominant-baseline="auto" image-rendering="auto" shape-rendering="auto" solid-color="#000000" stop-color="#000000" stroke-linecap="square" style="font-feature-settings:normal;font-variant-alternates:normal;font-variant-caps:normal;font-variant-east-asian:normal;font-variant-ligatures:normal;font-variant-numeric:normal;font-variant-position:normal;font-variation-settings:normal;inline-size:0;isolation:auto;mix-blend-mode:normal;shape-margin:0;shape-padding:0;text-decoration-color:#000000;text-decoration-line:none;text-decoration-style:solid;text-indent:0;text-orientation:mixed;text-transform:none;white-space:normal"/>
  </g>
  <path d="m51.243 92.323c-2.2154-0.51921-3.0697 0.75824-2.663 2.6703 0.41137 3.1097 3.7639 1.9873 3.8516 0.24572l-0.95938 0.40091-0.4528-1.4722 2.4005-0.60388c0.85788 2.2739 0.15535 4.4262-2.0828 5.1581-1.434 0.38328-3.6231 0.30851-4.3484-2.2202-1.5696-4.8479 2.7098-7.6444 5.2942-5.033z" stroke-width=".45043"/>
 </g>
</svg>
